<svg width="1417" height="845" viewBox="0 0 1417 845" fill="none" xmlns="http://www.w3.org/2000/svg">
<g opacity="0.1" clip-path="url(#clip0_126_486)">
<path d="M1382.47 309.418L823.109 530.432L824.63 534.281L1383.99 313.267L1382.47 309.418Z" fill="white"/>
<path d="M592.57 6.52489L591.057 10.377L1372.4 317.369L1373.91 313.517L592.57 6.52489Z" fill="white"/>
<path d="M595.09 6.96434L44.8398 196.646L46.1886 200.558L596.439 10.8771L595.09 6.96434Z" fill="white"/>
<path d="M823.021 534.338L820.479 533.182L32.3359 195.278L33.9536 191.496L822.138 529.401L824.722 530.577L823.021 534.338Z" fill="white"/>
<path d="M595.497 18.2782L591.379 17.9631C591.61 14.8538 591.694 10.7781 591.757 7.47975C591.904 0.714934 591.904 0.168707 593.921 0.000637095C594.11 -0.0203716 595.833 -0.104407 596.232 1.97546L592.177 2.75278C592.324 3.34103 593.06 4.20238 594.173 4.13936C595.308 4.09734 595.98 3.19396 596.085 2.58471C596.001 3.06791 595.959 5.46291 595.917 7.58479C595.854 10.9252 595.77 15.0639 595.518 18.2782H595.497ZM594.194 2.35362L592.156 2.71076C592.156 2.71076 592.156 2.73177 592.156 2.75278L594.194 2.37462V2.35362Z" fill="white"/>
<path d="M1400.88 362.804L852.043 581.214L853.573 585.059L1402.41 366.649L1400.88 362.804Z" fill="white"/>
<path d="M854.916 583.006L850.777 583.047L851.915 697.413L856.054 697.372L854.916 583.006Z" fill="white"/>
<path d="M1400.91 364.547L1398.91 584.836L1403.05 584.873L1405.05 364.585L1400.91 364.547Z" fill="white"/>
<path d="M562.348 27.6529L57.2832 201.758L58.632 205.671L563.697 31.5657L562.348 27.6529Z" fill="white"/>
<path d="M3.13908 238.954L1.49805 242.754L792.946 584.588L794.587 580.789L3.13908 238.954Z" fill="white"/>
<path d="M15.6131 246.871L11.4746 246.912L12.4302 342.959L16.5687 342.918L15.6131 246.871Z" fill="white"/>
<path d="M795.877 582.648L791.738 582.689L792.876 697.055L797.015 697.014L795.877 582.648Z" fill="white"/>
<path d="M1411.37 346.811L849.195 570.072L850.723 573.919L1412.9 350.657L1411.37 346.811Z" fill="white"/>
<path d="M835.29 541.733L833.777 537.909L1381.16 319.986L1392.04 315.637L1393.58 319.481L1382.69 323.83L835.29 541.733Z" fill="white"/>
<path d="M24.1566 197.107L22.5195 200.908L813.862 541.714L815.499 537.913L24.1566 197.107Z" fill="white"/>
<path d="M4.54447 230.051L2.91406 233.855L793.209 572.576L794.84 568.772L4.54447 230.051Z" fill="white"/>
<path d="M594.799 0.146354L593.289 4L1385.97 314.487L1387.48 310.633L594.799 0.146354Z" fill="white"/>
<path d="M1412.75 364.182L1410.4 577.744L1414.54 577.79L1416.89 364.228L1412.75 364.182Z" fill="white"/>
<path d="M32.3136 196.496L31.2422 192.504L35.4229 191.369L593.457 0.126953L594.801 4.03458L36.6414 195.319L32.3136 196.496Z" fill="white"/>
<path d="M4.43148 242.256L0.292969 242.297L1.16659 330.109L5.3051 330.068L4.43148 242.256Z" fill="white"/>
<path d="M1413.07 358.561L1400.95 362.744L1402.3 366.656L1414.42 362.473L1413.07 358.561Z" fill="white"/>
<path d="M1361.81 322.275L1357.09 320.195L592.684 19.371L594.196 15.5264L1358.68 316.392L1363.47 318.493L1361.81 322.275Z" fill="white"/>
<path d="M592.719 16.2241L562.293 27.709L563.755 31.581L594.181 20.0961L592.719 16.2241Z" fill="white"/>
<path d="M1372.01 603.333L842.668 825.088L844.267 828.905L1373.61 607.15L1372.01 603.333Z" fill="white"/>
<path d="M47.2688 479.065L45.6172 482.86L183.793 542.998L185.445 539.203L47.2688 479.065Z" fill="white"/>
<path d="M224.868 557.309L223.141 561.07L429.287 655.756L431.015 651.996L224.868 557.309Z" fill="white"/>
<path d="M471.479 670.911L469.77 674.681L803.54 826.015L805.249 822.246L471.479 670.911Z" fill="white"/>
<path d="M1398.82 583.024L854.266 808.475L855.849 812.299L1400.4 586.848L1398.82 583.024Z" fill="white"/>
<path d="M855.967 697.486L851.828 697.527L852.952 810.486L857.09 810.445L855.967 697.486Z" fill="white"/>
<path d="M13.3226 313.304C1.74677 308.052 0.549274 301.602 0.864405 298.22L4.98212 298.598C4.62497 302.485 8.28049 306.455 15.0453 309.522L13.3436 313.283L13.3226 313.304Z" fill="white"/>
<path d="M711.787 624.367L710.076 628.136L793.716 666.094L795.426 662.325L711.787 624.367Z" fill="white"/>
<path d="M570.139 560.067L568.387 563.816L625.123 590.333L626.875 586.584L570.139 560.067Z" fill="white"/>
<path d="M558.974 554.875L557.223 558.625L568.415 563.853L570.166 560.104L558.974 554.875Z" fill="white"/>
<path d="M316.808 445.118L315.098 448.887L478.264 522.937L479.975 519.168L316.808 445.118Z" fill="white"/>
<path d="M303.391 438.993L301.68 442.761L315.318 448.956L317.029 445.188L303.391 438.993Z" fill="white"/>
<path d="M226.203 408.789L220.132 405.784L181.413 388.2L159.27 378.557L160.929 374.775L183.072 384.418L221.918 402.045L228.031 405.07L226.203 408.789Z" fill="white"/>
<path d="M15.0004 309.509L13.3574 313.308L79.65 341.981L81.293 338.183L15.0004 309.509Z" fill="white"/>
<path d="M824.284 671.692C813.086 671.692 801.952 669.801 793.695 666.061L795.397 662.301C810.691 669.255 836.448 669.402 852.814 662.637L854.39 666.461C845.923 669.969 835.061 671.713 824.263 671.713L824.284 671.692Z" fill="white"/>
<path d="M1401.62 437.121L852.828 662.646L854.401 666.475L1403.2 440.949L1401.62 437.121Z" fill="white"/>
<path d="M826.382 843.775L824.26 840.225C833.882 834.489 846.697 824.489 853.168 809.552L856.949 811.19C850.016 827.136 836.487 837.703 826.361 843.754L826.382 843.775Z" fill="white"/>
<path d="M978.508 780.392L976.281 776.904C987.143 769.992 997.416 759.047 1005.17 746.105L1008.72 748.227C1000.63 761.736 989.895 773.144 978.508 780.392Z" fill="white"/>
<path d="M1129.66 716.924L1127.44 713.436C1138.21 706.587 1146.53 697.68 1154.39 684.57L1157.94 686.692C1149.75 700.39 1141.03 709.697 1129.66 716.924Z" fill="white"/>
<path d="M1259.16 662.365L1256.96 658.877C1268.78 651.398 1277.4 642.722 1284.1 631.587L1287.65 633.709C1280.61 645.411 1271.56 654.528 1259.18 662.365H1259.16Z" fill="white"/>
<path d="M1384.84 609.612L1382.61 606.124C1393.28 599.338 1403.05 588.834 1410.91 575.725L1414.46 577.846C1406.29 591.502 1396.03 602.49 1384.84 609.612Z" fill="white"/>
<path d="M1382.02 602.868L1380.36 599.086C1388.72 595.431 1393.09 592.447 1398.58 583.351L1402.13 585.472C1396.14 595.431 1390.89 599.023 1382.02 602.868Z" fill="white"/>
<path d="M824.285 843.795C808.214 834.53 801.785 825.833 794.18 810.98L797.856 809.089C805.083 823.207 811.176 831.463 826.344 840.203L824.285 843.774V843.795Z" fill="white"/>
<path d="M29.7093 482.424C13.3645 472.992 9.64592 465.701 2.8601 452.445L2.46094 451.647L6.13747 449.756L6.53663 450.554C13.1544 463.517 16.4948 470.008 31.7681 478.832L29.7093 482.403V482.424Z" fill="white"/>
<path d="M33.4268 476.688C21.0106 469.693 16.977 463.264 12.25 454.23L15.9055 452.318C20.8426 461.751 24.393 466.877 35.4436 473.096L33.4058 476.688H33.4268Z" fill="white"/>
<path d="M476.507 662.275L474.795 666.043L794.343 811.198L796.055 807.43L476.507 662.275Z" fill="white"/>
<path d="M230.651 548.722L228.918 552.48L435.24 647.64L436.973 643.882L230.651 548.722Z" fill="white"/>
<path d="M16.411 453.966L14.7441 457.754L189.483 534.641L191.15 530.853L16.411 453.966Z" fill="white"/>
<path d="M796.914 697.129L792.775 697.17L793.899 810.128L798.038 810.087L796.914 697.129Z" fill="white"/>
<path d="M16.5487 342.934L12.4102 342.975L13.514 455.912L17.6525 455.872L16.5487 342.934Z" fill="white"/>
<path d="M1383.42 605.696L823.82 840.473L825.421 844.289L1385.03 609.513L1383.42 605.696Z" fill="white"/>
<path d="M30.7477 478.335L29.0703 482.118L181.93 549.888L183.607 546.104L30.7477 478.335Z" fill="white"/>
<path d="M222.359 563.633L220.633 567.395L423.28 660.388L425.006 656.626L222.359 563.633Z" fill="white"/>
<path d="M466.774 676.231L465.057 679.997L825.348 844.267L827.065 840.501L466.774 676.231Z" fill="white"/>
<path d="M5.28891 330.081L1.15039 330.121L2.34132 451.966L6.47984 451.925L5.28891 330.081Z" fill="white"/>
<path d="M1402.65 588.367L1370.61 604.141L1372.44 607.854L1404.48 592.08L1402.65 588.367Z" fill="white"/>
<path d="M45.5277 482.802L25.2963 472.949L12.418 467.424L14.0567 463.621L27.019 469.188L47.3555 479.084L45.5277 482.802Z" fill="white"/>
<path d="M1403.3 440.804L1401.73 436.981C1409.44 433.787 1412.97 429.796 1412.21 425.09L1416.29 424.438C1417.04 429.144 1415.41 435.804 1403.3 440.804Z" fill="white"/>
<path d="M14.4599 389.334C14.1237 389.186 13.8086 389.039 13.4935 388.871H13.2624V388.745C5.59418 384.922 1.14033 379.291 1.5605 373.829L5.67822 374.144C5.44712 377.338 8.59843 382.107 16.1616 385.552L17.3591 386.098V388.829L14.67 388.85L14.4599 389.313V389.334Z" fill="white"/>
<path d="M14.5864 458.158C6.20391 454.355 1.8341 449.124 2.25427 443.431L6.37198 443.746C6.07786 447.527 9.69136 451.414 16.2881 454.397L14.5864 458.158Z" fill="white"/>
<path d="M1403.1 523.454L1401.52 519.63C1410.13 516.059 1411.23 511.605 1411.29 508.559L1415.43 508.643C1415.28 515.239 1411.25 520.071 1403.12 523.454H1403.1Z" fill="white"/>
<path d="M1400.22 586.942L1398.64 583.118C1406.1 580.03 1410.26 576.185 1410.34 572.257L1414.48 572.341C1414.4 576.332 1411.86 582.11 1400.24 586.921L1400.22 586.942Z" fill="white"/>
<path d="M1404.47 518.385L856.996 743.367L858.569 747.195L1406.04 522.213L1404.47 518.385Z" fill="white"/>
<path d="M828.846 752.344C817.774 752.344 806.808 750.495 798.656 746.798L800.358 743.037C815.442 749.886 840.842 750.033 856.977 743.352L858.552 747.176C850.191 750.642 839.476 752.344 828.825 752.344H828.846Z" fill="white"/>
<path d="M712.566 703.177L710.855 706.945L798.666 746.796L800.376 743.028L712.566 703.177Z" fill="white"/>
<path d="M624.679 667.994L520.56 620.577L507.934 614.863L509.635 611.081L522.262 616.816L626.402 664.233L624.679 667.994Z" fill="white"/>
<path d="M465.16 595.659L455.601 591.1L273.056 508.263L256.375 500.511L258.119 496.75L274.779 504.502L457.345 587.361L466.925 591.941L465.16 595.659Z" fill="white"/>
<path d="M161.116 452.494L159.402 456.262L215.032 481.567L216.745 477.799L161.116 452.494Z" fill="white"/>
<path d="M15.1247 385.041L13.3789 388.794L79.3997 419.51L81.1455 415.757L15.1247 385.041Z" fill="white"/>
<path d="M499.73 531.808L495.592 531.844L495.693 543.629L499.831 543.594L499.73 531.808Z" fill="white"/>
<path d="M496.373 530.239L481.969 542.193L484.612 545.378L499.016 533.424L496.373 530.239Z" fill="white"/>
<path d="M520.056 544.02C519.762 544.02 519.489 543.957 519.195 543.831L496.842 533.684C495.812 533.222 495.35 531.982 495.812 530.953C496.274 529.923 497.514 529.461 498.543 529.923L520.897 540.071C521.926 540.533 522.388 541.772 521.926 542.802C521.59 543.558 520.834 544.02 520.035 544.02H520.056Z" fill="white"/>
<path d="M518.718 540.349L504.281 552.297L506.92 555.485L521.357 543.538L518.718 540.349Z" fill="white"/>
<path d="M506.468 552.034L504.758 555.803L520.579 562.983L522.289 559.214L506.468 552.034Z" fill="white"/>
<path d="M557.636 544.21C557.342 544.21 557.069 544.147 556.775 544.021L485.933 511.877C484.904 511.415 484.442 510.176 484.904 509.146C485.366 508.117 486.606 507.655 487.635 508.117L558.477 540.26C559.506 540.722 559.968 541.962 559.506 542.991C559.17 543.748 558.413 544.21 557.615 544.21H557.636Z" fill="white"/>
<path d="M485.125 508.755L466.193 535.533L469.573 537.922L488.505 511.144L485.125 508.755Z" fill="white"/>
<path d="M468.742 534.886L467.031 538.654L482.432 545.643L484.142 541.875L468.742 534.886Z" fill="white"/>
<path d="M505.85 591.626C500.366 591.626 496.018 588.139 494.169 582.277C491.165 572.655 495.597 559.483 504.274 552.298L506.9 555.491C499.547 561.584 495.597 573.054 498.097 581.059C499.379 585.155 502.194 587.508 505.829 587.508V591.647L505.85 591.626Z" fill="white"/>
<path d="M475.556 578.286C473.96 576.71 472.741 574.672 471.964 572.214C468.897 562.571 473.288 549.357 481.964 542.172L484.611 545.344C477.279 551.437 473.372 562.928 475.914 570.954C476.481 572.761 477.342 574.21 478.456 575.324L475.556 578.265V578.286Z" fill="white"/>
<path d="M558.227 602.719C558.227 602.719 558.08 602.719 557.996 602.719L521.546 598.854C520.411 598.728 519.592 597.719 519.718 596.585C519.844 595.45 520.852 594.631 521.987 594.757L558.437 598.623C559.571 598.749 560.391 599.757 560.265 600.891C560.16 601.963 559.256 602.74 558.206 602.74L558.227 602.719Z" fill="white"/>
<path d="M467.007 574.651C463.393 574.525 460.641 571.521 459.465 566.395C457.385 557.382 460.347 543.832 466.187 535.575L469.57 537.97C464.423 545.26 461.692 557.592 463.498 565.471C464.213 568.58 465.578 570.471 467.154 570.534L467.007 574.672V574.651Z" fill="white"/>
<path d="M521.566 598.833C514.822 598.119 509.423 594.169 507.091 588.244C503.141 578.16 509.129 565.156 520.474 559.231L522.385 562.887C512.868 567.866 507.721 578.559 510.936 586.732C512.7 591.249 516.734 594.169 521.986 594.715L521.545 598.833H521.566Z" fill="white"/>
<path d="M559.748 542.08L555.609 542.121L556.192 600.649L560.33 600.607L559.748 542.08Z" fill="white"/>
<path d="M556.7 540.311L520.488 559.242L522.406 562.91L558.618 543.979L556.7 540.311Z" fill="white"/>
<path d="M500.374 585.345L498.664 589.113L512.572 595.425L514.283 591.656L500.374 585.345Z" fill="white"/>
<path d="M496.665 578.6L494.955 582.369L507.715 588.16L509.426 584.391L496.665 578.6Z" fill="white"/>
<path d="M496.628 569.315L494.918 573.084L507.659 578.866L509.369 575.098L496.628 569.315Z" fill="white"/>
<path d="M500.181 559.667L498.471 563.436L512.321 569.721L514.032 565.953L500.181 559.667Z" fill="white"/>
<path d="M464.672 569.057L462.998 572.843L476.179 578.67L477.853 574.885L464.672 569.057Z" fill="white"/>
<path d="M462.132 562.975L460.422 566.744L472.78 572.353L474.491 568.584L462.132 562.975Z" fill="white"/>
<path d="M462.037 553.636L460.326 557.404L472.646 562.996L474.357 559.227L462.037 553.636Z" fill="white"/>
<path d="M464.435 543.459L462.725 547.228L476.154 553.322L477.865 549.554L464.435 543.459Z" fill="white"/>
<path d="M247.075 418.346L242.938 418.429L243.161 429.582L247.299 429.499L247.075 418.346Z" fill="white"/>
<path d="M301.96 485.406C301.96 485.406 301.813 485.406 301.729 485.406L267.296 481.75C266.161 481.624 265.342 480.616 265.468 479.481C265.594 478.347 266.602 477.527 267.737 477.653L302.17 481.309C303.305 481.435 304.124 482.443 303.998 483.578C303.893 484.649 302.989 485.427 301.939 485.427L301.96 485.406Z" fill="white"/>
<path d="M225.891 463.874C223.433 462.34 221.605 459.819 220.597 456.605C217.698 447.445 221.857 434.924 230.072 428.096L232.719 431.268C225.807 437.003 222.151 447.802 224.546 455.344C225.261 457.613 226.5 459.357 228.118 460.365L225.912 463.853L225.891 463.874Z" fill="white"/>
<path d="M251.775 475.008C247.006 474.63 243.203 471.311 241.585 466.122C238.728 456.983 242.951 444.483 251.165 437.676L253.791 440.869C246.88 446.583 243.161 457.382 245.514 464.903C246.648 468.517 248.98 470.659 252.09 470.891L251.754 475.008H251.775Z" fill="white"/>
<path d="M216.017 458.893C212.487 458.893 209.714 455.973 208.579 450.994C206.605 442.444 209.42 429.607 214.945 421.792L218.327 424.187C213.474 431.057 210.911 442.675 212.613 450.091C212.865 451.204 213.937 454.902 216.122 454.776L216.29 458.914C216.29 458.914 216.101 458.914 216.017 458.914V458.893Z" fill="white"/>
<path d="M264.796 426.37L251.152 437.661L253.791 440.85L267.435 429.558L264.796 426.37Z" fill="white"/>
<path d="M253.337 437.387L251.627 441.156L266.358 447.841L268.068 444.073L253.337 437.387Z" fill="white"/>
<path d="M301.417 430.133C301.122 430.133 300.849 430.07 300.555 429.944L233.642 399.565C232.613 399.103 232.151 397.863 232.613 396.834C233.075 395.804 234.315 395.342 235.344 395.804L302.257 426.183C303.286 426.645 303.749 427.885 303.286 428.914C302.95 429.67 302.194 430.133 301.396 430.133H301.417Z" fill="white"/>
<path d="M232.81 396.493L214.934 421.778L218.313 424.168L236.19 398.882L232.81 396.493Z" fill="white"/>
<path d="M217.468 421.103L215.758 424.872L230.527 431.575L232.237 427.806L217.468 421.103Z" fill="white"/>
<path d="M243.677 416.804L230.064 428.101L232.708 431.285L246.32 419.988L243.677 416.804Z" fill="white"/>
<path d="M266.121 430.049C265.827 430.049 265.554 429.986 265.26 429.86L244.146 420.28C243.117 419.818 242.655 418.578 243.117 417.549C243.579 416.519 244.819 416.057 245.848 416.519L266.962 426.099C267.991 426.561 268.453 427.801 267.991 428.83C267.655 429.587 266.899 430.049 266.1 430.049H266.121Z" fill="white"/>
<path d="M267.318 481.752C260.911 481.079 255.763 477.298 253.558 471.688C249.797 462.108 255.49 449.755 266.247 444.125L268.159 447.781C259.209 452.444 254.398 462.487 257.402 470.155C259.062 474.378 262.843 477.109 267.759 477.634L267.318 481.752Z" fill="white"/>
<path d="M303.517 428.015L299.379 428.057L299.929 483.349L304.068 483.308L303.517 428.015Z" fill="white"/>
<path d="M300.464 426.231L266.244 444.121L268.162 447.789L302.382 429.899L300.464 426.231Z" fill="white"/>
<path d="M213.648 453.374L211.938 457.143L224.908 463.029L226.619 459.26L213.648 453.374Z" fill="white"/>
<path d="M211.21 447.542L209.5 451.312L221.381 456.701L223.091 452.932L211.21 447.542Z" fill="white"/>
<path d="M211.134 438.801L209.424 442.569L221.285 447.952L222.995 444.184L211.134 438.801Z" fill="white"/>
<path d="M213.405 429.147L211.695 432.916L224.61 438.774L226.319 435.005L213.405 429.147Z" fill="white"/>
<path d="M247.558 468.817L245.848 472.586L258.78 478.455L260.49 474.686L247.558 468.817Z" fill="white"/>
<path d="M244.099 462.556L242.389 466.325L254.231 471.699L255.941 467.931L244.099 462.556Z" fill="white"/>
<path d="M244.027 453.772L242.316 457.541L254.139 462.907L255.85 459.138L244.027 453.772Z" fill="white"/>
<path d="M247.386 444.604L245.676 448.373L258.551 454.216L260.261 450.447L247.386 444.604Z" fill="white"/>
<path d="M266.074 479.607L223.594 553.305L227.179 555.372L269.66 481.674L266.074 479.607Z" fill="white"/>
<path d="M221.08 593.266C214.567 582.593 215.534 567.278 223.601 553.328L227.173 555.387C219.883 568.034 218.895 581.732 224.61 591.123L221.08 593.266Z" fill="white"/>
<path d="M517.585 594.53L453.877 691.406L457.335 693.68L521.043 596.804L517.585 594.53Z" fill="white"/>
<path d="M398.393 729.402C392.195 729.402 386.208 728.225 380.725 725.725L382.426 721.965C404.612 732.028 435.999 718.603 453.877 691.376L457.322 693.645C442.679 715.914 419.297 729.402 398.372 729.402H398.393Z" fill="white"/>
<path d="M201.632 638.578L199.898 642.336L380.719 725.772L382.453 722.014L201.632 638.578Z" fill="white"/>
<path d="M201.394 642.951C196.184 640.577 191.73 637.174 188.158 632.825L191.352 630.22C194.503 634.085 198.452 637.111 203.095 639.211L201.394 642.972V642.951Z" fill="white"/>
<path d="M495.537 582.904L438.855 680.059L442.43 682.144L499.112 584.989L495.537 582.904Z" fill="white"/>
<path d="M243.862 426.282L241.936 429.945L255.453 437.054L257.38 433.391L243.862 426.282Z" fill="white"/>
<path d="M243.708 469.343L207.223 541.012L210.911 542.889L247.396 471.221L243.708 469.343Z" fill="white"/>
<path d="M243.002 427.935L173.898 560.006L177.566 561.925L246.669 429.854L243.002 427.935Z" fill="white"/>
<path d="M188.81 633.413C165.847 620.219 159.44 588.664 173.894 559.987L177.591 561.836C166.162 584.526 166.94 616.06 190.89 629.82L188.831 633.413H188.81Z" fill="white"/>
<path d="M190.717 629.769L188.982 633.526L368.3 716.307L370.035 712.549L190.717 629.769Z" fill="white"/>
<path d="M385.221 719.842C379.338 719.842 373.603 718.687 368.309 716.292L370.01 712.531C392.132 722.573 422.385 708.329 438.856 680.094L442.427 682.174C428.772 705.577 405.998 719.842 385.221 719.842Z" fill="white"/>
<path d="M497.341 541.265L495.627 545.032L509.777 551.472L511.491 547.705L497.341 541.265Z" fill="white"/>
<path d="M437.071 647.489C436.714 647.489 436.357 647.405 436.042 647.216C435.054 646.648 434.718 645.367 435.285 644.4L494.698 542.193C495.265 541.206 496.547 540.869 497.513 541.437C498.501 542.004 498.837 543.285 498.269 544.252L438.857 646.459C438.479 647.111 437.785 647.489 437.071 647.489Z" fill="white"/>
<path d="M400.076 672.005C396.064 672.005 392.156 671.228 388.521 669.568L390.223 665.808C404.698 672.363 424.488 662.972 435.287 644.379L438.858 646.459C429.636 662.32 414.194 672.005 400.076 672.005Z" fill="white"/>
<path d="M219.29 588.251L217.58 592.02L388.514 669.594L390.224 665.826L219.29 588.251Z" fill="white"/>
<path d="M217.592 592.005C210.953 588.98 206.058 583.475 203.474 576.08C199.818 565.681 201.205 552.908 207.234 541.017L210.911 542.886C205.386 553.769 204.083 565.366 207.361 574.715C209.566 581.017 213.705 585.702 219.293 588.244L217.592 592.005Z" fill="white"/>
<path d="M644.701 563.37L642.033 560.219C647.979 555.198 655.794 554.505 664.071 558.244L662.37 562.005C655.626 558.937 649.365 559.421 644.701 563.37Z" fill="white"/>
<path d="M708.947 619.317C708.758 599.275 696.321 577.426 681.236 570.577L682.938 566.816C699.346 574.253 712.875 597.804 713.086 619.296L708.947 619.338V619.317Z" fill="white"/>
<path d="M709.848 660.851L709.449 656.733C709.323 656.733 709.197 656.817 709.176 656.859C709.176 656.859 709.323 656.67 709.302 656.124L713.441 656.082C713.462 658.687 711.991 660.641 709.848 660.83V660.851Z" fill="white"/>
<path d="M681.374 651.93L679.664 655.699L698.584 664.286L700.295 660.517L681.374 651.93Z" fill="white"/>
<path d="M700.354 664.653C699.766 664.653 699.157 664.527 698.568 664.254L700.27 660.493C700.27 660.493 700.102 660.577 700.039 660.661C700.039 660.661 700.186 660.451 700.165 659.926L704.304 659.884C704.304 661.733 703.61 663.245 702.371 664.065C701.762 664.464 701.068 664.653 700.354 664.653Z" fill="white"/>
<path d="M699.804 623.097C699.615 603.055 687.178 581.206 672.094 574.357L673.795 570.597C690.203 578.034 703.733 601.585 703.943 623.076L699.804 623.119V623.097Z" fill="white"/>
<path d="M623.817 588.622C623.691 576.689 627.683 567.214 634.763 562.593C640.435 558.895 647.599 558.706 654.931 562.025L653.23 565.786C647.137 563.034 641.549 563.118 637.032 566.059C631.17 569.883 627.851 578.097 627.956 588.58L623.817 588.622Z" fill="white"/>
<path d="M628.004 588.545L623.865 588.586L624.061 608.228L628.199 608.187L628.004 588.545Z" fill="white"/>
<path d="M713.117 619.25L708.979 619.291L709.345 656.117L713.483 656.076L713.117 619.25Z" fill="white"/>
<path d="M703.974 623.017L699.836 623.059L700.202 659.885L704.341 659.844L703.974 623.017Z" fill="white"/>
<path d="M654.923 562.012L653.213 565.78L672.076 574.341L673.786 570.572L654.923 562.012Z" fill="white"/>
<path d="M664.081 558.262L662.371 562.03L681.234 570.591L682.944 566.822L664.081 558.262Z" fill="white"/>
<path d="M680.968 659.736L679.258 663.505L707.877 676.493L709.588 672.725L680.968 659.736Z" fill="white"/>
<path d="M709.554 679.653C709.554 678.267 708.629 676.796 707.873 676.46L709.575 672.699C711.886 673.75 713.65 676.733 713.671 679.611L709.533 679.653H709.554Z" fill="white"/>
<path d="M701.612 727.174L699.658 723.54C706.087 720.094 709.847 711.439 709.742 700.409L713.881 700.367C714.007 713.14 709.532 722.91 701.612 727.174Z" fill="white"/>
<path d="M710.806 677.786L701.662 681.568L703.244 685.393L712.388 681.611L710.806 677.786Z" fill="white"/>
<path d="M704.574 683.347L700.436 683.388L700.642 704.122L704.78 704.081L704.574 683.347Z" fill="white"/>
<path d="M713.715 679.58L709.576 679.621L709.782 700.356L713.921 700.315L713.715 679.58Z" fill="white"/>
<path d="M656.503 718.464L654.793 722.232L673.656 730.793L675.366 727.024L656.503 718.464Z" fill="white"/>
<path d="M654.763 722.176C643.041 716.86 632.62 703.583 627.557 687.511L625.078 679.969L629.007 678.688L631.507 686.272C636.171 701.062 645.961 713.667 656.486 718.436L654.784 722.197L654.763 722.176Z" fill="white"/>
<path d="M683.776 733.1C680.52 733.1 677.095 732.323 673.629 730.747L675.331 726.987C681.423 729.739 687.012 729.655 691.528 726.714C697.39 722.89 700.709 714.676 700.604 704.192L704.743 704.15C704.869 716.083 700.877 725.558 693.797 730.18C690.814 732.134 687.411 733.1 683.776 733.1Z" fill="white"/>
<path d="M700.392 683.435C700.392 682.049 699.467 680.578 698.711 680.242L700.413 676.481C702.724 677.532 704.488 680.515 704.509 683.414L700.371 683.456L700.392 683.435Z" fill="white"/>
<path d="M681.083 667.721L679.373 671.49L698.733 680.277L700.444 676.508L681.083 667.721Z" fill="white"/>
<path d="M707.892 672.724L698.748 676.506L700.33 680.33L709.474 676.548L707.892 672.724Z" fill="white"/>
<path d="M709.763 656.544L700.619 660.326L702.201 664.151L711.345 660.369L709.763 656.544Z" fill="white"/>
<path d="M699.835 723.463L690.377 727.528L692.011 731.331L701.469 727.265L699.835 723.463Z" fill="white"/>
<path d="M656.549 709.34C654.532 709.34 652.431 708.836 650.33 707.807L652.137 704.088C655.204 705.58 658.082 705.58 660.477 704.067C664.154 701.756 666.297 696.252 666.234 689.382L670.372 689.34C670.456 697.659 667.578 704.466 662.704 707.554C660.834 708.731 658.755 709.34 656.57 709.34H656.549Z" fill="white"/>
<path d="M669.84 636.087L665.701 636.128L666.231 689.361L670.369 689.32L669.84 636.087Z" fill="white"/>
<path d="M665.687 636.166C665.603 627.531 663.964 621.187 661.422 619.548L663.649 616.061C668.628 619.233 669.762 628.708 669.825 636.124L665.687 636.166Z" fill="white"/>
<path d="M672.265 614.107C672.202 613.981 672.139 613.918 672.118 613.897C672.181 613.939 672.307 614.002 672.454 614.002L672.265 614.107ZM673.231 613.582L670.773 610.514C671.446 609.968 672.307 609.779 673.168 609.947C674.261 610.157 675.248 610.955 675.9 612.132L673.231 613.582Z" fill="white"/>
<path d="M661.235 709.949C658.504 709.949 655.647 709.549 652.727 708.709L653.861 704.738C660.962 706.755 667.664 705.915 672.223 702.427C676.067 699.507 678.063 694.99 678 689.381V689.276L678.21 686.713L682.328 687.049L682.139 689.423C682.181 696.251 679.555 702.028 674.744 705.705C671.067 708.499 666.382 709.949 661.235 709.949Z" fill="white"/>
<path d="M677.685 633.686C677.622 627.279 675.711 620.325 672.328 614.127L675.963 612.152C679.681 618.938 681.761 626.585 681.824 633.644L677.685 633.686Z" fill="white"/>
<path d="M681.853 633.615L677.715 633.656L678.244 686.89L682.383 686.849L681.853 633.615Z" fill="white"/>
<path d="M645.949 701.381L644.238 705.149L651.451 708.423L653.161 704.654L645.949 701.381Z" fill="white"/>
<path d="M644.215 705.096C632.996 700.012 623.753 683.94 623.605 669.297L627.744 669.255C627.87 682.448 636.043 696.839 645.938 701.335L644.236 705.096H644.215Z" fill="white"/>
<path d="M660.814 618.96C659.848 617.51 660.1 616.312 660.331 615.724C660.856 614.401 662.138 613.896 662.705 613.749L671.802 610.01L673.377 613.833L663.797 617.741C664.155 617.573 664.365 616.922 664.218 616.586L660.835 618.981L660.814 618.96Z" fill="white"/>
<path d="M623.082 616.06C622.998 608.224 625.561 601.795 630.12 598.455L632.578 601.796C629.112 604.338 627.158 609.527 627.221 616.039L623.082 616.081V616.06Z" fill="white"/>
<path d="M627.226 615.986L623.088 616.027L623.617 669.261L627.756 669.22L627.226 615.986Z" fill="white"/>
<path d="M647.129 586.477L645.418 590.245L646.814 590.879L648.525 587.111L647.129 586.477Z" fill="white"/>
<path d="M655.88 582.789L654.172 586.559L655.569 587.191L657.277 583.421L655.88 582.789Z" fill="white"/>
<path d="M630.078 600.702C630.014 594.379 632.178 589.315 636.023 586.815C639.174 584.778 643.103 584.652 647.095 586.458L645.393 590.219C642.683 589 640.225 589.021 638.292 590.282C635.666 592.005 634.174 595.786 634.237 600.66L630.098 600.702H630.078Z" fill="white"/>
<path d="M646.339 688.14C637.662 684.211 630.771 672.278 630.666 660.976L634.805 660.934C634.91 670.577 640.855 681.102 648.061 684.379L646.36 688.14H646.339Z" fill="white"/>
<path d="M653.248 690.031C651.484 690.031 649.614 689.611 647.744 688.75L649.446 684.989C652.156 686.208 654.614 686.208 656.547 684.926C659.173 683.203 660.665 679.422 660.601 674.548L664.74 674.506C664.803 680.829 662.639 685.893 658.795 688.393C657.135 689.485 655.223 690.031 653.227 690.031H653.248Z" fill="white"/>
<path d="M660.036 614.275C659.931 604.611 653.985 594.106 646.779 590.829L648.481 587.068C657.158 590.997 664.049 602.93 664.154 614.233L660.015 614.275H660.036Z" fill="white"/>
<path d="M664.203 614.21L660.064 614.251L660.664 674.522L664.803 674.481L664.203 614.21Z" fill="white"/>
<path d="M672.906 610.673L668.768 610.714L668.788 612.836L672.927 612.795L672.906 610.673Z" fill="white"/>
<path d="M634.256 600.622L630.117 600.663L630.717 660.934L634.855 660.893L634.256 600.622Z" fill="white"/>
<path d="M648.057 684.356L646.35 688.126L647.747 688.759L649.454 684.989L648.057 684.356Z" fill="white"/>
<path d="M647.096 586.606L644.869 583.118C647.999 581.101 651.907 580.996 655.878 582.803L654.176 586.564C651.487 585.345 649.05 585.345 647.096 586.606Z" fill="white"/>
<path d="M668.819 610.66C668.714 600.996 662.768 590.492 655.562 587.215L657.264 583.454C665.941 587.383 672.832 599.316 672.937 610.618L668.798 610.66H668.819Z" fill="white"/>
<path d="M645.699 582.674L636.904 586.312L638.486 590.136L647.281 586.499L645.699 582.674Z" fill="white"/>
<path d="M649.321 620.64C648.942 620.64 648.543 620.619 648.144 620.556L648.711 616.459C649.51 616.564 650.644 616.522 651.59 615.703C652.598 614.821 653.144 613.203 653.123 611.144C653.081 606.228 649.972 600.682 646.358 599.043C643.963 597.951 642.283 599.736 641.694 600.556L638.375 598.098C640.812 594.82 644.615 593.707 648.081 595.282C653.165 597.593 657.22 604.547 657.283 611.123C657.325 615.304 655.707 617.615 654.342 618.812C652.976 620.01 651.232 620.661 649.342 620.661L649.321 620.64Z" fill="white"/>
<path d="M649.171 620.661C647.575 620.661 645.915 620.304 644.403 619.611C639.781 617.51 636.104 611.207 636.041 605.262L640.18 605.22C640.222 609.548 642.932 614.401 646.104 615.85C647.302 616.396 648.667 616.628 649.865 616.48L650.327 620.577C649.949 620.619 649.55 620.64 649.171 620.64V620.661Z" fill="white"/>
<path d="M636.042 605.262C636 601.501 637.68 598.98 638.668 597.804L641.819 600.493C641.189 601.228 640.16 602.804 640.181 605.22L636.042 605.262Z" fill="white"/>
<path d="M98.5548 324.627L95.8867 321.475C101.37 316.853 108.576 316.202 116.202 319.648L114.5 323.408C108.429 320.656 102.757 321.076 98.5548 324.627Z" fill="white"/>
<path d="M156.939 375.573C156.75 357.337 145.447 337.442 131.729 331.223L133.43 327.463C148.472 334.291 160.868 355.846 161.057 375.531L156.918 375.573H156.939Z" fill="white"/>
<path d="M157.945 413.682L157.546 409.565C157.357 409.565 157.21 409.712 157.168 409.754C157.189 409.712 157.252 409.523 157.252 409.187L161.391 409.145C161.412 411.603 160.004 413.472 157.945 413.661V413.682Z" fill="white"/>
<path d="M131.984 405.182L130.273 408.951L147.549 416.791L149.259 413.022L131.984 405.182Z" fill="white"/>
<path d="M149.249 417.149C148.681 417.149 148.114 417.023 147.547 416.771L149.249 413.01C149.249 413.01 148.891 413.095 148.807 413.221C148.828 413.179 148.891 412.989 148.891 412.653L153.03 412.611C153.03 414.355 152.379 415.805 151.181 416.582C150.593 416.96 149.942 417.149 149.249 417.149Z" fill="white"/>
<path d="M148.576 379.04C148.387 360.804 137.084 340.909 123.365 334.69L125.067 330.93C140.109 337.758 152.504 359.312 152.693 378.998L148.555 379.04H148.576Z" fill="white"/>
<path d="M79.2053 347.547C79.1003 336.58 82.7768 327.883 89.2895 323.639C94.5207 320.235 101.117 320.046 107.861 323.114L106.16 326.874C100.655 324.374 95.6131 324.458 91.5374 327.105C86.2432 330.551 83.239 338.009 83.344 347.526L79.2053 347.568V347.547Z" fill="white"/>
<path d="M83.3495 347.5L79.2109 347.541L79.3894 365.482L83.5279 365.44L83.3495 347.5Z" fill="white"/>
<path d="M161.086 375.527L156.947 375.568L157.282 409.181L161.42 409.139L161.086 375.527Z" fill="white"/>
<path d="M152.74 378.992L148.602 379.033L148.936 412.646L153.074 412.604L152.74 378.992Z" fill="white"/>
<path d="M107.872 323.112L106.162 326.881L123.399 334.703L125.109 330.935L107.872 323.112Z" fill="white"/>
<path d="M116.205 319.631L114.494 323.399L131.731 331.222L133.441 327.453L116.205 319.631Z" fill="white"/>
<path d="M131.626 412.296L129.916 416.064L156.049 427.924L157.759 424.155L131.626 412.296Z" fill="white"/>
<path d="M157.483 430.679C157.483 429.502 156.685 428.2 156.055 427.927L157.756 424.166C159.92 425.153 161.58 427.948 161.601 430.658L157.462 430.7L157.483 430.679Z" fill="white"/>
<path d="M150.51 474.23L148.557 470.595C154.355 467.486 157.758 459.65 157.674 449.649L161.813 449.607C161.939 461.351 157.821 470.322 150.531 474.251L150.51 474.23Z" fill="white"/>
<path d="M158.731 428.782L150.383 432.234L151.965 436.059L160.313 432.606L158.731 428.782Z" fill="white"/>
<path d="M153.306 434.091L149.168 434.132L149.356 453.081L153.495 453.04L153.306 434.091Z" fill="white"/>
<path d="M161.656 430.626L157.518 430.667L157.706 449.616L161.845 449.575L161.656 430.626Z" fill="white"/>
<path d="M109.259 465.928L107.549 469.696L124.786 477.519L126.496 473.75L109.259 465.928Z" fill="white"/>
<path d="M107.568 469.671C96.8322 464.797 87.2732 452.633 82.6303 437.906L80.3613 431.015L84.29 429.733L86.5589 436.645C90.8027 450.091 99.7104 461.583 109.269 465.91L107.568 469.671Z" fill="white"/>
<path d="M134.123 479.649C131.14 479.649 127.988 478.935 124.795 477.485L126.497 473.725C132.001 476.225 137.043 476.141 141.119 473.494C146.413 470.048 149.417 462.59 149.312 453.073L153.451 453.031C153.556 463.998 149.879 472.695 143.367 476.939C140.614 478.746 137.463 479.628 134.123 479.628V479.649Z" fill="white"/>
<path d="M149.122 434.146C149.122 432.969 148.324 431.666 147.693 431.393L149.395 427.633C151.559 428.62 153.219 431.414 153.24 434.125L149.101 434.167L149.122 434.146Z" fill="white"/>
<path d="M131.74 419.622L130.029 423.391L147.706 431.413L149.417 427.644L131.74 419.622Z" fill="white"/>
<path d="M156.092 424.148L147.744 427.601L149.326 431.425L157.674 427.972L156.092 424.148Z" fill="white"/>
<path d="M157.778 409.375L149.43 412.828L151.012 416.653L159.359 413.2L157.778 409.375Z" fill="white"/>
<path d="M149.037 470.337L139.049 474.604L140.675 478.41L150.663 474.143L149.037 470.337Z" fill="white"/>
<path d="M109.27 457.948C107.4 457.948 105.446 457.486 103.514 456.54L105.32 452.822C108.052 454.145 110.636 454.145 112.758 452.822C116.056 450.742 117.989 445.784 117.926 439.565L122.064 439.523C122.148 447.171 119.48 453.452 114.984 456.309C113.241 457.402 111.308 457.969 109.291 457.969L109.27 457.948Z" fill="white"/>
<path d="M121.599 390.92L117.461 390.961L117.945 439.573L122.083 439.532L121.599 390.92Z" fill="white"/>
<path d="M117.422 390.974C117.338 383.158 115.888 377.402 113.619 375.952L115.846 372.465C120.447 375.406 121.497 384.125 121.581 390.932L117.443 390.974H117.422Z" fill="white"/>
<path d="M123.449 370.909L123.344 370.762C123.386 370.804 123.449 370.825 123.533 370.867L123.449 370.909ZM124.499 370.342L122.146 367.4C122.798 366.875 123.659 366.665 124.478 366.833C125.529 367.043 126.474 367.8 127.084 368.913L124.499 370.321V370.342Z" fill="white"/>
<path d="M113.532 458.516C111.011 458.516 108.385 458.138 105.717 457.381L106.851 453.411C113.28 455.238 119.33 454.482 123.469 451.331C126.936 448.684 128.721 444.629 128.679 439.566V439.461L128.868 437.129L132.986 437.465L132.818 439.629C132.86 445.911 130.423 451.226 125.99 454.629C122.608 457.213 118.28 458.537 113.553 458.537L113.532 458.516Z" fill="white"/>
<path d="M128.386 388.703C128.323 382.884 126.6 376.56 123.512 370.93L127.146 368.955C130.55 375.174 132.461 382.191 132.524 388.661L128.386 388.703Z" fill="white"/>
<path d="M132.541 388.647L128.402 388.688L128.888 437.531L133.027 437.49L132.541 388.647Z" fill="white"/>
<path d="M99.6323 450.292L97.9219 454.061L104.503 457.047L106.213 453.278L99.6323 450.292Z" fill="white"/>
<path d="M97.925 454.063C87.6307 449.378 79.1221 434.651 78.9961 421.205L83.1348 421.163C83.2609 433.159 90.6559 446.226 99.6477 450.302L97.946 454.063H97.925Z" fill="white"/>
<path d="M113.006 375.364C112.061 373.977 112.313 372.822 112.544 372.255C112.985 371.183 113.972 370.574 114.834 370.343L123.111 366.939L124.687 370.763L115.905 374.335C116.031 374.292 116.262 374.124 116.388 373.767C116.514 373.389 116.451 373.095 116.388 373.011L112.985 375.364H113.006Z" fill="white"/>
<path d="M78.5327 372.611C78.4697 365.384 80.8227 359.481 85.0244 356.393L87.4614 359.733C84.3521 362.023 82.5874 366.708 82.6504 372.59L78.5117 372.632L78.5327 372.611Z" fill="white"/>
<path d="M82.6756 372.568L78.5371 372.609L79.0205 421.2L83.159 421.159L82.6756 372.568Z" fill="white"/>
<path d="M100.689 345.408L98.9785 349.177L100.26 349.758L101.971 345.99L100.689 345.408Z" fill="white"/>
<path d="M108.723 342.087L107.016 345.857L108.298 346.438L110.006 342.668L108.723 342.087Z" fill="white"/>
<path d="M84.9175 358.576C84.8545 352.736 86.8713 348.051 90.4218 345.74C93.342 343.828 96.9975 343.723 100.695 345.404L98.9934 349.164C96.5773 348.072 94.3924 348.093 92.6697 349.206C90.3167 350.74 88.9932 354.144 89.0352 358.534L84.8965 358.576H84.9175Z" fill="white"/>
<path d="M99.8749 438.579C91.8916 434.965 85.5679 423.998 85.4629 413.62L89.6016 413.578C89.6856 422.192 95.1689 431.919 101.598 434.818L99.8959 438.579H99.8749Z" fill="white"/>
<path d="M106.242 440.343C104.603 440.343 102.88 439.944 101.137 439.167L102.838 435.406C105.254 436.498 107.439 436.498 109.162 435.364C111.515 433.83 112.839 430.427 112.797 426.036L116.935 425.994C116.998 431.835 114.981 436.52 111.431 438.83C109.876 439.839 108.112 440.343 106.242 440.343Z" fill="white"/>
<path d="M112.252 370.994C112.168 362.38 106.685 352.653 100.256 349.754L101.958 345.993C109.941 349.607 116.265 360.573 116.37 370.952L112.231 370.994H112.252Z" fill="white"/>
<path d="M116.416 370.95L112.277 370.991L112.825 426.031L116.963 425.99L116.416 370.95Z" fill="white"/>
<path d="M124.431 367.639L120.293 367.68L120.312 369.612L124.45 369.572L124.431 367.639Z" fill="white"/>
<path d="M89.0682 358.533L84.9297 358.574L85.4773 413.614L89.6158 413.573L89.0682 358.533Z" fill="white"/>
<path d="M101.58 434.814L99.8691 438.583L101.151 439.165L102.861 435.396L101.58 434.814Z" fill="white"/>
<path d="M100.737 345.867L98.5098 342.379C101.43 340.509 105.043 340.404 108.741 342.085L107.039 345.846C104.644 344.753 102.48 344.753 100.758 345.846L100.737 345.867Z" fill="white"/>
<path d="M120.277 367.673C120.193 359.06 114.689 349.333 108.281 346.433L109.983 342.673C117.966 346.286 124.29 357.253 124.395 367.631L120.256 367.673H120.277Z" fill="white"/>
<path d="M99.2757 341.952L91.2578 345.269L92.8396 349.093L100.858 345.777L99.2757 341.952Z" fill="white"/>
<path d="M102.671 376.981C102.314 376.981 101.935 376.96 101.578 376.897L102.145 372.801C102.839 372.885 103.826 372.864 104.624 372.149C105.507 371.372 105.99 369.943 105.969 368.137C105.927 363.704 103.133 358.725 99.8975 357.233C97.8176 356.288 96.368 357.842 95.8428 358.557L92.5234 356.099C94.7924 353.031 98.3639 352.002 101.599 353.473C106.305 355.615 110.045 362.023 110.108 368.095C110.15 371.981 108.637 374.145 107.356 375.259C106.074 376.393 104.435 376.981 102.671 376.981Z" fill="white"/>
<path d="M102.525 377.002C101.034 377.002 99.5001 376.666 98.0925 376.036C93.8068 374.082 90.4244 368.263 90.3613 362.779L94.5 362.737C94.5421 366.624 96.9791 370.994 99.8153 372.275C100.887 372.758 102.105 372.969 103.156 372.842L103.618 376.939C103.261 376.981 102.904 377.002 102.546 377.002H102.525Z" fill="white"/>
<path d="M90.3615 362.758C90.3405 359.25 91.8742 356.918 92.8196 355.825L95.9499 358.514C95.4036 359.166 94.4792 360.552 94.5003 362.716L90.3615 362.758Z" fill="white"/>
<path d="M1002.12 522.529C999.536 485.722 972.981 474.188 971.846 473.705L204.418 154.96L205.994 151.137L973.422 469.86C973.716 469.986 1003.44 482.781 1006.24 522.214L1002.12 522.508V522.529Z" fill="white"/>
<path d="M851.318 584.968C849.953 565.661 842.348 552.677 836.213 545.198C829.532 537.068 823.083 533.454 823.02 533.412L825.015 529.799C826.15 530.408 852.663 545.408 855.436 584.695L851.318 584.989V584.968Z" fill="white"/>
<path d="M823.397 591.943C814.259 591.943 803.544 590.115 791.779 584.737L793.502 580.976C811.086 589.022 826.234 588.434 835.835 586.522C846.276 584.442 852.642 580.388 852.705 580.346L854.953 583.812C854.217 584.295 842.116 591.943 823.397 591.943Z" fill="white"/>
<path d="M824.617 579.778C815.142 579.778 803.923 577.803 791.633 571.837L793.44 568.118C810.835 576.564 825.982 576.312 835.625 574.61C846.108 572.761 852.558 568.853 852.621 568.811L854.785 572.32C854.05 572.761 842.453 579.757 824.596 579.757L824.617 579.778Z" fill="white"/>
<path d="M825.415 817.934C816.171 817.934 805.31 816.085 793.377 810.644L795.1 806.883C812.705 814.95 827.873 814.446 837.495 812.597C847.958 810.602 854.344 806.631 854.407 806.589L856.613 810.076C855.878 810.539 843.924 817.913 825.415 817.913V817.934Z" fill="white"/>
<path d="M824.848 543.706C820.521 543.706 815.394 542.803 809.785 539.988L811.634 536.29C825.332 543.139 835.668 537.172 836.088 536.92L838.21 540.471C837.874 540.66 832.706 543.706 824.827 543.706H824.848Z" fill="white"/>
<path d="M825.919 833.563C819.532 833.563 812.074 831.987 804.301 827.071L806.507 823.584C825.604 835.643 842.495 825.37 843.209 824.929L845.415 828.437C844.911 828.752 837.053 833.563 825.919 833.563Z" fill="white"/>
<path d="M1152.94 461.058C1150.36 424.335 1119.43 413.179 1118.11 412.717L355.619 103.342L357.174 99.5186L1119.58 408.851C1119.83 408.935 1154.29 421.246 1157.08 460.764L1152.96 461.058H1152.94Z" fill="white"/>
<path d="M1281.66 408.808C1279.5 377.988 1263.61 364.984 1254.31 359.984L488.119 57.8993L489.632 54.0547L1256.05 356.223L1256.16 356.286C1280.48 369.396 1284.98 397.19 1285.78 408.514L1281.66 408.808Z" fill="white"/>
<path d="M1405.44 365.321L1401.33 364.985C1404.1 330.426 1371.03 316.812 1369.62 316.245L1371.16 312.4C1371.53 312.547 1408.47 327.674 1405.44 365.3V365.321Z" fill="white"/>
<path d="M1392.34 369.985L1388.22 369.648C1390.99 335.068 1359 321.244 1357.63 320.677L1359.23 316.854C1359.58 317.001 1395.36 332.358 1392.36 369.964L1392.34 369.985Z" fill="white"/>
<path d="M1416.83 365.09L1412.69 365.026C1413.32 325.719 1386.54 314.753 1385.38 314.311L1386.87 310.467C1387.19 310.593 1417.48 322.82 1416.81 365.111L1416.83 365.09Z" fill="white"/>
<path d="M795.833 584.819L791.715 584.483C795.139 542.172 821.043 530.029 822.135 529.524L823.837 533.285C823.585 533.39 799.047 545.05 795.833 584.798V584.819Z" fill="white"/>
<path d="M141.645 301.685L137.527 301.349C139.313 279.268 147.99 265.928 154.965 258.638C162.591 250.655 169.797 247.986 170.112 247.881L698.25 57.0801L699.658 60.9667L171.519 251.789C170.448 252.188 144.859 262.041 141.645 301.706V301.685Z" fill="white"/>
<path d="M287.213 363.43L283.096 363.094C284.881 341.014 293.558 327.673 300.533 320.383C308.159 312.4 315.365 309.732 315.68 309.627L838.251 112.712L839.701 116.578L317.109 313.513C315.995 313.913 290.428 323.766 287.213 363.43Z" fill="white"/>
<path d="M449.739 431.877L445.621 431.541C447.407 409.461 456.083 396.12 463.058 388.83C470.685 380.847 477.89 378.179 478.206 378.074L1006.43 178.428L1007.9 182.293L479.655 381.96C478.542 382.359 452.974 392.213 449.76 431.877H449.739Z" fill="white"/>
<path d="M616.442 505.638L612.324 505.302C615.749 462.885 643.711 452.276 644.909 451.835L1175.13 244.311L1176.64 248.155L646.379 455.7C645.245 456.121 619.677 465.974 616.463 505.638H616.442Z" fill="white"/>
<path d="M11.4749 250.193C10.5715 228.344 19.8994 214.962 27.9038 207.588C36.5593 199.604 45.341 196.831 45.7192 196.705L46.9377 200.655C45.5931 201.075 14.017 211.369 15.6136 250.025L11.4749 250.193Z" fill="white"/>
<path d="M24.3106 251.81C22.5669 209.772 60.2566 201.158 60.6347 201.074L61.4961 205.108C60.0885 205.423 26.8317 213.133 28.4284 251.642L24.2896 251.81H24.3106Z" fill="white"/>
<path d="M0.192457 245.95C-0.647893 223.555 8.17578 210.109 15.7389 202.777C23.9533 194.815 32.3358 192.189 32.693 192.084L33.8905 196.034C32.6299 196.433 2.79754 206.076 4.31017 245.782L0.171448 245.929L0.192457 245.95Z" fill="white"/>
<path d="M1007.25 520.787L1003.11 520.816L1004.74 748.608L1008.88 748.579L1007.25 520.787Z" fill="white"/>
<path d="M1156.91 461.527L1152.77 461.543L1153.64 688.121L1157.78 688.105L1156.91 461.527Z" fill="white"/>
<path d="M1285.36 405.488L1281.22 405.529L1283.48 632.349L1287.61 632.308L1285.36 405.488Z" fill="white"/>
</g>
<defs>
<clipPath id="clip0_126_486">
<rect width="1416.87" height="844.32" fill="white" transform="translate(0.128906)"/>
</clipPath>
</defs>
</svg>
