<svg width="6" height="6" viewBox="0 0 6 6" fill="none" xmlns="http://www.w3.org/2000/svg">
<path d="M0 3C0 2.57747 0.0798122 2.18779 0.239437 1.83099C0.399061 1.46479 0.615023 1.14554 0.887324 0.87324C1.15962 0.600939 1.47418 0.389671 1.83099 0.239437C2.19718 0.0798123 2.58685 0 3 0C3.42254 0 3.81221 0.0798123 4.16901 0.239437C4.53521 0.389671 4.85446 0.600939 5.12676 0.87324C5.39906 1.14554 5.61033 1.46479 5.76056 1.83099C5.92019 2.18779 6 2.57747 6 3C6 3.41315 5.92019 3.80282 5.76056 4.16901C5.61033 4.52582 5.39906 4.84038 5.12676 5.11268C4.85446 5.38498 4.53521 5.60094 4.16901 5.76056C3.81221 5.92019 3.42254 6 3 6C2.58685 6 2.19718 5.92019 1.83099 5.76056C1.47418 5.60094 1.15962 5.38498 0.887324 5.11268C0.615023 4.84038 0.399061 4.52582 0.239437 4.16901C0.0798122 3.80282 0 3.41315 0 3Z" fill="#006837"/>
</svg>
