<svg width="58" height="9" viewBox="0 0 58 9" fill="none" xmlns="http://www.w3.org/2000/svg">
<g clip-path="url(#clip0_926_8022)">
<path d="M0.547916 0.777446C0.547916 0.777446 0.855008 3.47462 2.44873 4.96508C4.27164 6.67046 6.42313 5.11703 7.37563 3.75417C7.7519 3.21571 8.15554 2.50264 8.16729 1.98718C8.17804 1.51789 7.82074 1.16983 7.18288 1.16446C6.54788 1.15925 5.90297 1.37501 5.90297 1.37501C5.90297 1.37501 6.4055 0.663273 7.44296 0.4675C8.18962 0.326463 8.75075 0.574453 9.12198 1.06372C9.64398 1.75312 9.51554 3.04496 8.83252 4.52585C7.99502 6.34154 5.50504 9.15993 2.90559 7.99033C0.405368 6.86657 0.0421968 2.93263 0.547916 0.777446Z" fill="white"/>
<path d="M5.90298 3.69982C5.67855 3.73583 5.45161 3.75385 5.22432 3.75372C3.26944 3.75372 1.62149 2.43905 1.11694 0.646197C1.34124 0.610038 1.56807 0.591847 1.79527 0.591797C3.75048 0.591797 5.39843 1.90647 5.90298 3.69982Z" fill="white"/>
<path d="M26.8602 4.78977C27.1419 4.67627 27.3599 4.50803 27.515 4.27951C27.6701 4.051 27.7472 3.76741 27.7472 3.42187V3.32113C27.7472 2.97744 27.671 2.68865 27.5185 2.45661C27.3661 2.22457 27.1465 2.05263 26.8614 1.93611C26.5763 1.81959 26.2415 1.76015 25.8553 1.76015H23.23V7.0734H24.4241V4.95784H24.8103L26.4545 7.0734H27.8382L26.1239 4.94911C26.3995 4.92778 26.6444 4.87473 26.8602 4.78977ZM24.4241 3.9783V2.75581H25.8553C26.1441 2.75581 26.4188 2.95242 26.4188 3.36697C26.4188 3.78152 26.1441 3.9783 25.8553 3.9783H24.4241ZM17.6113 7.07273H21.8089V6.08211H18.7761V4.93282H21.6853V3.9422H18.7761V2.74943H21.8089V1.75881H17.6113V7.07273ZM11.8827 2.80802H13.6368V7.07273H14.8305V2.80802H16.5844V1.75948H11.8832L11.8827 2.80802ZM38.7134 4.39923V4.34013C39.1403 4.11262 39.3346 3.84247 39.3682 3.38208C39.409 2.80282 39.2691 1.75914 37.4657 1.75914H34.8296V7.07273H37.6576C39.461 7.07273 39.6009 6.02905 39.5603 5.44979C39.5225 4.92526 39.2753 4.64739 38.7135 4.39872L38.7134 4.39923ZM35.9934 2.75866H37.4454C37.7421 2.75866 38.0253 2.94906 38.0253 3.35488C38.0253 3.75784 37.7421 3.9511 37.4454 3.9511H35.9934V2.75866ZM37.6455 6.07623H35.9934V4.83846H37.6455C37.9355 4.83846 38.2123 5.03608 38.2123 5.45718C38.2128 5.87475 37.9356 6.07573 37.6457 6.07573L37.6455 6.07623ZM55.2151 4.05906L57.0271 1.75881H55.6588L53.7009 4.24845V1.75948H52.5072V7.07273H53.7009V4.5908H54.1667L55.9936 7.07273H57.4419L55.2151 4.05906ZM30.2753 1.75948L28.5211 7.07273H29.7148L30.0233 6.10796H32.4706L32.7869 7.07273H34.0244L32.204 1.75948H30.2753ZM30.3398 5.11751L31.0997 2.74154H31.3662L32.1452 5.11751H30.3398ZM49.9695 5.03927H49.8765L47.4857 1.75024H46.4577V7.08196H47.5678V3.72628H47.6711L50.0924 7.08196H51.0943V1.75024H49.9693L49.9695 5.03927ZM41.9176 1.75948L40.1635 7.07273H41.3571L41.6657 6.10796H44.1122L44.4287 7.07273H45.666L43.8465 1.75948H41.9176ZM41.9822 5.11751L42.7422 2.74154H43.0085L43.7872 5.11801L41.9822 5.11751Z" fill="white"/>
</g>
<defs>
<clipPath id="clip0_926_8022">
<rect width="57.0909" height="7.83782" fill="white" transform="translate(0.35144 0.428467)"/>
</clipPath>
</defs>
</svg>
