<svg width="59" height="11" viewBox="0 0 59 11" fill="none" xmlns="http://www.w3.org/2000/svg">
<g clip-path="url(#clip0_926_8080)">
<path d="M37.1102 2.93253V0.928004H36.5977V0.537598H38.0705V0.932776H37.557V2.93731L37.1102 2.93253Z" fill="white"/>
<path d="M38.4961 2.93241V0.537472H39.213C39.3797 0.52329 39.5454 0.574651 39.6749 0.680652C39.7288 0.739775 39.7699 0.80936 39.7957 0.885069C39.8215 0.960778 39.8314 1.04099 39.8248 1.12069C39.8314 1.24772 39.8061 1.37437 39.7513 1.48915C39.7292 1.53085 39.6977 1.56681 39.6593 1.59415C39.6208 1.6215 39.5765 1.63948 39.5299 1.64664C39.5827 1.65407 39.6333 1.67317 39.6779 1.70256C39.7224 1.73195 39.7599 1.77089 39.7876 1.81655C39.8561 1.93173 39.8893 2.0645 39.883 2.19837C39.883 2.45291 39.8299 2.63936 39.7236 2.75773C39.6167 2.87704 39.4516 2.93623 39.2263 2.93623L38.4961 2.93241ZM38.9304 1.51015H39.0793C39.121 1.51479 39.1631 1.51065 39.2031 1.49799C39.243 1.48533 39.2799 1.46443 39.3113 1.43665C39.3622 1.35663 39.3847 1.26183 39.3752 1.16747C39.3847 1.08197 39.3615 0.996037 39.3103 0.926923C39.2402 0.875515 39.1533 0.852346 39.0669 0.862014H38.9304V1.51015ZM38.9304 2.59259H39.1137C39.1579 2.59722 39.2025 2.592 39.2444 2.57731C39.2864 2.56262 39.3245 2.53883 39.3561 2.50764C39.4113 2.41969 39.4357 2.316 39.4258 2.21269C39.4374 2.10683 39.4103 2.00037 39.3495 1.91296C39.3097 1.88062 39.2639 1.8566 39.2147 1.84233C39.1655 1.82806 39.114 1.82384 39.0631 1.82992H38.9295L38.9304 2.59259Z" fill="white"/>
<path d="M40.4238 2.93253V0.537598H40.8696V2.93253H40.4238Z" fill="white"/>
<path d="M41.4668 2.93253V0.537598H41.9135V2.5259H42.7192V2.93253H41.4668Z" fill="white"/>
<path d="M43.2129 2.93253V0.537598H43.6596V2.93253H43.2129Z" fill="white"/>
<path d="M44.2148 2.09118H44.6606V2.24486C44.6515 2.34855 44.6707 2.45276 44.7159 2.54649C44.7385 2.5748 44.7678 2.59697 44.8011 2.61099C44.8345 2.625 44.8708 2.63039 44.9068 2.62668C44.9456 2.62947 44.9845 2.62459 45.0214 2.61231C45.0582 2.60002 45.0923 2.58057 45.1216 2.55508C45.1479 2.52679 45.1682 2.49337 45.181 2.4569C45.1938 2.42044 45.1989 2.38172 45.1961 2.34318C45.1978 2.27798 45.1799 2.21376 45.1445 2.15895C45.0832 2.08144 45.0097 2.01439 44.9269 1.96041L44.6988 1.79909C44.5531 1.71053 44.4255 1.59523 44.3227 1.45928C44.2658 1.35701 44.2381 1.24114 44.2425 1.12423C44.2372 1.03654 44.2504 0.948708 44.2813 0.866473C44.3123 0.784238 44.3602 0.709443 44.4219 0.646964C44.5654 0.534314 44.7431 0.474043 44.9256 0.476126C45.108 0.478209 45.2842 0.542521 45.4252 0.658418C45.4867 0.730564 45.5334 0.814171 45.5626 0.904433C45.5918 0.994695 45.6028 1.08983 45.5951 1.18437C45.5951 1.20728 45.5951 1.22446 45.5951 1.23687C45.5956 1.248 45.5956 1.25915 45.5951 1.27028H45.1722V1.20632C45.1806 1.10901 45.1582 1.01153 45.1082 0.927598C45.0824 0.898022 45.0498 0.874993 45.0133 0.860394C44.9768 0.845795 44.9374 0.84004 44.8983 0.843598C44.8673 0.841897 44.8363 0.846615 44.8072 0.857456C44.7781 0.868297 44.7516 0.885027 44.7293 0.906598C44.7079 0.930325 44.6915 0.958085 44.681 0.988247C44.6705 1.01841 44.6662 1.05036 44.6682 1.08223C44.6682 1.18278 44.7598 1.29414 44.9431 1.41632L45.1894 1.58241C45.3312 1.66557 45.4539 1.7778 45.5492 1.91173C45.6164 2.03199 45.6494 2.1683 45.6447 2.30595C45.6502 2.39827 45.6366 2.49073 45.6045 2.57748C45.5725 2.66424 45.5228 2.74339 45.4586 2.80995C45.3117 2.93716 45.1209 3.00191 44.9269 2.99035C44.6863 2.99035 44.5072 2.92672 44.3895 2.79945C44.2718 2.67217 44.2129 2.48127 44.2129 2.22672C44.2129 2.2 44.2129 2.15513 44.2196 2.09309L44.2148 2.09118Z" fill="white"/>
<path d="M46.1934 2.93253V0.537598H46.6429V2.93253H46.1934Z" fill="white"/>
<path d="M36.7265 5.81544H37.1732V5.96912C37.1639 6.07283 37.183 6.17711 37.2286 6.27075C37.251 6.29909 37.2804 6.32123 37.3138 6.33509C37.3472 6.34895 37.3835 6.35408 37.4195 6.34998C37.498 6.35547 37.5755 6.32974 37.6352 6.27839C37.6614 6.25026 37.6815 6.21698 37.6942 6.18066C37.7068 6.14433 37.7118 6.10577 37.7087 6.06744C37.7108 6.00233 37.6931 5.93813 37.6581 5.88321C37.5951 5.80554 37.52 5.73851 37.4357 5.68467L37.2066 5.52335C37.0614 5.43456 36.9341 5.31929 36.8315 5.18353C36.7745 5.08097 36.7468 4.96476 36.7513 4.84754C36.7458 4.7599 36.7589 4.6721 36.7896 4.58986C36.8204 4.50762 36.8681 4.43279 36.9298 4.37027C37.0657 4.25212 37.2426 4.19213 37.4223 4.20322C37.5153 4.1969 37.6085 4.20982 37.6962 4.2412C37.7839 4.27257 37.8642 4.32171 37.9321 4.38554C37.9947 4.45654 38.0426 4.53923 38.0731 4.62885C38.1035 4.71847 38.1159 4.81323 38.1096 4.90767C38.1096 4.93058 38.1096 4.94776 38.1096 4.96017C38.1096 4.97258 38.1096 4.98403 38.1096 4.99358H37.6858V4.92963C37.6937 4.83246 37.6718 4.73519 37.6228 4.6509C37.5969 4.62133 37.5644 4.5983 37.5279 4.5837C37.4914 4.5691 37.4519 4.56334 37.4128 4.5669C37.3818 4.5652 37.3508 4.56992 37.3217 4.58076C37.2927 4.5916 37.2661 4.60833 37.2438 4.6299C37.2224 4.65344 37.2059 4.68101 37.1952 4.711C37.1846 4.74099 37.18 4.7728 37.1818 4.80458C37.1818 4.90576 37.2772 5.01744 37.4577 5.13962L37.703 5.30571C37.8443 5.38881 37.9664 5.50107 38.0609 5.63503C38.1285 5.75511 38.1616 5.89155 38.1564 6.02925C38.1619 6.12157 38.1482 6.21403 38.1162 6.30078C38.0842 6.38754 38.0345 6.4667 37.9702 6.53325C37.8224 6.65982 37.6309 6.72354 37.4367 6.71079C37.1961 6.71079 37.017 6.64716 36.8992 6.51989C36.7809 6.3958 36.7227 6.20584 36.7227 5.94716C36.7227 5.92044 36.7227 5.87557 36.7284 5.81353L36.7265 5.81544Z" fill="white"/>
<path d="M39.0467 6.65617V4.65164H38.5293V4.26123H40.0021V4.65641H39.4886V6.66094L39.0467 6.65617Z" fill="white"/>
<path d="M40.3853 5.4589C40.382 5.25531 40.3938 5.05175 40.4206 4.8499C40.4348 4.729 40.4738 4.61232 40.5352 4.50722C40.5948 4.40759 40.6811 4.32659 40.7843 4.27336C41.0302 4.17971 41.302 4.17971 41.5479 4.27336C41.6515 4.32675 41.7384 4.40767 41.799 4.50722C41.8586 4.61353 41.8962 4.7307 41.9097 4.85181C41.936 5.05306 41.9478 5.25595 41.945 5.4589C41.9481 5.66125 41.9359 5.86354 41.9088 6.06408C41.8952 6.18564 41.8579 6.30336 41.799 6.41057C41.7386 6.51009 41.6517 6.59076 41.5479 6.64348C41.3022 6.7384 41.03 6.7384 40.7843 6.64348C40.6809 6.59094 40.5945 6.51019 40.5352 6.41057C40.4748 6.30525 40.4367 6.18859 40.4235 6.06789C40.3957 5.86612 40.3829 5.66256 40.3853 5.4589ZM40.8406 5.4589C40.8406 5.85312 40.8635 6.10035 40.9103 6.20248C40.9313 6.25157 40.9672 6.29281 41.013 6.32039C41.0587 6.34796 41.1119 6.36048 41.1652 6.35616C41.2172 6.36069 41.2693 6.34875 41.3142 6.32203C41.3591 6.29531 41.3944 6.25516 41.4153 6.20726C41.4611 6.10703 41.483 5.8579 41.483 5.45985C41.483 5.06181 41.4601 4.81172 41.4153 4.70959C41.3909 4.66365 41.3545 4.62522 41.3099 4.59842C41.2653 4.57162 41.2143 4.55746 41.1623 4.55746C41.1103 4.55746 41.0593 4.57162 41.0147 4.59842C40.9702 4.62522 40.9337 4.66365 40.9094 4.70959C40.8635 4.8114 40.8406 5.06117 40.8406 5.4589Z" fill="white"/>
<path d="M42.4941 6.65617V4.26123H43.294C43.5359 4.26123 43.7096 4.31023 43.8152 4.40823C43.9221 4.50368 43.9746 4.66595 43.9746 4.8855C43.9812 5.01353 43.9518 5.14083 43.8897 5.253C43.8623 5.29666 43.8254 5.33358 43.7818 5.36101C43.7382 5.38845 43.6889 5.40569 43.6377 5.41145C43.8486 5.46681 43.9594 5.64626 43.9689 5.9479V5.97844L43.9813 6.30299C43.9824 6.37648 43.994 6.44944 44.0157 6.51967C44.0332 6.57261 44.063 6.62068 44.1025 6.65998H43.5737C43.5599 6.61358 43.5507 6.56595 43.546 6.51776C43.5394 6.46335 43.5355 6.38699 43.5336 6.28676L43.527 6.03667V5.9689C43.5328 5.91762 43.5279 5.86568 43.5127 5.81639C43.4974 5.76709 43.472 5.72151 43.4382 5.68254C43.379 5.63099 43.2587 5.60522 43.0774 5.60522H42.9218V6.65521L42.4941 6.65617ZM42.9218 5.274H43.1785C43.2754 5.28465 43.3725 5.25651 43.4487 5.19572C43.5078 5.1159 43.5348 5.01673 43.5241 4.91795C43.5289 4.87268 43.5241 4.82691 43.5099 4.78365C43.4958 4.74038 43.4726 4.70059 43.442 4.66691C43.3524 4.61069 43.2466 4.58584 43.1413 4.59627H42.9218V5.274Z" fill="white"/>
<path d="M44.9201 6.65617V5.64054L44.291 4.26123H44.7864L45.1482 5.16231L45.5061 4.26123H45.9834L45.3668 5.64054V6.65617H44.9201Z" fill="white"/>
<path d="M46.7489 6.65617V4.65164H46.2363V4.26123H47.7092V4.65641H47.1956V6.66094L46.7489 6.65617Z" fill="white"/>
<path d="M48.1367 6.65617V4.26123H49.3671V4.65927H48.5796V5.2129H49.3175V5.59472H48.5844V6.25431H49.39V6.65617H48.1367Z" fill="white"/>
<path d="M49.9043 6.65617V4.26123H50.351V6.24953H51.1567V6.65617H49.9043Z" fill="white"/>
<path d="M51.6484 6.65617V4.26123H52.0952V6.24953H52.9008V6.65617H51.6484Z" fill="white"/>
<path d="M53.3945 6.65617V4.26123H53.8413V6.65617H53.3945Z" fill="white"/>
<path d="M54.4395 6.65617V4.26123H54.8986L55.5219 5.93644L55.5095 4.26123H55.9304V6.65617H55.4751L54.847 4.97809L54.8595 6.65617H54.4395Z" fill="white"/>
<path d="M57.7123 6.65615L57.6798 6.39174C57.6444 6.49277 57.5775 6.57976 57.4889 6.63992C57.3888 6.69469 57.2755 6.72047 57.1615 6.71437C56.9105 6.71437 56.7339 6.61892 56.6327 6.42801C56.5315 6.23711 56.479 5.88965 56.479 5.38375C56.4758 5.19218 56.4879 5.00065 56.5153 4.81103C56.5309 4.69405 56.5698 4.5814 56.6298 4.4798C56.6902 4.38709 56.776 4.31382 56.8771 4.26885C56.9982 4.21965 57.1282 4.19624 57.2589 4.20012C57.5134 4.20012 57.7043 4.26089 57.8316 4.38244C57.9589 4.50398 58.0197 4.69266 58.0139 4.94848V5.00862H57.5968V4.9838C57.6046 4.8702 57.5766 4.757 57.5166 4.66021C57.4892 4.62345 57.4529 4.59415 57.4113 4.57498C57.3696 4.5558 57.3238 4.54737 57.278 4.55044C57.2238 4.54518 57.1694 4.55664 57.1219 4.58326C57.0745 4.60988 57.0363 4.65039 57.0126 4.69935C56.9649 4.79862 56.941 5.06271 56.941 5.49161C56.941 5.82952 56.9639 6.05479 57.0088 6.16933C57.0258 6.22084 57.0591 6.2654 57.1037 6.29624C57.1484 6.32708 57.2018 6.34251 57.256 6.3402C57.3052 6.34477 57.3547 6.3359 57.3993 6.31455C57.4438 6.29321 57.4817 6.26017 57.509 6.21897C57.5692 6.09099 57.5952 5.94956 57.5844 5.80852V5.73025H57.2751V5.34843H58.0139V6.65615H57.7123Z" fill="white"/>
<path d="M36.7715 10.3798V7.98486H38.0229V8.37718H37.2173V8.94322H37.9809V9.32503H37.2173V10.375L36.7715 10.3798Z" fill="white"/>
<path d="M38.5176 10.3798V7.98486H39.748V8.38291H38.9605V8.93654H39.6936V9.31835H38.9605V9.97794H39.7699V10.3817L38.5176 10.3798Z" fill="white"/>
<path d="M40.2421 9.53908H40.6879V9.69276C40.6787 9.79615 40.6979 9.90008 40.7432 9.99344C40.7658 10.0217 40.7951 10.0439 40.8284 10.0579C40.8618 10.0719 40.8981 10.0773 40.9341 10.0736C41.0127 10.0791 41.0902 10.0534 41.1499 10.002C41.1756 9.97359 41.1954 9.94026 41.208 9.90402C41.2207 9.86778 41.2259 9.82937 41.2234 9.79108C41.2251 9.72588 41.2072 9.66167 41.1718 9.60685C41.109 9.52895 41.0339 9.46188 40.9494 9.40831L40.726 9.24699C40.5783 9.15902 40.4488 9.04369 40.3442 8.90718C40.2873 8.80462 40.2596 8.68841 40.2641 8.57118C40.2587 8.48348 40.2719 8.39563 40.3028 8.31339C40.3338 8.23115 40.3817 8.15636 40.4435 8.09391C40.5795 7.97509 40.7568 7.91472 40.937 7.92591C41.0301 7.91951 41.1235 7.9324 41.2114 7.96377C41.2992 7.99514 41.3797 8.04432 41.4477 8.10823C41.51 8.17939 41.5576 8.26213 41.5879 8.35172C41.6182 8.44131 41.6306 8.536 41.6243 8.63036V8.68954C41.6243 8.70195 41.6243 8.71341 41.6243 8.72295H41.2033V8.659C41.2117 8.56169 41.1893 8.4642 41.1394 8.38027C41.1137 8.35045 41.0812 8.32725 41.0446 8.31263C41.0081 8.29801 40.9685 8.2924 40.9294 8.29627C40.8984 8.29457 40.8674 8.29929 40.8383 8.31013C40.8092 8.32097 40.7827 8.3377 40.7604 8.35927C40.7391 8.38286 40.7227 8.41045 40.7122 8.44045C40.7018 8.47045 40.6974 8.50224 40.6993 8.53395C40.6993 8.63514 40.791 8.74682 40.9742 8.869H40.979L41.2253 9.03509C41.3657 9.11868 41.487 9.23088 41.5813 9.3644C41.6484 9.48466 41.6815 9.62098 41.6768 9.75863C41.6822 9.85133 41.6679 9.94414 41.6351 10.031C41.6022 10.1178 41.5513 10.1968 41.4859 10.2626C41.338 10.3893 41.1465 10.453 40.9523 10.4402C40.7117 10.4402 40.5332 10.3772 40.4149 10.2493C40.2965 10.1214 40.2383 9.93522 40.2383 9.67654C40.2383 9.64981 40.2383 9.60495 40.245 9.5429L40.2421 9.53908Z" fill="white"/>
<path d="M42.5634 10.3798V8.38004H42.0508V7.98486H43.5236V8.38004H43.0101V10.3798H42.5634Z" fill="white"/>
<path d="M43.9492 10.3798V7.98486H44.3959V10.3798H43.9492Z" fill="white"/>
<path d="M45.3703 10.3798L44.8301 7.98486H45.3073L45.6643 9.89394L45.986 7.98486H46.4576L45.9545 10.3798H45.3703Z" fill="white"/>
<path d="M46.752 10.3798L47.2913 7.98486H47.8898L48.4348 10.3798H47.9575L47.8392 9.77844H47.3266L47.2111 10.3798H46.752ZM47.3924 9.41858H47.7743L47.5834 8.41441L47.3924 9.41858Z" fill="white"/>
<path d="M48.8594 10.3798V7.98486H49.3061V9.97221H50.1117V10.3798H48.8594Z" fill="white"/>
<path d="M10.8053 1.98108C10.9426 1.88313 11.0453 1.74408 11.0985 1.584C11.1517 1.42391 11.1527 1.25107 11.1013 1.0904C11.0499 0.929724 10.9487 0.789533 10.8125 0.690046C10.6763 0.590559 10.512 0.536919 10.3433 0.536865H1.8288C1.5883 0.536865 1.35765 0.632404 1.18759 0.802464C1.01753 0.972524 0.921987 1.20318 0.921987 1.44368V3.58566C0.921987 3.59902 0.921987 3.61143 0.921987 3.62384C0.921987 3.89928 1.0314 4.16343 1.22617 4.3582C1.42093 4.55296 1.68509 4.66238 1.96052 4.66238H6.54231L1.28662 8.86234C1.17292 8.93947 1.08011 9.04357 1.01648 9.16533C0.952845 9.2871 0.920381 9.42273 0.921987 9.56011C0.918412 9.77489 1.00025 9.9823 1.14953 10.1368C1.2988 10.2912 1.5033 10.3801 1.71807 10.3839H10.118C10.2498 10.3828 10.38 10.3557 10.5013 10.3042C10.6226 10.2528 10.7325 10.1779 10.8249 10.084C10.9172 9.99002 10.9902 9.87879 11.0396 9.75664C11.0889 9.63449 11.1138 9.50381 11.1126 9.37207V7.24345C11.1152 6.9777 11.0122 6.7218 10.8262 6.53193C10.6403 6.34205 10.3866 6.23371 10.1209 6.23068H10.1333L5.50377 6.21828L10.8053 1.98299" fill="white"/>
<path d="M13.399 10.3836H22.3563V9.83477H17.0663C17.0164 9.83491 16.967 9.82508 16.921 9.80586C16.875 9.78663 16.8333 9.75841 16.7983 9.72284C16.7634 9.68727 16.7359 9.64507 16.7175 9.59872C16.6991 9.55237 16.6901 9.50282 16.6912 9.45296V5.93167C16.6896 5.83289 16.727 5.73747 16.7952 5.66602C16.8634 5.59458 16.957 5.55285 17.0558 5.54985H21.7865V4.99527H17.0921C17.0404 4.99941 16.9884 4.99268 16.9395 4.97552C16.8906 4.95836 16.8458 4.93114 16.808 4.89563C16.7703 4.86011 16.7403 4.81707 16.7202 4.7693C16.7001 4.72152 16.6902 4.67006 16.6912 4.61823V1.4902C16.6886 1.43904 16.6963 1.38788 16.714 1.33977C16.7316 1.29167 16.7587 1.2476 16.7937 1.21019C16.8287 1.17278 16.8709 1.1428 16.9177 1.12203C16.9645 1.10126 17.0151 1.09013 17.0663 1.0893H22.3563V0.536621H13.3684C12.8835 0.536621 12.4902 0.985254 12.4902 1.53793V9.34796C12.4902 9.92068 12.8969 10.3836 13.399 10.3836Z" fill="white"/>
<path d="M24.6065 0.54248H33.3444V1.06652H28.2395C28.1889 1.067 28.1391 1.0779 28.0929 1.09854C28.0468 1.11918 28.0054 1.14912 27.9714 1.18647C27.9373 1.22383 27.9113 1.26781 27.8951 1.31566C27.8788 1.36351 27.8726 1.4142 27.8768 1.46456V8.58637C27.8768 8.91016 28.0054 9.22069 28.2343 9.44965C28.4633 9.6786 28.7738 9.80723 29.0976 9.80723H32.9835C33.084 9.80723 33.1804 9.76766 33.2519 9.69709C33.3233 9.62651 33.3641 9.53062 33.3654 9.43018V5.94707C33.3654 5.84581 33.3251 5.74869 33.2535 5.67709C33.1819 5.60549 33.0848 5.56526 32.9835 5.56526H30.6067V5.01735H33.0532C33.3064 5.01735 33.5492 5.11792 33.7282 5.29693C33.9072 5.47594 34.0078 5.71873 34.0078 5.97189V9.4235C34.0078 9.6797 33.906 9.9254 33.7248 10.1066C33.5437 10.2877 33.298 10.3895 33.0418 10.3895H24.6504C24.1369 10.3895 23.7207 9.91222 23.7207 9.32709V1.54188C23.7207 0.990159 24.113 0.54248 24.5979 0.54248H24.6065Z" fill="white"/>
</g>
<defs>
<clipPath id="clip0_926_8080">
<rect width="57.0909" height="9.95774" fill="white" transform="translate(0.921875 0.480469)"/>
</clipPath>
</defs>
</svg>
