<svg width="58" height="16" viewBox="0 0 58 16" fill="none" xmlns="http://www.w3.org/2000/svg">
<g clip-path="url(#clip0_926_8027)">
<path d="M1.61172 7.18351L1.6503 11.7234H0.389902L0.351318 0.979004H3.32226C4.64696 0.979004 5.62443 1.23122 6.26748 1.72304C6.89766 2.22747 7.21921 2.9715 7.21921 3.96775C7.21921 5.36752 6.49897 6.32595 5.04566 6.81778L7.99088 11.5846H6.48611L3.86243 7.1709H1.61172V7.18351ZM1.61172 6.1242H3.33512C4.22254 6.1242 4.87846 5.94761 5.29002 5.60715C5.70158 5.26664 5.90736 4.73701 5.90736 4.05603C5.90736 3.34983 5.70158 2.8454 5.27716 2.54273C4.85274 2.21486 4.18396 2.06353 3.24509 2.06353H1.61172V6.1242Z" fill="white"/>
<path d="M12.3626 11.7367C11.1665 11.7367 10.2148 11.3836 9.52025 10.6648C8.82578 9.94596 8.47852 8.9497 8.47852 7.67603C8.47852 6.38974 8.80006 5.38087 9.4431 4.62423C10.0861 3.86758 10.9479 3.48926 12.0411 3.48926C13.0571 3.48926 13.8674 3.81713 14.459 4.47289C15.0506 5.12865 15.3464 5.9988 15.3464 7.07071V7.82734H9.75179C9.77751 8.76056 10.0219 9.46675 10.472 9.95857C10.935 10.4378 11.5652 10.69 12.4012 10.69C13.2757 10.69 14.1375 10.5134 14.9863 10.1477V11.2196C14.549 11.4088 14.1375 11.5349 13.7516 11.6106C13.3787 11.6989 12.9028 11.7367 12.3626 11.7367ZM12.0282 4.49811C11.3723 4.49811 10.8578 4.7125 10.472 5.12865C10.0861 5.5448 9.85465 6.12489 9.79037 6.8563H14.0346C14.0346 6.09967 13.8674 5.51958 13.5201 5.11604C13.16 4.69989 12.6713 4.49811 12.0282 4.49811Z" fill="white"/>
<path d="M19.0143 0.299072H17.9725V15.1924H19.0143V0.299072Z" fill="white"/>
<path d="M21.9042 0.979248H25.2738C26.8043 0.979248 27.9232 1.19363 28.6177 1.62239C29.3122 2.05116 29.6595 2.73214 29.6595 3.66534C29.6595 4.29587 29.5051 4.82552 29.2093 5.22907C28.9006 5.63261 28.5019 5.88481 28.0004 5.96052V6.03617C28.682 6.18749 29.1836 6.4649 29.4794 6.88107C29.7881 7.29724 29.9296 7.8395 29.9296 8.52047C29.9296 9.49151 29.5694 10.2481 28.8621 10.7904C28.1547 11.3327 27.1772 11.5975 25.9554 11.5975H21.9042V0.979248ZM24.1935 5.17862H25.531C26.1484 5.17862 26.5985 5.09035 26.8815 4.90119C27.1644 4.71203 27.3059 4.39676 27.3059 3.96799C27.3059 3.56445 27.1515 3.2744 26.8557 3.09785C26.5471 2.9213 26.0712 2.83303 25.4153 2.83303H24.2063V5.17862H24.1935ZM24.1935 6.96934V9.7311H25.6853C26.3156 9.7311 26.7785 9.61761 27.0872 9.37798C27.383 9.13839 27.5374 8.77266 27.5374 8.2935C27.5374 7.41072 26.8943 6.96934 25.6082 6.96934H24.1935Z" fill="white"/>
<path d="M36.568 11.5983L36.1307 10.5012H36.0664C35.6806 10.9678 35.2947 11.2956 34.896 11.4722C34.4974 11.6488 33.97 11.7496 33.327 11.7496C32.5296 11.7496 31.9122 11.5227 31.4492 11.0813C30.9991 10.6399 30.7676 9.99675 30.7676 9.17707C30.7676 8.31952 31.0763 7.67638 31.6936 7.27282C32.3109 6.86931 33.2369 6.64229 34.4716 6.59185L35.9121 6.55402V6.20095C35.9121 5.38122 35.4877 4.96508 34.626 4.96508C33.97 4.96508 33.1855 5.16685 32.2981 5.55776L31.5521 4.0571C32.5038 3.56529 33.5585 3.32568 34.716 3.32568C35.8221 3.32568 36.6837 3.56529 37.2753 4.03188C37.867 4.51109 38.1628 5.2299 38.1628 6.20095V11.6109H36.568V11.5983ZM35.8992 7.8403L35.0247 7.86552C34.3687 7.89079 33.88 8.00428 33.5585 8.21864C33.2369 8.43301 33.0826 8.76091 33.0826 9.18968C33.0826 9.82022 33.4427 10.1228 34.1758 10.1228C34.7031 10.1228 35.1147 9.97153 35.4362 9.68151C35.7449 9.39144 35.9121 8.98788 35.9121 8.50871V7.8403H35.8992Z" fill="white"/>
<path d="M47.4999 11.598H45.2364V6.85636C45.2364 6.27626 45.1335 5.83488 44.9148 5.54485C44.6962 5.2548 44.3618 5.10347 43.8988 5.10347C43.2686 5.10347 42.8056 5.30522 42.5355 5.72139C42.2526 6.13756 42.1111 6.81853 42.1111 7.77696V11.598H39.8475V3.47668H41.5709L41.8796 4.51076H42.0082C42.2655 4.11983 42.6127 3.81717 43.05 3.6154C43.4873 3.41363 43.9889 3.31274 44.5548 3.31274C45.5193 3.31274 46.2524 3.56496 46.7411 4.082C47.2427 4.58643 47.4871 5.33044 47.4871 6.28887V11.598H47.4999Z" fill="white"/>
<path d="M51.3831 7.18453L52.3736 5.94869L54.6885 3.47698H57.2352L53.9428 6.99539L57.4407 11.5983H54.83L52.4505 8.30689L51.473 9.06352V11.5983H49.2225V0.299072H51.473V5.33077L51.3573 7.18453H51.3831Z" fill="white"/>
</g>
<defs>
<clipPath id="clip0_926_8027">
<rect width="57.0909" height="14.8933" fill="white" transform="translate(0.35144 0.299072)"/>
</clipPath>
</defs>
</svg>
