<svg width="58" height="16" viewBox="0 0 58 16" fill="none" xmlns="http://www.w3.org/2000/svg">
<g clip-path="url(#clip0_926_8036)">
<path d="M1.32485 7.18399L1.36344 11.7239H0.103037L0.0644531 0.979492H3.03539C4.3601 0.979492 5.33757 1.23171 5.98061 1.72353C6.6108 2.22796 6.93234 2.97199 6.93234 3.96824C6.93234 5.36801 6.2121 6.32644 4.7588 6.81826L7.70401 11.5851H6.19924L3.57556 7.17138H1.32485V7.18399ZM1.32485 6.12468H3.04825C3.93568 6.12468 4.5916 5.9481 5.00316 5.60764C5.41472 5.26713 5.62049 4.73749 5.62049 4.05651C5.62049 3.35031 5.41472 2.84588 4.9903 2.54322C4.56588 2.21535 3.8971 2.06402 2.95823 2.06402H1.32485V6.12468Z" fill="white"/>
<path d="M12.0755 11.7367C10.8794 11.7367 9.92766 11.3836 9.23314 10.6648C8.53867 9.94596 8.19141 8.9497 8.19141 7.67603C8.19141 6.38974 8.51295 5.38087 9.15599 4.62423C9.79904 3.86758 10.6608 3.48926 11.754 3.48926C12.77 3.48926 13.5802 3.81713 14.1719 4.47289C14.7635 5.12865 15.0593 5.9988 15.0593 7.07071V7.82734H9.46468C9.4904 8.76056 9.73475 9.46675 10.1849 9.95857C10.6479 10.4378 11.2781 10.69 12.114 10.69C12.9886 10.69 13.8504 10.5134 14.6992 10.1477V11.2196C14.2619 11.4088 13.8504 11.5349 13.4645 11.6106C13.0915 11.6989 12.6157 11.7367 12.0755 11.7367ZM11.7411 4.49811C11.0852 4.49811 10.5707 4.7125 10.1849 5.12865C9.79904 5.5448 9.56755 6.12489 9.50326 6.8563H13.7474C13.7474 6.09967 13.5802 5.51958 13.233 5.11604C12.8729 4.69989 12.3842 4.49811 11.7411 4.49811Z" fill="white"/>
<path d="M18.7273 0.299316H17.6855V15.1926H18.7273V0.299316Z" fill="white"/>
<path d="M21.6191 0.979492H24.9887C26.5192 0.979492 27.6382 1.19388 28.3327 1.62264C29.0272 2.05141 29.3744 2.73239 29.3744 3.66558C29.3744 4.29612 29.2201 4.82577 28.9243 5.22931C28.6156 5.63286 28.2169 5.88505 27.7154 5.96076V6.03642C28.397 6.18773 28.8986 6.46514 29.1944 6.88131C29.503 7.29748 29.6445 7.83974 29.6445 8.52072C29.6445 9.49176 29.2844 10.2484 28.577 10.7907C27.8697 11.3329 26.8922 11.5977 25.6704 11.5977H21.6191V0.979492ZM23.9084 5.17887H25.246C25.8633 5.17887 26.3135 5.09059 26.5964 4.90143C26.8793 4.71227 27.0208 4.397 27.0208 3.96824C27.0208 3.56469 26.8665 3.27465 26.5707 3.0981C26.262 2.92155 25.7861 2.83327 25.1302 2.83327H23.9213V5.17887H23.9084ZM23.9084 6.96958V9.73134H25.4003C26.0305 9.73134 26.4935 9.61785 26.8022 9.37822C27.098 9.13864 27.2523 8.77291 27.2523 8.29374C27.2523 7.41097 26.6093 6.96958 25.3232 6.96958H23.9084Z" fill="white"/>
<path d="M36.2809 11.5983L35.8436 10.5012H35.7793C35.3935 10.9678 35.0076 11.2956 34.6089 11.4722C34.2102 11.6488 33.6829 11.7496 33.0399 11.7496C32.2425 11.7496 31.6251 11.5227 31.1621 11.0813C30.712 10.6399 30.4805 9.99675 30.4805 9.17707C30.4805 8.31952 30.7892 7.67638 31.4065 7.27282C32.0238 6.86931 32.9498 6.64229 34.1845 6.59185L35.625 6.55402V6.20095C35.625 5.38122 35.2005 4.96508 34.3389 4.96508C33.6829 4.96508 32.8984 5.16685 32.011 5.55776L31.265 4.0571C32.2167 3.56529 33.2714 3.32568 34.4289 3.32568C35.535 3.32568 36.3966 3.56529 36.9882 4.03188C37.5798 4.51109 37.8757 5.2299 37.8757 6.20095V11.6109H36.2809V11.5983ZM35.6121 7.8403L34.7376 7.86552C34.0816 7.89079 33.5929 8.00428 33.2714 8.21864C32.9498 8.43301 32.7955 8.76091 32.7955 9.18968C32.7955 9.82022 33.1556 10.1228 33.8887 10.1228C34.416 10.1228 34.8276 9.97153 35.1491 9.68151C35.4578 9.39144 35.625 8.98788 35.625 8.50871V7.8403H35.6121Z" fill="white"/>
<path d="M47.2149 11.5982H44.9513V6.8566C44.9513 6.27651 44.8485 5.83512 44.6298 5.5451C44.4112 5.25504 44.0768 5.10371 43.6138 5.10371C42.9836 5.10371 42.5206 5.30547 42.2505 5.72163C41.9676 6.1378 41.8261 6.81877 41.8261 7.7772V11.5982H39.5625V3.47693H41.2859L41.5946 4.51101H41.7232C41.9804 4.12008 42.3276 3.81742 42.765 3.61564C43.2022 3.41388 43.7038 3.31299 44.2697 3.31299C45.2343 3.31299 45.9674 3.5652 46.4561 4.08224C46.9577 4.58667 47.2021 5.33069 47.2021 6.28912V11.5982H47.2149Z" fill="white"/>
<path d="M51.0981 7.18453L52.0885 5.94869L54.4034 3.47698H56.9502L53.6578 6.99539L57.1557 11.5983H54.5449L52.1655 8.30689L51.188 9.06352V11.5983H48.9375V0.299072H51.188V5.33077L51.0723 7.18453H51.0981Z" fill="white"/>
</g>
<defs>
<clipPath id="clip0_926_8036">
<rect width="57.0909" height="14.8933" fill="white" transform="translate(0.0644531 0.299316)"/>
</clipPath>
</defs>
</svg>
