<svg width="123" height="72" viewBox="0 0 123 72" fill="none" xmlns="http://www.w3.org/2000/svg">
<path d="M73.9115 34.3494C77.7564 37.1298 81.7123 39.9853 86.1405 41.1339C85.7147 41.5752 85.2912 41.9897 84.8702 42.3774C80.7551 41.1089 77.1034 38.5539 73.5555 35.9936C72.6112 34.5676 71.5761 33.2038 70.4566 31.9108C71.6196 32.6926 72.7682 33.521 73.9115 34.3494ZM81.7928 44.7087C81.9896 44.596 82.1864 44.4743 82.385 44.3508C79.9696 43.1718 77.7332 41.2198 75.5593 39.0853C77.9765 42.8837 79.873 45.8162 81.7928 44.714V44.7087ZM46.4138 35.21C46.4138 35.21 53.15 26.6595 60.4588 26.6595C66.3004 26.6595 69.8018 31.1969 69.8018 31.1969C71.4836 31.9125 73.2012 32.7391 74.9474 33.5854C79.1395 35.609 83.4567 37.688 88.241 38.7543C88.5863 38.3303 88.9316 37.8955 89.2733 37.4446C84.3728 36.4731 79.9178 34.3261 75.5951 32.2417C72.8398 30.9106 70.1292 29.6045 67.4097 28.6724C71.2975 29.2753 75.3357 30.508 79.585 31.8052C83.2617 32.9252 87.0512 34.081 91.0661 34.9505C91.3541 34.5265 91.6404 34.0917 91.9231 33.6534C87.7615 32.7839 83.8217 31.5869 80.0072 30.4222C75.2301 28.9658 70.7035 27.5863 66.3523 27.046C74.1638 26.7257 83.1579 28.5811 93.4958 31.0913C93.7343 30.6738 93.9729 30.2534 94.2114 29.83C85.1242 27.615 76.3197 25.654 68.4563 25.6236H68.2649C67.393 25.6236 66.5437 25.6481 65.7171 25.697C74.663 23.838 85.1153 24.2656 95.6105 27.1873C95.8169 26.7782 96.0191 26.3679 96.2171 25.9564C86.6271 23.253 76.9674 22.5212 68.2434 23.8523C67.1395 24.0205 66.0589 24.2245 65.0015 24.4553C74.3695 21.1131 85.9204 19.6335 97.457 23.2029C97.6275 22.8009 97.7933 22.3983 97.9544 21.9952C85.9562 18.2379 73.9348 19.8357 64.2393 23.3549C65.5776 22.6965 66.9534 22.0667 68.3669 21.4853C79.5134 16.8907 89.8172 16.1017 99.0135 19.1289C99.1483 18.7294 99.2766 18.3328 99.3982 17.9391C89.9156 14.8153 79.3184 15.6132 67.8892 20.3277C66.5008 20.9002 65.1428 21.5157 63.8242 22.1616C74.1137 15.9174 87.5128 10.7807 100.216 14.9333C100.309 14.5344 100.395 14.1389 100.47 13.7489C87.3947 9.53899 73.6968 14.7848 63.2123 21.1418C65.3593 19.6013 67.6852 18.0733 70.1256 16.6545C81.6371 9.97376 91.975 7.9359 100.899 10.5713C100.928 10.1652 100.942 9.77159 100.948 9.38334C91.7674 6.77294 81.2221 8.87163 69.5388 15.6544C67.1306 17.0589 64.8369 18.5582 62.7024 20.0844C65.2409 18.0104 67.884 16.0678 70.6212 14.2642C81.8196 6.9125 91.8783 4.15539 100.606 6.00718C100.504 5.59308 100.372 5.18704 100.21 4.79233C91.338 3.13198 81.2131 5.9875 70.0111 13.3302C67.272 15.1363 64.6266 17.0807 62.0851 19.1558C63.9387 17.4722 65.9283 15.7671 68.0216 14.1193C74.7596 8.81617 81.2364 5.12333 87.2712 3.14451C90.6325 2.04238 93.853 1.47581 96.9327 1.4448C95.871 1.02665 94.7369 0.822943 93.5959 0.845428C92.9178 0.845428 92.238 0.877633 91.5581 0.936675C89.9965 1.2376 88.4558 1.63861 86.9456 2.13721C80.7927 4.15539 74.2049 7.90727 67.3703 13.2873C63.9553 15.9961 60.6917 18.8906 57.5943 21.9576C54.0893 25.654 51.3161 29.0105 49.5842 31.2112C48.8685 32.1058 47.4265 33.9182 47.4265 33.9182L46.2617 34.5086L46.4138 35.21Z" fill="white"/>
<path d="M32.9883 35.21H46.407C46.7362 34.7555 47.0726 34.3154 47.4197 33.9128H32.9883V35.21Z" fill="white"/>
<path d="M32.9883 37.815H44.6179C44.9131 37.3838 45.2047 36.949 45.4981 36.5178H32.9883V37.815Z" fill="white"/>
<path d="M33.4716 40.4204H42.6357C42.9935 40.0161 43.3514 39.5795 43.6895 39.1233H33.0977C33.1723 39.5685 33.2978 40.0038 33.4716 40.4204Z" fill="white"/>
<path d="M34.3145 41.7295C35.0176 42.4613 36.0822 42.9819 37.6978 42.9819C39.0701 42.9819 40.2187 42.4953 41.235 41.7295H34.3145Z" fill="white"/>
<path d="M56.158 23.491H32.9883V24.7881H54.9807C55.36 24.3623 55.7519 23.9299 56.1562 23.491" fill="white"/>
<path d="M53.8249 26.0964H32.9883V27.3936H52.7067C53.0645 26.9737 53.4373 26.5413 53.8249 26.0964Z" fill="white"/>
<path d="M51.6082 28.7009H32.9883V29.9981H50.5454C50.8746 29.5901 51.2306 29.1572 51.6082 28.7009Z" fill="white"/>
<path d="M64.4514 15.6743H33.4737C33.3015 16.0914 33.1767 16.5265 33.1016 16.9715H62.9485C63.4411 16.5385 63.942 16.1061 64.4514 15.6743Z" fill="white"/>
<path d="M60.0924 19.5565C60.5456 19.1319 61.0078 18.7061 61.479 18.2791H32.9883V19.5762H60.0709L60.0924 19.5565Z" fill="white"/>
<path d="M57.5929 21.9585C57.9508 21.6007 58.3157 21.2428 58.6879 20.885H32.9883V22.1839H57.3764C57.448 22.1052 57.5196 22.0301 57.5929 21.9531" fill="white"/>
<path d="M67.3693 13.2883C67.4498 13.2239 67.5286 13.1648 67.6091 13.1094H37.4169C36.0285 13.1094 35.0051 13.5996 34.293 14.3743H66.0239C66.4652 14.0165 66.9137 13.6586 67.3693 13.3008" fill="white"/>
<path d="M49.5005 31.3086H32.9883V32.604H48.4646C48.8224 32.1531 49.2071 31.6718 49.5005 31.3086Z" fill="white"/>
<path d="M12.8625 57.3833C12.8625 57.3833 12.8625 57.0594 12.8625 57.0505C12.8625 54.2934 10.304 51.8279 6.90817 51.8279C5.75884 51.8171 4.63267 52.1511 3.67514 52.7869C2.64683 53.4779 1.84768 54.4595 1.37964 55.6066H3.6322C4.25841 54.4186 5.38379 53.6886 6.90638 53.6886C8.59177 53.6886 10.7119 54.8104 10.7119 57.0558C10.7119 57.0558 10.7119 57.1238 10.7119 57.1954C9.61108 56.3048 8.23083 55.832 6.81513 55.8607C3.00062 55.8607 0.769531 58.8146 0.769531 61.8454V61.8651C0.769531 64.9067 3.00062 67.8499 6.81692 67.8499C10.6332 67.8499 12.8643 64.9103 12.8643 61.8651C12.8643 61.8329 12.8643 57.3922 12.8643 57.3922L12.8625 57.3833ZM6.81692 65.8281C4.64845 65.8281 2.938 64.1392 2.938 61.892V61.8705C2.938 59.5982 4.64845 57.9093 6.81692 57.9093C8.98539 57.9093 10.694 59.5982 10.694 61.8705C10.694 64.1427 8.98539 65.8281 6.81692 65.8281Z" fill="white"/>
<path d="M40.5323 61.8549C40.5323 58.8133 38.3012 55.8486 34.4849 55.8486C30.6686 55.8486 28.4375 58.8133 28.4375 61.8549V64.0913C28.4375 65.6515 29.044 67.0274 29.3858 67.5319H31.8047C31.0372 66.7643 30.631 65.6443 30.6095 64.154C30.6095 64.154 30.6095 61.8817 30.6095 61.862C30.6095 59.588 32.32 57.899 34.4885 57.899C36.6569 57.899 38.3674 59.588 38.3674 61.862C38.3674 61.8817 38.3674 64.154 38.3674 64.154C38.3459 65.6443 37.9398 66.7643 37.1722 67.5319H39.5912C39.9329 67.0274 40.5394 65.6372 40.5394 64.0913L40.5323 61.8549Z" fill="white"/>
<path d="M122.292 61.8549C122.292 58.8133 120.061 55.8486 116.245 55.8486C112.428 55.8486 110.197 58.8133 110.197 61.8549V64.0913C110.197 65.6515 110.804 67.0274 111.146 67.5319H113.564C112.797 66.7643 112.391 65.6443 112.369 64.154C112.369 64.154 112.369 61.8817 112.369 61.862C112.369 59.588 114.08 57.899 116.248 57.899C118.417 57.899 120.127 59.588 120.127 61.862C120.127 61.8817 120.127 64.154 120.127 64.154C120.106 65.6443 119.7 66.7643 118.932 67.5319H121.351C121.693 67.0274 122.299 65.6372 122.299 64.0913L122.292 61.8549Z" fill="white"/>
<path d="M53.8235 60.0163V57.7172L48.8603 55.962V52.1028H46.6918V55.1963L42.3978 53.679V55.9781L46.6918 57.4971V59.2308C46.6918 60.1433 46.8385 61.478 48.8603 62.0756C49.6801 62.3156 50.398 62.8189 50.9031 63.5077C51.4083 64.1965 51.6725 65.0325 51.655 65.8865C51.655 68.1588 49.9445 69.8478 47.7761 69.8478C45.6076 69.8478 43.8989 68.1588 43.8989 65.9116C43.8978 65.4688 43.9642 65.0283 44.0958 64.6055H41.8611C41.7737 65.0281 41.73 65.4586 41.7305 65.8901C41.7305 68.9317 43.9616 71.8749 47.7761 71.8749C51.5906 71.8749 53.8235 68.9335 53.8235 65.8901C53.8235 63.5087 52.5353 61.1792 50.1038 60.3043C49.6726 60.1487 48.8603 60.0324 48.8603 58.7209V58.2665L53.8235 60.0163Z" fill="white"/>
<path d="M20.4732 55.856C16.6569 55.856 14.4258 58.8171 14.4258 61.8408C14.4258 61.8408 14.4258 61.9034 14.4258 61.9249H16.596C16.596 61.9106 16.596 61.8623 16.596 61.8623C16.596 59.5882 18.3065 57.8993 20.475 57.8993C22.6434 57.8993 24.3539 59.5882 24.3539 61.8623V65.8861C24.3539 68.1584 22.6434 69.8473 20.475 69.8473C18.3065 69.8473 16.596 68.1584 16.596 65.9112C16.595 65.4689 16.6614 65.0291 16.7928 64.6069H14.5618C14.4735 65.0294 14.4279 65.4598 14.4258 65.8915C14.4258 68.9331 16.6569 71.8762 20.4732 71.8762C24.2895 71.8762 26.5206 68.9349 26.5206 65.8915V61.8551C26.5206 58.8135 24.2895 55.8489 20.4732 55.8489" fill="white"/>
<path d="M61.8032 55.8558C57.987 55.8558 55.7559 58.8169 55.7559 61.8406C55.7559 61.8406 55.7559 61.9032 55.7559 61.9247H57.9243C57.9243 61.9103 57.9243 61.862 57.9243 61.862C57.9243 59.588 59.6348 57.899 61.8032 57.899C63.9717 57.899 65.6804 59.588 65.6804 61.8549V65.8787C65.6804 68.1509 63.9717 69.8399 61.8032 69.8399C59.6348 69.8399 57.9243 68.151 57.9243 65.9038C57.9233 65.4615 57.9897 65.0217 58.1211 64.5995H55.8918C55.8027 65.0219 55.7572 65.4523 55.7559 65.8841C55.7559 68.9257 57.987 71.8688 61.8032 71.8688C65.6195 71.8688 67.8488 68.9274 67.8488 65.8841V61.8549C67.8488 58.8133 65.6195 55.8486 61.8032 55.8486" fill="white"/>
<path d="M89.2212 55.8558C85.4049 55.8558 83.1738 58.8169 83.1738 61.8406C83.1738 61.8406 83.1738 61.9032 83.1738 61.9247H85.3441C85.3441 61.9103 85.3441 61.862 85.3441 61.862C85.3441 59.588 87.0545 57.899 89.223 57.899C91.3915 57.899 93.1019 59.588 93.1019 61.862V65.8859C93.1019 68.1581 91.3915 69.8471 89.223 69.8471C87.0545 69.8471 85.3441 68.1581 85.3441 65.9109C85.3431 65.4687 85.4094 65.0289 85.5409 64.6066H83.3098C83.2215 65.0292 83.176 65.4595 83.1738 65.8912C83.1738 68.9328 85.4049 71.876 89.2212 71.876C93.0375 71.876 95.2686 68.9346 95.2686 65.8912V61.8549C95.2686 58.8133 93.0375 55.8486 89.2212 55.8486" fill="white"/>
<path d="M102.905 55.8569C99.8997 55.8569 97.8797 57.6819 97.1569 59.9452C96.9623 60.5513 96.8621 61.1837 96.8599 61.8202V64.5398C96.8528 65.2442 96.9224 65.9473 97.0674 66.6367C97.6274 69.1594 99.2305 70.2526 101.093 70.5192C102.068 70.6587 104.85 70.8233 104.85 71.7376V71.8754H107.271V71.7358C107.271 70.2884 105.875 69.1719 102.587 68.7962C100.825 68.5958 99.0337 67.8837 99.0337 64.6185V61.8202C99.0444 59.5587 100.75 57.8841 102.911 57.8841C105.072 57.8841 106.79 59.5748 106.79 61.8202C106.79 62.7864 106.636 63.9225 105.915 64.6149H108.327C108.661 64.1694 108.958 63.2712 108.958 61.8417C108.958 58.8001 106.727 55.8569 102.911 55.8569" fill="white"/>
<path d="M75.6506 55.8568C74.2684 55.8296 72.919 56.2788 71.8289 57.1288C72.2905 53.7008 75.5862 53.8493 77.4881 53.8726H78.1393V51.8365H77.5238C74.1691 51.8365 69.5996 51.747 69.5996 58.0539V64.0923C69.5996 65.6524 70.2061 67.0283 70.5479 67.5329H72.9668C72.1993 66.7653 71.7931 65.6453 71.7717 64.1549C71.7717 64.1549 71.7717 61.8827 71.7717 61.863C71.7717 59.589 73.4821 57.9 75.6506 57.9C77.819 57.9 79.5295 59.589 79.5295 61.863C79.5295 61.8827 79.5295 64.1549 79.5295 64.1549C79.508 65.6453 79.1019 66.7653 78.3343 67.5329H80.7443C81.0861 67.0283 81.6926 65.6381 81.6926 64.0923V61.8558C81.6926 58.8142 79.4615 55.8496 75.6452 55.8496" fill="white"/>
</svg>
