<svg width="58" height="11" viewBox="0 0 58 11" fill="none" xmlns="http://www.w3.org/2000/svg">
<g clip-path="url(#clip0_926_8045)">
<path d="M36.3955 2.93229V0.927759H35.8829V0.537354H37.3558V0.932532H36.8422V2.93706L36.3955 2.93229Z" fill="white"/>
<path d="M37.7814 2.93241V0.537472H38.4982C38.665 0.52329 38.8307 0.574651 38.9602 0.680652C39.0141 0.739775 39.0552 0.80936 39.081 0.885069C39.1068 0.960778 39.1167 1.04099 39.1101 1.12069C39.1167 1.24772 39.0914 1.37437 39.0366 1.48915C39.0145 1.53085 38.983 1.56681 38.9445 1.59415C38.9061 1.6215 38.8618 1.63948 38.8151 1.64664C38.868 1.65407 38.9186 1.67317 38.9631 1.70256C39.0077 1.73195 39.0452 1.77089 39.0729 1.81655C39.1414 1.93173 39.1746 2.0645 39.1683 2.19837C39.1683 2.45291 39.1152 2.63936 39.0089 2.75773C38.902 2.87704 38.7369 2.93623 38.5116 2.93623L37.7814 2.93241ZM38.2157 1.51015H38.3646C38.4062 1.51479 38.4484 1.51065 38.4884 1.49799C38.5283 1.48533 38.5652 1.46443 38.5965 1.43665C38.6474 1.35663 38.67 1.26183 38.6605 1.16747C38.67 1.08197 38.6468 0.996037 38.5956 0.926923C38.5255 0.875515 38.4386 0.852346 38.3522 0.862014H38.2157V1.51015ZM38.2157 2.59259H38.399C38.4431 2.59722 38.4878 2.592 38.5297 2.57731C38.5716 2.56262 38.6098 2.53883 38.6414 2.50764C38.6965 2.41969 38.721 2.316 38.7111 2.21269C38.7227 2.10683 38.6955 2.00037 38.6347 1.91296C38.595 1.88062 38.5492 1.8566 38.5 1.84233C38.4508 1.82806 38.3992 1.82384 38.3484 1.82992H38.2147L38.2157 2.59259Z" fill="white"/>
<path d="M39.7109 2.93253V0.537598H40.1567V2.93253H39.7109Z" fill="white"/>
<path d="M40.7539 2.93253V0.537598H41.2006V2.5259H42.0063V2.93253H40.7539Z" fill="white"/>
<path d="M42.5 2.93253V0.537598H42.9467V2.93253H42.5Z" fill="white"/>
<path d="M43.498 2.09118H43.9438V2.24486C43.9348 2.34855 43.9539 2.45276 43.9991 2.54649C44.0217 2.5748 44.051 2.59697 44.0843 2.61099C44.1177 2.625 44.1541 2.63039 44.19 2.62668C44.2288 2.62947 44.2677 2.62459 44.3046 2.61231C44.3414 2.60002 44.3755 2.58057 44.4048 2.55508C44.4311 2.52679 44.4514 2.49337 44.4642 2.4569C44.477 2.42044 44.4821 2.38172 44.4793 2.34318C44.481 2.27798 44.4631 2.21376 44.4277 2.15895C44.3664 2.08144 44.2929 2.01439 44.2101 1.96041L43.982 1.79909C43.8363 1.71053 43.7087 1.59523 43.6059 1.45928C43.549 1.35701 43.5213 1.24114 43.5257 1.12423C43.5204 1.03654 43.5336 0.948708 43.5645 0.866473C43.5955 0.784238 43.6434 0.709443 43.7051 0.646964C43.8487 0.534314 44.0263 0.474043 44.2088 0.476126C44.3912 0.478209 44.5675 0.542521 44.7084 0.658418C44.7699 0.730564 44.8167 0.814171 44.8458 0.904433C44.875 0.994695 44.886 1.08983 44.8783 1.18437C44.8783 1.20728 44.8783 1.22446 44.8783 1.23687C44.8789 1.248 44.8789 1.25915 44.8783 1.27028H44.4554V1.20632C44.4638 1.10901 44.4414 1.01153 44.3915 0.927598C44.3656 0.898022 44.333 0.874993 44.2965 0.860394C44.26 0.845795 44.2206 0.84004 44.1815 0.843598C44.1505 0.841897 44.1195 0.846615 44.0904 0.857456C44.0613 0.868297 44.0348 0.885027 44.0125 0.906598C43.9911 0.930325 43.9747 0.958085 43.9642 0.988247C43.9537 1.01841 43.9494 1.05036 43.9514 1.08223C43.9514 1.18278 44.043 1.29414 44.2263 1.41632L44.4726 1.58241C44.6144 1.66557 44.7371 1.7778 44.8324 1.91173C44.8996 2.03199 44.9326 2.1683 44.9279 2.30595C44.9334 2.39827 44.9198 2.49073 44.8877 2.57748C44.8557 2.66424 44.806 2.74339 44.7418 2.80995C44.5949 2.93716 44.4041 3.00191 44.2101 2.99035C43.9695 2.99035 43.7904 2.92672 43.6727 2.79945C43.555 2.67217 43.4961 2.48127 43.4961 2.22672C43.4961 2.2 43.4961 2.15513 43.5028 2.09309L43.498 2.09118Z" fill="white"/>
<path d="M45.4805 2.93253V0.537598H45.9301V2.93253H45.4805Z" fill="white"/>
<path d="M36.0116 5.81544H36.4584V5.96912C36.449 6.07283 36.4682 6.17711 36.5137 6.27075C36.5362 6.29909 36.5655 6.32123 36.5989 6.33509C36.6323 6.34895 36.6687 6.35408 36.7046 6.34998C36.7832 6.35547 36.8607 6.32974 36.9204 6.27839C36.9466 6.25026 36.9667 6.21698 36.9793 6.18066C36.992 6.14433 36.9969 6.10577 36.9939 6.06744C36.9959 6.00233 36.9783 5.93813 36.9433 5.88321C36.8802 5.80554 36.8051 5.73851 36.7209 5.68467L36.4918 5.52335C36.3465 5.43456 36.2193 5.31929 36.1166 5.18353C36.0597 5.08097 36.032 4.96476 36.0365 4.84754C36.031 4.7599 36.044 4.6721 36.0748 4.58986C36.1055 4.50762 36.1533 4.43279 36.2149 4.37027C36.3509 4.25212 36.5278 4.19213 36.7075 4.20322C36.8004 4.1969 36.8937 4.20982 36.9814 4.2412C37.0691 4.27257 37.1494 4.32171 37.2172 4.38554C37.2798 4.45654 37.3277 4.53923 37.3582 4.62885C37.3887 4.71847 37.4011 4.81323 37.3948 4.90767C37.3948 4.93058 37.3948 4.94776 37.3948 4.96017C37.3948 4.97258 37.3948 4.98403 37.3948 4.99358H36.9709V4.92963C36.9789 4.83246 36.9569 4.73519 36.9079 4.6509C36.882 4.62133 36.8495 4.5983 36.813 4.5837C36.7765 4.5691 36.7371 4.56334 36.6979 4.5669C36.667 4.5652 36.636 4.56992 36.6069 4.58076C36.5778 4.5916 36.5513 4.60833 36.529 4.6299C36.5076 4.65344 36.491 4.68101 36.4804 4.711C36.4697 4.74099 36.4652 4.7728 36.4669 4.80458C36.4669 4.90576 36.5624 5.01744 36.7428 5.13962L36.9881 5.30571C37.1295 5.38881 37.2515 5.50107 37.3461 5.63503C37.4137 5.75511 37.4467 5.89155 37.4415 6.02925C37.4471 6.12157 37.4334 6.21403 37.4014 6.30078C37.3693 6.38754 37.3196 6.4667 37.2554 6.53325C37.1075 6.65982 36.916 6.72354 36.7218 6.71079C36.4813 6.71079 36.3021 6.64716 36.1844 6.51989C36.066 6.3958 36.0078 6.20584 36.0078 5.94716C36.0078 5.92044 36.0078 5.87557 36.0135 5.81353L36.0116 5.81544Z" fill="white"/>
<path d="M38.3318 6.65617V4.65164H37.8145V4.26123H39.2873V4.65641H38.7738V6.66094L38.3318 6.65617Z" fill="white"/>
<path d="M39.6703 5.4589C39.667 5.25531 39.6788 5.05175 39.7057 4.8499C39.7198 4.729 39.7588 4.61232 39.8202 4.50722C39.8798 4.40759 39.9661 4.32659 40.0693 4.27336C40.3153 4.17971 40.587 4.17971 40.833 4.27336C40.9366 4.32675 41.0234 4.40767 41.084 4.50722C41.1436 4.61353 41.1812 4.7307 41.1947 4.85181C41.2211 5.05306 41.2329 5.25595 41.2301 5.4589C41.2331 5.66125 41.221 5.86354 41.1938 6.06408C41.1802 6.18564 41.1429 6.30336 41.084 6.41057C41.0237 6.51009 40.9367 6.59076 40.833 6.64348C40.5873 6.7384 40.315 6.7384 40.0693 6.64348C39.966 6.59094 39.8796 6.51019 39.8202 6.41057C39.7598 6.30525 39.7218 6.18859 39.7085 6.06789C39.6807 5.86612 39.668 5.66256 39.6703 5.4589ZM40.1257 5.4589C40.1257 5.85312 40.1486 6.10035 40.1953 6.20248C40.2164 6.25157 40.2523 6.29281 40.298 6.32039C40.3437 6.34796 40.397 6.36048 40.4502 6.35616C40.5022 6.36069 40.5544 6.34875 40.5993 6.32203C40.6441 6.29531 40.6795 6.25516 40.7003 6.20726C40.7461 6.10703 40.7681 5.8579 40.7681 5.45985C40.7681 5.06181 40.7452 4.81172 40.7003 4.70959C40.6759 4.66365 40.6395 4.62522 40.5949 4.59842C40.5504 4.57162 40.4993 4.55746 40.4473 4.55746C40.3953 4.55746 40.3443 4.57162 40.2998 4.59842C40.2552 4.62522 40.2188 4.66365 40.1944 4.70959C40.1486 4.8114 40.1257 5.06117 40.1257 5.4589Z" fill="white"/>
<path d="M41.7792 6.65617V4.26123H42.5791C42.8209 4.26123 42.9946 4.31023 43.1003 4.40823C43.2072 4.50368 43.2597 4.66595 43.2597 4.8855C43.2662 5.01353 43.2368 5.14083 43.1747 5.253C43.1473 5.29666 43.1104 5.33358 43.0668 5.36101C43.0232 5.38845 42.9739 5.40569 42.9227 5.41145C43.1337 5.46681 43.2444 5.64626 43.2539 5.9479V5.97844L43.2663 6.30299C43.2674 6.37648 43.279 6.44944 43.3007 6.51967C43.3182 6.57261 43.348 6.62068 43.3876 6.65998H42.8588C42.845 6.61358 42.8357 6.56595 42.8311 6.51776C42.8244 6.46335 42.8206 6.38699 42.8187 6.28676L42.812 6.03667V5.9689C42.8178 5.91762 42.813 5.86568 42.7977 5.81639C42.7824 5.76709 42.7571 5.72151 42.7232 5.68254C42.664 5.63099 42.5438 5.60522 42.3624 5.60522H42.2068V6.65521L41.7792 6.65617ZM42.2068 5.274H42.4636C42.5604 5.28465 42.6576 5.25651 42.7337 5.19572C42.7929 5.1159 42.8198 5.01673 42.8091 4.91795C42.8139 4.87268 42.8091 4.82691 42.7949 4.78365C42.7808 4.74038 42.7577 4.70059 42.727 4.66691C42.6374 4.61069 42.5316 4.58584 42.4264 4.59627H42.2068V5.274Z" fill="white"/>
<path d="M44.2051 6.65617V5.64054L43.576 4.26123H44.0715L44.4332 5.16231L44.7912 4.26123H45.2684L44.6518 5.64054V6.65617H44.2051Z" fill="white"/>
<path d="M46.036 6.65617V4.65164H45.5234V4.26123H46.9963V4.65641H46.4827V6.66094L46.036 6.65617Z" fill="white"/>
<path d="M47.4219 6.65617V4.26123H48.6523V4.65927H47.8648V5.2129H48.6026V5.59472H47.8696V6.25431H48.6752V6.65617H47.4219Z" fill="white"/>
<path d="M49.1895 6.65617V4.26123H49.6362V6.24953H50.4418V6.65617H49.1895Z" fill="white"/>
<path d="M50.9336 6.65617V4.26123H51.3803V6.24953H52.1859V6.65617H50.9336Z" fill="white"/>
<path d="M52.6797 6.65617V4.26123H53.1264V6.65617H52.6797Z" fill="white"/>
<path d="M53.7245 6.65617V4.26123H54.1836L54.8069 5.93644L54.7945 4.26123H55.2155V6.65617H54.7602L54.1321 4.97809L54.1445 6.65617H53.7245Z" fill="white"/>
<path d="M56.9955 6.65615L56.963 6.39174C56.9276 6.49277 56.8607 6.57976 56.7721 6.63992C56.672 6.69469 56.5587 6.72047 56.4447 6.71437C56.1937 6.71437 56.0171 6.61892 55.9159 6.42801C55.8147 6.23711 55.7622 5.88965 55.7622 5.38375C55.759 5.19218 55.7711 5.00065 55.7985 4.81103C55.8141 4.69405 55.853 4.5814 55.913 4.4798C55.9734 4.38709 56.0592 4.31382 56.1603 4.26885C56.2814 4.21965 56.4114 4.19624 56.5421 4.20012C56.7966 4.20012 56.9875 4.26089 57.1148 4.38244C57.2421 4.50398 57.3029 4.69266 57.2971 4.94848V5.00862H56.88V4.9838C56.8879 4.8702 56.8598 4.757 56.7998 4.66021C56.7724 4.62345 56.7361 4.59415 56.6945 4.57498C56.6528 4.5558 56.607 4.54737 56.5612 4.55044C56.507 4.54518 56.4526 4.55664 56.4051 4.58326C56.3577 4.60988 56.3195 4.65039 56.2958 4.69935C56.2481 4.79862 56.2242 5.06271 56.2242 5.49161C56.2242 5.82952 56.2471 6.05479 56.292 6.16933C56.309 6.22084 56.3423 6.2654 56.387 6.29624C56.4316 6.32708 56.485 6.34251 56.5392 6.3402C56.5884 6.34477 56.6379 6.3359 56.6825 6.31455C56.727 6.29321 56.7649 6.26017 56.7922 6.21897C56.8524 6.09099 56.8784 5.94956 56.8676 5.80852V5.73025H56.5583V5.34843H57.2971V6.65615H56.9955Z" fill="white"/>
<path d="M36.0566 10.3798V7.98486H37.308V8.37718H36.5024V8.94322H37.266V9.32503H36.5024V10.375L36.0566 10.3798Z" fill="white"/>
<path d="M37.8047 10.3798V7.98486H39.0351V8.38291H38.2476V8.93654H38.9807V9.31835H38.2476V9.97794H39.057V10.3817L37.8047 10.3798Z" fill="white"/>
<path d="M39.5274 9.53884H39.9731V9.69252C39.964 9.79591 39.9831 9.89984 40.0285 9.9932C40.0511 10.0215 40.0804 10.0437 40.1137 10.0577C40.1471 10.0717 40.1834 10.0771 40.2194 10.0734C40.2979 10.0789 40.3755 10.0531 40.4351 10.0018C40.4609 9.97335 40.4807 9.94001 40.4933 9.90378C40.5059 9.86754 40.5111 9.82913 40.5086 9.79084C40.5104 9.72564 40.4925 9.66142 40.4571 9.60661C40.3943 9.52871 40.3192 9.46164 40.2347 9.40807L40.0113 9.24675C39.8636 9.15877 39.734 9.04344 39.6295 8.90693C39.5726 8.80437 39.5448 8.68816 39.5493 8.57094C39.544 8.48324 39.5572 8.39539 39.5881 8.31315C39.619 8.2309 39.667 8.15611 39.7288 8.09367C39.8647 7.97485 40.0421 7.91448 40.2223 7.92567C40.3154 7.91927 40.4088 7.93216 40.4966 7.96353C40.5845 7.9949 40.665 8.04408 40.733 8.10799C40.7953 8.17915 40.8429 8.26189 40.8732 8.35148C40.9035 8.44107 40.9159 8.53575 40.9095 8.63012V8.6893C40.9095 8.70171 40.9095 8.71316 40.9095 8.72271H40.4886V8.65875C40.497 8.56144 40.4746 8.46396 40.4246 8.38003C40.3989 8.35021 40.3665 8.327 40.3299 8.31238C40.2934 8.29776 40.2538 8.29215 40.2146 8.29603C40.1837 8.29433 40.1527 8.29905 40.1236 8.30989C40.0945 8.32073 40.068 8.33746 40.0457 8.35903C40.0244 8.38261 40.008 8.41021 39.9975 8.44021C39.987 8.4702 39.9826 8.50199 39.9846 8.53371C39.9846 8.63489 40.0762 8.74657 40.2595 8.86875H40.2643L40.5106 9.03484C40.651 9.11843 40.7723 9.23063 40.8666 9.36416C40.9337 9.48442 40.9667 9.62073 40.962 9.75838C40.9674 9.85109 40.9532 9.94389 40.9203 10.0307C40.8874 10.1176 40.8366 10.1965 40.7711 10.2624C40.6233 10.389 40.4318 10.4528 40.2376 10.4399C39.997 10.4399 39.8185 10.3769 39.7001 10.249C39.5818 10.1211 39.5236 9.93497 39.5236 9.67629C39.5236 9.64956 39.5236 9.6047 39.5302 9.54266L39.5274 9.53884Z" fill="white"/>
<path d="M41.8486 10.3798V8.38004H41.3361V7.98486H42.8089V8.38004H42.2954V10.3798H41.8486Z" fill="white"/>
<path d="M43.2345 10.3798V7.98486H43.6812V10.3798H43.2345Z" fill="white"/>
<path d="M44.6575 10.3798L44.1172 7.98486H44.5945L44.9515 9.89394L45.2731 7.98486H45.7447L45.2416 10.3798H44.6575Z" fill="white"/>
<path d="M46.037 10.3798L46.5763 7.98486H47.1748L47.7198 10.3798H47.2426L47.1242 9.77844H46.6116L46.4961 10.3798H46.037ZM46.6775 9.41858H47.0593L46.8684 8.41441L46.6775 9.41858Z" fill="white"/>
<path d="M48.1445 10.3798V7.98486H48.5913V9.97221H49.3969V10.3798H48.1445Z" fill="white"/>
<path d="M10.0904 1.98084C10.2278 1.88288 10.3304 1.74384 10.3836 1.58375C10.4368 1.42367 10.4378 1.25082 10.3864 1.09015C10.335 0.92948 10.2339 0.789289 10.0977 0.689802C9.96144 0.590315 9.79712 0.536675 9.62843 0.536621H1.11395C0.873453 0.536621 0.642803 0.63216 0.472742 0.80222C0.302682 0.97228 0.207144 1.20293 0.207144 1.44343V3.58542C0.207144 3.59878 0.207144 3.61119 0.207144 3.6236C0.207144 3.89903 0.316561 4.16319 0.511324 4.35795C0.706088 4.55272 0.970244 4.66213 1.24568 4.66213H5.82746L0.571777 8.8621C0.458078 8.93922 0.365263 9.04332 0.301632 9.16509C0.238001 9.28685 0.205538 9.42249 0.207144 9.55987C0.203568 9.77465 0.285411 9.98206 0.434685 10.1365C0.58396 10.291 0.788454 10.3799 1.00323 10.3836H9.40316C9.53491 10.3825 9.66514 10.3554 9.78643 10.304C9.90771 10.2525 10.0177 10.1777 10.11 10.0837C10.2024 9.98978 10.2753 9.87855 10.3247 9.7564C10.3741 9.63425 10.3989 9.50357 10.3978 9.37182V7.2432C10.4003 6.97746 10.2973 6.72156 10.1114 6.53168C9.92545 6.3418 9.67177 6.23346 9.40603 6.23044H9.41843L4.78893 6.21803L10.0904 1.98275" fill="white"/>
<path d="M12.6861 10.3836H21.6434V9.83477H16.3534C16.3035 9.83491 16.2541 9.82508 16.2081 9.80586C16.1621 9.78663 16.1204 9.75841 16.0855 9.72284C16.0505 9.68727 16.023 9.64507 16.0046 9.59872C15.9862 9.55237 15.9772 9.50282 15.9783 9.45296V5.93167C15.9767 5.83289 16.0141 5.73747 16.0823 5.66602C16.1506 5.59458 16.2442 5.55285 16.3429 5.54985H21.0736V4.99527H16.3792C16.3275 4.99941 16.2755 4.99268 16.2266 4.97552C16.1777 4.95836 16.1329 4.93114 16.0951 4.89563C16.0574 4.86011 16.0275 4.81707 16.0073 4.7693C15.9872 4.72152 15.9773 4.67006 15.9783 4.61823V1.4902C15.9757 1.43904 15.9835 1.38788 16.0011 1.33977C16.0187 1.29167 16.0458 1.2476 16.0808 1.21019C16.1158 1.17278 16.158 1.1428 16.2048 1.12203C16.2516 1.10126 16.3022 1.09013 16.3534 1.0893H21.6434V0.536621H12.6555C12.1706 0.536621 11.7773 0.985254 11.7773 1.53793V9.34796C11.7773 9.92068 12.184 10.3836 12.6861 10.3836Z" fill="white"/>
<path d="M23.8936 0.54248H32.6315V1.06652H27.5266C27.4761 1.067 27.4262 1.0779 27.38 1.09854C27.3339 1.11918 27.2925 1.14912 27.2585 1.18647C27.2244 1.22383 27.1985 1.26781 27.1822 1.31566C27.1659 1.36351 27.1597 1.4142 27.1639 1.46456V8.58637C27.1639 8.91016 27.2925 9.22069 27.5215 9.44965C27.7504 9.6786 28.0609 9.80723 28.3847 9.80723H32.2706C32.3711 9.80723 32.4675 9.76766 32.539 9.69709C32.6104 9.62651 32.6512 9.53062 32.6525 9.43018V5.94707C32.6525 5.84581 32.6122 5.74869 32.5406 5.67709C32.469 5.60549 32.3719 5.56526 32.2706 5.56526H29.8938V5.01735H32.3403C32.5935 5.01735 32.8363 5.11792 33.0153 5.29693C33.1943 5.47594 33.2949 5.71873 33.2949 5.97189V9.4235C33.2949 9.6797 33.1931 9.9254 33.0119 10.1066C32.8308 10.2877 32.5851 10.3895 32.3289 10.3895H23.9375C23.424 10.3895 23.0078 9.91222 23.0078 9.32709V1.54188C23.0078 0.990159 23.4001 0.54248 23.885 0.54248H23.8936Z" fill="white"/>
</g>
<defs>
<clipPath id="clip0_926_8045">
<rect width="57.0909" height="9.95774" fill="white" transform="translate(0.207031 0.480469)"/>
</clipPath>
</defs>
</svg>
