<svg width="227" height="148" viewBox="0 0 227 148" fill="none" xmlns="http://www.w3.org/2000/svg">
<path fill-rule="evenodd" clip-rule="evenodd" d="M103.719 6.39433C90.4024 26.9806 77.8108 48.8981 68.9697 66.8795C62.3188 80.4058 61.574 83.4387 64.7089 84.229C69.8638 85.5286 95.9736 70.1719 104.16 61.0248C107.206 57.6221 107.494 56.0561 106.474 48.4623C105.833 43.6989 105.636 39.4368 105.642 30.4669C105.65 18.1539 106.198 12.5307 108.135 4.84962C109.199 0.634542 109.198 0.856507 108.155 0.856507C107.558 0.856507 106.225 2.51966 103.719 6.39433ZM113.64 2.57436C111.701 3.81257 110.6 11.3449 110.621 23.2338C110.637 32.7182 111.169 38.4622 112.691 45.6111C114.231 52.8419 114.937 53.5861 124.049 57.5823C138.418 63.8846 150.387 71.4753 159.885 80.3082C163.471 83.6435 164.46 83.5861 162.984 80.1278C161.94 77.6803 154.552 63.6473 148.097 51.8497C136.656 30.9393 119.023 3.49884 116.371 2.47672C115.435 2.11597 114.294 2.15665 113.64 2.57436ZM113.142 63.2671C112.568 63.4985 109.834 65.3927 107.067 67.4772C94.2361 77.1396 81.2858 83.9903 68.5079 87.8753C67.1466 88.289 65.7439 88.7212 65.3902 88.8351C64.8412 89.0127 64.8457 89.1411 65.4221 89.7202C66.5742 90.8771 80.2805 91.4295 108.56 91.4589C134.122 91.4851 142.283 91.1872 152.662 89.8491C157.715 89.1981 158.962 88.5466 158.962 86.5594C158.962 84.6806 157.776 83.3443 152.878 79.7002C141.955 71.5761 122.986 62.7436 116.621 62.8182C115.281 62.834 113.716 63.0361 113.142 63.2671ZM0.554688 127.209V129.244H3.47983H6.40497V138.511V147.778H8.87063H11.3368L11.4583 138.624L11.5802 129.47L14.3928 129.335L17.2055 129.201V127.188V125.175H8.88008H0.554688V127.209ZM20.8057 136.522V147.869L26.5434 147.708C31.2417 147.575 32.5449 147.386 33.7366 146.665C37.5883 144.333 37.3835 137.958 33.4063 136.378C32.3289 135.95 32.3199 135.916 33.197 135.577C34.7797 134.963 35.3841 133.786 35.4084 131.271C35.453 126.615 33.2339 125.269 25.4184 125.21L20.8057 125.175V136.522ZM44.349 126.053C40.8357 127.656 38.8412 132.68 39.4311 138.44C39.9991 143.989 42.48 147.018 47.0712 147.768C49.3267 148.137 53.7747 147.811 54.3485 147.234C54.4713 147.111 54.4025 146.217 54.1959 145.247C53.8962 143.839 53.6455 143.518 52.9511 143.653C52.4732 143.746 50.8936 143.84 49.4414 143.862C47.1117 143.897 46.6783 143.76 45.7665 142.695C44.3638 141.056 43.8756 136.535 44.7171 132.975C45.2706 130.633 45.5078 130.287 47.0955 129.509C48.5805 128.781 49.202 128.715 51.0363 129.092L53.214 129.541L53.6955 127.745C54.3179 125.422 53.9425 125.188 49.607 125.192C47.2575 125.194 45.6599 125.456 44.349 126.053ZM67.1579 136.477V147.778H68.2829H69.408V136.477V125.175H68.2829H67.1579V136.477ZM75.7083 136.477C75.7083 147.477 75.7321 147.778 76.6083 147.778C77.4769 147.778 77.5084 147.477 77.5084 139.189C77.5084 134.465 77.6605 130.601 77.8459 130.602C78.0313 130.602 80.6905 134.468 83.7547 139.191C87.7072 145.283 89.5703 147.778 90.1675 147.778C90.9671 147.778 91.009 147.215 91.009 136.477C91.009 125.476 90.9851 125.175 90.109 125.175C89.2404 125.175 89.2089 125.476 89.2089 133.764C89.2089 138.488 89.0357 142.353 88.8241 142.353C88.6126 142.353 85.9454 138.488 82.8969 133.764C79.0312 127.774 77.1051 125.175 76.5314 125.175C75.756 125.175 75.7083 125.829 75.7083 136.477ZM98.6594 125.725C95.9826 127.136 95.1861 132.172 97.285 134.417C97.8241 134.993 99.721 136.128 101.5 136.939C105.829 138.911 106.76 139.807 106.76 142.001C106.76 143.276 106.447 144.065 105.607 144.909C104.532 145.989 104.238 146.051 101.22 145.843C99.4401 145.72 97.5289 145.471 96.9718 145.29C96.1347 145.018 95.9592 145.128 95.9592 145.928C95.9592 147.248 97.7026 147.857 101.585 147.893C106.764 147.94 109.01 146.014 109.01 141.525C109.01 138.98 107.626 137.515 103.339 135.526C101.306 134.582 99.32 133.348 98.9262 132.783C97.0438 130.083 98.9429 126.983 102.479 126.983C103.611 126.983 105.222 127.27 106.057 127.621C107.493 128.223 107.59 128.205 107.828 127.289C107.967 126.757 107.889 126.128 107.655 125.893C106.947 125.182 99.9379 125.051 98.6594 125.725ZM113.96 134.375C113.96 143.212 114.001 143.637 114.989 145.112C116.335 147.12 117.98 147.868 121.11 147.898C125.244 147.937 127.522 146.259 128.38 142.545C128.605 141.569 128.794 137.262 128.8 132.973L128.811 125.175H127.686H126.561V133.553C126.561 142.833 126.169 144.722 124.078 145.521C121.327 146.571 117.221 145.671 116.413 143.839C116.217 143.395 115.969 139.014 115.861 134.103C115.678 125.709 115.615 125.175 114.813 125.175C114.004 125.175 113.96 125.645 113.96 134.375ZM134.661 136.477V147.778H135.771C136.874 147.778 136.881 147.748 137.008 142.919L137.136 138.059L138.401 137.913C140.096 137.718 140.43 138.06 143.456 143.083C146.132 147.526 146.563 147.957 148.071 147.701C148.838 147.571 148.593 146.995 146.082 143.032C144.507 140.545 143.217 138.374 143.215 138.207C143.213 138.04 143.936 137.663 144.821 137.369C147.053 136.629 148.158 134.662 148.16 131.426C148.163 126.721 145.809 125.182 138.599 125.178L134.661 125.175V136.477ZM155.683 136.123C153.526 142.167 151.762 147.262 151.762 147.445C151.762 147.628 152.251 147.778 152.85 147.778C153.773 147.778 154.066 147.388 154.799 145.179L155.66 142.58L160.611 142.452L165.561 142.325L166.384 145.052C167.137 147.552 167.311 147.778 168.484 147.778C169.187 147.778 169.76 147.727 169.756 147.665C169.752 147.603 167.962 142.568 165.778 136.477C160.405 121.489 160.898 121.507 155.683 136.123ZM173.813 136.477V147.778H174.938H176.063V139.189C176.063 134.465 176.215 130.608 176.401 130.619C176.586 130.629 179.19 134.444 182.187 139.095C186.112 145.187 187.906 147.592 188.6 147.697C189.563 147.841 189.564 147.834 189.564 136.508V125.175H188.439H187.314V134.059V142.944L181.576 134.066C176.939 126.892 175.644 125.188 174.825 125.182L173.813 125.175V136.477ZM199.239 126.077C195.831 127.783 194.222 131.954 194.613 138.072C194.854 141.848 196.198 145.052 198.116 146.424C199.839 147.656 203.463 148.297 206.005 147.82C208.458 147.36 208.634 147.218 208.25 146.004C208.012 145.251 207.789 145.155 207.114 145.518C205.841 146.203 201.39 146.059 199.899 145.284C197.574 144.076 196.994 142.32 196.994 136.477C196.994 132.314 197.156 130.978 197.809 129.773C198.947 127.673 201.185 126.817 204.784 127.107C207.042 127.289 207.684 127.197 207.888 126.662C208.287 125.618 207.152 125.189 203.964 125.182C201.934 125.178 200.489 125.451 199.239 126.077ZM212.965 136.477V147.778H219.49C225.68 147.778 226.015 147.733 226.015 146.889C226.015 146.061 225.644 145.99 220.728 145.871L215.44 145.744L215.31 141.562L215.181 137.381H219.923C224.337 137.381 224.665 137.319 224.665 136.492C224.665 135.676 224.295 135.594 220.053 135.475L215.44 135.346V131.278V127.209L220.503 127.081C225.194 126.963 225.565 126.888 225.565 126.064C225.565 125.222 225.231 125.175 219.265 125.175H212.965V136.477ZM145.006 128.108C145.701 128.74 145.912 129.501 145.912 131.378C145.912 132.723 145.707 134.208 145.456 134.678C144.891 135.74 142.376 136.471 139.274 136.474L136.911 136.477V131.672V126.867L140.506 127.076C143.137 127.229 144.343 127.506 145.006 128.108ZM162.911 134.524C163.909 137.553 164.61 140.146 164.469 140.288C164.328 140.429 162.525 140.545 160.462 140.545C157.766 140.545 156.71 140.387 156.705 139.98C156.691 138.902 160.52 128.368 160.808 128.692C160.967 128.871 161.913 131.495 162.911 134.524ZM29.8358 129.259C30.4978 129.616 30.7061 130.213 30.7061 131.757C30.7061 133.545 30.5617 133.842 29.4938 134.25C28.8273 134.504 27.6626 134.652 26.9061 134.577C25.6015 134.449 25.5237 134.329 25.3914 132.239C25.3149 131.028 25.359 129.756 25.4899 129.414C25.7721 128.675 28.5645 128.576 29.8358 129.259ZM30.6058 138.537C31.3429 139.055 31.6062 139.695 31.6062 140.967C31.6062 143.211 30.73 143.898 27.8444 143.919L25.5309 143.936L25.3977 140.884L25.2649 137.833H27.4354C28.6716 137.833 30.0365 138.136 30.6058 138.537Z" fill="white"/>
</svg>
