<svg width="67" height="45" viewBox="0 0 67 45" fill="none" xmlns="http://www.w3.org/2000/svg">
<path d="M41.2394 28.6536C40.7255 28.6536 40.3143 29.0647 40.3143 29.5786C40.3143 30.0925 40.7255 30.5037 41.2394 30.5037C41.7533 30.5037 42.1644 30.0925 42.1644 29.5786C42.1644 29.0904 41.7533 28.6536 41.2394 28.6536Z" fill="white"/>
<path d="M24.435 31.4544C24.4093 31.4544 24.3579 31.4287 24.3322 31.4287C24.2808 31.4287 24.2294 31.403 24.1781 31.403C24.101 31.3773 24.0239 31.3773 23.9468 31.3773C23.8954 31.3773 23.8697 31.3773 23.8183 31.3516C23.7412 31.3516 23.6641 31.3259 23.5871 31.3259C23.4843 31.3259 23.4072 31.3259 23.3044 31.3259C23.1759 31.3259 23.0731 31.3259 22.9704 31.3259C22.9447 31.3259 22.919 31.3259 22.919 31.3259C20.9404 31.4801 20.1952 32.7392 20.1952 34.281C20.1952 35.5914 20.7348 36.7221 22.1481 37.0818C22.1738 37.0818 22.2252 37.1075 22.2509 37.1075C22.3023 37.1075 22.3536 37.1332 22.405 37.1332C22.4821 37.1589 22.5592 37.1589 22.6363 37.1589C22.6877 37.1589 22.7134 37.1589 22.7648 37.1846C22.8419 37.1846 22.919 37.2103 22.996 37.2103C23.0988 37.2103 23.1759 37.2103 23.2787 37.2103C23.2787 37.2103 23.2787 37.2103 23.3044 37.2103C23.4329 37.2103 23.5357 37.2103 23.6384 37.2103C23.6641 37.2103 23.6898 37.2103 23.6898 37.2103C25.6684 37.0561 26.4136 35.797 26.4136 34.281C26.3879 32.9448 25.8483 31.8398 24.435 31.4544ZM24.7434 34.281C24.7434 35.3602 24.4093 36.2595 23.4586 36.3623C23.4072 36.3623 23.3558 36.3623 23.2787 36.3623C23.2787 36.3623 23.2787 36.3623 23.253 36.3623C22.996 36.3623 22.7648 36.3109 22.5849 36.2082C22.0196 35.8998 21.7883 35.1546 21.7883 34.281C21.7883 33.2017 22.1224 32.3024 23.0731 32.1996C23.1245 32.1996 23.1759 32.1996 23.253 32.1996C23.253 32.1996 23.253 32.1996 23.2787 32.1996C23.5357 32.1996 23.7669 32.251 23.9468 32.3538C24.5121 32.6621 24.7434 33.3816 24.7434 34.281Z" fill="white"/>
<path d="M30.2683 31.3257C29.5231 31.3 29.0863 31.4542 28.7779 31.8397C28.5209 31.5056 28.1355 31.5056 27.7501 31.5056H26.7479V32.0966H27.1591C27.3132 32.0966 27.5445 32.148 27.5445 32.6105V35.9253C27.5445 36.0538 27.5188 36.3621 27.2105 36.3621H26.7479V36.9531H29.9085V36.3621H29.6002C29.5231 36.3621 29.2661 36.3621 29.2661 35.8739V34.1009C29.2661 33.2529 29.4203 32.6362 29.703 32.3536C29.8057 32.2508 29.9085 32.1994 30.0627 32.1994C30.1655 32.1994 30.294 32.2251 30.371 32.3022C30.4224 32.3536 30.4481 32.4564 30.4481 32.5591C30.4481 32.6876 30.371 32.7647 30.3197 32.8418L30.294 32.8932C30.2426 32.9446 30.2169 32.9703 30.2426 33.0217C30.2426 33.0731 30.371 33.1758 30.4738 33.2272C30.6023 33.3043 30.8593 33.3814 31.2447 33.3043C31.7072 33.2272 31.8871 32.8161 31.8871 32.5077C31.8357 31.8397 31.1933 31.3514 30.2683 31.3257Z" fill="white"/>
<path d="M36.4864 31.9933C36.1267 31.6335 35.5357 31.428 34.919 31.428C33.0432 31.428 32.1952 32.8156 32.1952 34.2031C32.1952 35.7192 33.3001 36.8755 34.7905 36.8755C35.8954 36.8755 36.0239 36.4901 36.0239 36.2074C36.0239 35.9248 35.8183 35.7706 35.6898 35.7449C35.6384 35.7192 35.6127 35.7192 35.6127 35.7192C35.6127 35.7192 35.5871 35.7192 35.5357 35.7706C35.3558 35.9505 35.0988 35.9762 34.8162 35.822C34.328 35.5907 33.9939 34.974 33.9682 34.2288C33.9425 33.5607 34.1995 32.5329 34.8933 32.4044C35.3301 32.3273 35.6641 32.3787 35.9468 32.61C36.2808 32.8669 36.4607 33.3809 36.4607 33.9976V36.6186C36.4607 37.6978 35.8697 38.3916 34.9447 38.3916C34.1224 38.3916 33.7369 37.9033 33.7369 37.4408V37.2866H33.5828C33.3258 37.3123 32.8633 37.4665 32.8633 38.0318C32.8633 38.5201 33.4286 39.2138 34.9704 39.2138C35.2016 39.2138 35.4072 39.2138 35.6898 39.2138C37.2316 39.1624 38.1823 38.1603 38.1823 36.5672V32.7385C38.1823 32.1475 38.3365 32.0961 38.6449 32.0961H39.056V31.5051H37.3858C36.7948 31.4794 36.5635 31.7363 36.4864 31.9933Z" fill="white"/>
<path d="M42.1922 35.8994V32.4819C42.1922 32.045 42.0894 31.4797 41.2672 31.4797H39.674V32.0707H40.0851C40.3678 32.0707 40.4963 32.1992 40.4963 32.4819V35.8994C40.4963 36.3363 40.0851 36.3363 40.0595 36.3363H39.6483V36.9273H43.0659V36.3363H42.6547C42.4492 36.3363 42.1922 36.2078 42.1922 35.8994Z" fill="white"/>
<path d="M49.1034 36.3358C48.9749 36.3358 48.6923 36.3358 48.6923 35.6677V33.3551C48.6923 31.9932 48.0242 31.3508 46.5852 31.3508H46.4824C46.354 31.3508 46.097 31.3508 45.8657 31.3508C44.5809 31.4279 43.8101 31.9161 43.8101 32.6356C43.8101 33.2009 44.2469 33.3551 44.4782 33.3551C44.5809 33.3551 44.6066 33.3294 44.6066 33.3294C44.6323 33.278 44.658 33.2009 44.6837 33.0982C44.7865 32.7384 44.9407 32.096 45.84 32.096C46.9193 32.096 46.9193 32.8669 46.9193 33.3294V33.6892H46.3796C45.0692 33.6892 43.3475 33.869 43.3475 35.4879C43.3475 36.6699 44.4782 37.1067 45.249 37.1067C46.1741 37.1067 46.6109 36.8498 46.6109 36.3101C46.6109 36.0789 46.3796 35.8733 46.2512 35.8476C46.2255 35.8476 46.1741 35.8476 46.1227 35.899C46.0456 36.0018 45.7629 36.3358 45.4289 36.156C45.249 36.0532 45.1462 35.8219 45.1462 35.4879C45.1462 34.7941 45.7116 34.4857 46.945 34.46V35.8219C46.945 36.0789 46.945 36.8755 47.9985 36.8755H49.4118V36.2844H49.1034V36.3358Z" fill="white"/>
<path d="M16.5723 31.3259C16.4952 31.3259 16.1611 31.3259 16.1354 31.3259C14.4138 31.403 13.4374 32.5336 13.4374 34.358C13.4374 35.7199 14.2596 37.1075 16.1098 37.1846C16.2125 37.1846 16.3153 37.1846 16.3924 37.1846C17.9085 37.1846 18.5252 36.7992 18.7564 36.5422C18.9363 36.3623 19.0134 36.1825 19.0134 36.0026C19.0134 35.6685 18.6793 35.4116 18.4481 35.3345L18.3196 35.2831L18.2425 35.3859C18.2425 35.3859 18.2168 35.4116 18.2168 35.4373C17.8571 36.0797 17.2661 36.388 16.4952 36.3623C15.7243 36.3109 15.1847 35.4887 15.159 34.358C15.159 33.9726 15.1847 32.9962 15.6986 32.4822C15.9042 32.251 16.1868 32.1482 16.5209 32.1739C17.2661 32.1739 17.5487 32.6364 17.5487 33.7413C17.5487 33.8441 17.5487 33.8698 17.3689 33.8698H16.7522C16.6494 33.8698 16.5723 33.8698 16.4695 33.8698C16.2382 33.8698 15.6472 33.8955 15.6472 34.358C15.6472 34.4351 15.6986 34.7178 15.8271 34.8463L15.9042 34.9234L16.007 34.8463C16.3153 34.6407 16.5209 34.6407 18.2168 34.6407C18.8592 34.6407 19.296 34.6407 19.296 33.69C19.3217 32.2767 18.2168 31.3516 16.5723 31.3259Z" fill="white"/>
<path d="M11.7158 31.7625C12.0498 31.7625 12.5894 31.5313 12.5894 30.6576C12.5894 29.3728 10.7907 29.1929 9.55733 29.1672H9.1205C7.65583 29.2186 5.21472 30.118 5.21472 33.2015C5.21472 35.4113 6.80787 37.0302 9.0948 37.1587C9.32607 37.1587 9.53164 37.1844 9.7372 37.1844C10.2511 37.1844 10.6109 37.1587 10.9706 37.1073C11.7929 36.9531 12.3582 37.0559 12.3582 37.0559H12.4096L12.4353 33.8696C12.4353 33.5869 12.204 33.33 11.8957 33.33H9.55733V33.9724H10.1997C10.6623 33.9724 10.688 34.1779 10.688 34.3835L10.6623 35.6169C10.6623 35.7968 10.6109 35.9253 10.5081 36.028C10.3539 36.1822 10.0969 36.2593 9.7372 36.2593C8.45241 36.2593 7.11622 35.1544 7.11622 33.1758C7.11622 31.5827 7.98988 30.3492 9.37746 30.0409C9.55733 29.9895 9.91707 30.0152 10.174 30.0923C10.8164 30.2979 10.8678 30.6833 10.8678 31.5827V31.7368H11.7158V31.7625Z" fill="white"/>
<path d="M58.0956 14.4173L49.4103 20.3017H49.3846V20.276L54.9863 11.4109C55.6287 10.3831 56.9906 10.0747 58.0442 10.7171C59.072 11.3595 59.3804 12.7214 58.738 13.775C58.5581 14.0319 58.3268 14.2632 58.0956 14.4173Z" fill="white"/>
<path d="M44.7084 13.7751L49.4107 20.2762V20.3019H49.385L42.036 17.1413C40.9054 16.6531 40.3658 15.3426 40.854 14.1863C41.3422 13.0556 42.6527 12.516 43.809 13.0042C44.1688 13.1841 44.4771 13.4668 44.7084 13.7751Z" fill="white"/>
<path d="M59.1237 23.0513L49.385 20.3018C49.3593 20.3018 49.3593 20.2762 49.3593 20.2762C49.3593 20.2762 49.3593 20.2505 49.385 20.2505L59.3807 18.7344C60.5884 18.5545 61.719 19.3768 61.8989 20.5845C62.0787 21.7922 61.2565 22.9228 60.0488 23.1027C59.7404 23.1541 59.4064 23.1284 59.1237 23.0513Z" fill="white"/>
<path d="M44.145 25.7237L49.3612 20.2761H49.3869V20.3018L47.8709 27.8821C47.5625 29.1926 46.1749 29.9635 44.8901 29.4753C43.9137 29.1155 43.297 28.1134 43.4512 27.0598C43.5283 26.5202 43.7852 26.0577 44.145 25.7237Z" fill="white"/>
<path d="M52.9053 29.9378L49.3593 20.3018C49.3593 20.2761 49.3593 20.2761 49.385 20.2761H49.4106L56.6569 27.805C57.4792 28.7044 57.4021 30.1177 56.477 30.9142C55.5777 31.7365 54.1644 31.6594 53.3678 30.7344C53.1366 30.5288 52.9824 30.2461 52.9053 29.9378Z" fill="white"/>
<path d="M50.7473 7.91639L49.4111 20.3018C49.4111 20.3275 49.3854 20.3275 49.3854 20.3275C49.3854 20.3275 49.3598 20.3275 49.3598 20.3018L46.4304 8.19905C46.1478 7.01703 46.8672 5.83502 48.0493 5.55237C49.2313 5.26971 50.4133 5.9892 50.6959 7.17121C50.7473 7.40247 50.773 7.65943 50.7473 7.91639Z" fill="white"/>
<path d="M38.0041 20.2758H49.3874C49.4131 20.2758 49.4131 20.3015 49.4131 20.3015C49.4131 20.3015 49.4131 20.3272 49.3874 20.3272L38.5694 24.5671C37.4131 24.9525 36.1797 24.3358 35.7943 23.1795C35.4088 22.0232 36.0255 20.7898 37.1819 20.4043C37.4645 20.3015 37.7472 20.2501 38.0041 20.2758Z" fill="white"/>
</svg>
