<svg width="55" height="73" viewBox="0 0 55 73" fill="none" xmlns="http://www.w3.org/2000/svg">
<g clip-path="url(#clip0_926_7974)">
<path d="M0.698972 41.3536V1.16186H54.687V41.3536V41.354V41.3544V41.3547V41.3551V41.3555V41.3559V41.3562V41.3566V41.357V41.3573V41.3577V41.3581V41.3584V41.3588V41.3592V41.3596V41.3599V41.3603V41.3607V41.361V41.3614V41.3618V41.3622V41.3625V41.3629V41.3633V41.3636V41.364V41.3644V41.3648V41.3651V41.3655V41.3659V41.3662V41.3666V41.367V41.3674V41.3677V41.3681V41.3685V41.3689V41.3692V41.3696V41.37V41.3703V41.3707V41.3711V41.3715V41.3718V41.3722V41.3726V41.373V41.3733V41.3737V41.3741V41.3745V41.3748V41.3752V41.3756V41.3759V41.3763V41.3767V41.3771V41.3774V41.3778V41.3782V41.3786V41.3789V41.3793V41.3797V41.3801V41.3804V41.3808V41.3812V41.3816V41.3819V41.3823V41.3827V41.3831V41.3834V41.3838V41.3842V41.3846V41.3849V41.3853V41.3857V41.3861V41.3865V41.3868V41.3872V41.3876V41.388V41.3883V41.3887V41.3891V41.3895V41.3898V41.3902V41.3906V41.391V41.3913V41.3917V41.3921V41.3925V41.3928V41.3932V41.3936V41.394V41.3944V41.3947V41.3951V41.3955V41.3959V41.3962V41.3966V41.397V41.3974V41.3978V41.3981V41.3985V41.3989V41.3993V41.3996V41.4V41.4004V41.4008V41.4012V41.4015V41.4019V41.4023V41.4027V41.403V41.4034V41.4038V41.4042V41.4046V41.4049V41.4053V41.4057V41.4061V41.4065V41.4068V41.4072V41.4076V41.408V41.4083V41.4087V41.4091V41.4095V41.4099V41.4102V41.4106V41.411V41.4114V41.4118V41.4121V41.4125V41.4129V41.4133V41.4137V41.414V41.4144V41.4148V41.4152V41.4156V41.4159V41.4163V41.4167V41.4171V41.4174V41.4178V41.4182V41.4186V41.419V41.4193V41.4197V41.4201V41.4205V41.4209V41.4212V41.4216V41.422V41.4224V41.4228V41.4231V41.4235V41.4239V41.4243V41.4247V41.425V41.4254V41.4258V41.4262V41.4266V41.4269V41.4273V41.4277V41.4281V41.4285V41.4288V41.4292V41.4296V41.43V41.4304V41.4308V41.4311V41.4315V41.4319V41.4323V41.4327V41.433V41.4334V41.4338V41.4342V41.4346V41.4349V41.4353V41.4357V41.4361V41.4365V41.4368V41.4372V41.4376V41.438V41.4384V41.4387V41.4391V41.4395V41.4399V41.4403V41.4407V41.441V41.4414V41.4418V41.4422V41.4426V41.4429V41.4433V41.4437V41.4441V41.4445V41.4448V41.4452V41.4456V41.446V41.4464V41.4467V41.4471V41.4475V41.4479V41.4483V41.4487V41.449V41.4494V41.4498V41.4502V41.4506V41.4509V41.4513V41.4517V41.4521V41.4525V41.4528V41.4532V41.4536V41.454V41.4544V41.4547V41.4551V41.4555V41.4559V41.4563V41.4566V41.457V41.4574V41.4578V41.4582V41.4586V41.4589V41.4593V41.4597V41.4601V41.4605V41.4608V41.4612V41.4616V41.462V41.4624V41.4627V41.4631V41.4635V41.4639V41.4643V41.4646V41.465V41.4654V41.4658V41.4662V41.4665V41.4669V41.4673V41.4677V41.4681V41.4685V41.4688V41.4692V41.4696V41.47V41.4704V41.4707V41.4711V41.4715V41.4719V41.4723V41.4726V41.473V41.4734V41.4738V41.4742V41.4745V41.4749V41.4753V41.4757V41.4761V41.4764V41.4768V41.4772V41.4776V41.478V41.4783V41.4787V41.4791V41.4795V41.4799V41.4802V41.4806V41.481V41.4814V41.4818V41.4821V41.4825V41.4829V41.4833V41.4837V41.484V41.4844V41.4848V41.4852V41.4856V41.4859V41.4863V41.4867V41.4871V41.4874V41.4878V41.4882V41.4886V41.489V41.4893V41.4897V41.4901V41.4905V41.4909V41.4912V41.4916V41.492V41.4924V41.4928V41.4931V41.4935V41.4939V41.4943V41.4946V41.495V41.4954V41.4958V41.4962V41.4965V41.4969V41.4973V41.4977V41.4981V41.4984V41.4988V41.4992V41.4996V41.4999V41.5003V41.5007V41.5011V41.5015V41.5018V41.5022V41.5026V41.503V41.5033V41.5037V41.5041V41.5045V41.5049V41.5052V41.5056V41.506V41.5064V41.5067V41.5071V41.5075V41.5079V41.5082V41.5086V41.509V41.5094V41.5098V41.5101V41.5105V41.5109V41.5113V41.5116V41.512V41.5124V41.5128V41.5131V41.5135V41.5139V41.5143V41.5146V41.515V41.5154V41.5158V41.5161V41.5165V41.5169V41.5173V41.5177V41.518V41.5184V41.5188V41.5191V41.5195V41.5199V41.5203V41.5207V41.521V41.5214V41.5218V41.5222V41.5225V41.5229V41.5233V41.5236V41.524V41.5244V41.5248V41.5251V41.5255V41.5259V41.5263V41.5266V41.527V41.5274V41.5278V41.5281V41.5285V41.5289V41.5293V41.5296V41.53V41.5304V41.5307V41.5311V41.5315V41.5319V41.5322V41.5326V41.533V41.5334V41.5337V41.5341V41.5345V41.5348V41.5352V41.5356V41.536V41.5363V41.5367V41.5371V41.5374V41.5378V41.5382V41.5386V41.5389V41.5393V41.5397V41.54V41.5404V41.5408V41.5412V41.5415V41.5419V41.5423V41.5426V41.543V41.5434V41.5438V41.5441V41.5445V41.5449V41.5452V41.5456V41.546V41.5463V41.5467C54.687 57.0993 43.0478 67.7785 27.693 71.971C12.3459 67.7785 0.698972 57.0993 0.698972 41.5467V41.5463V41.546V41.5456V41.5452V41.5449V41.5445V41.5441V41.5438V41.5434V41.543V41.5426V41.5423V41.5419V41.5415V41.5412V41.5408V41.5404V41.54V41.5397V41.5393V41.5389V41.5386V41.5382V41.5378V41.5374V41.5371V41.5367V41.5363V41.536V41.5356V41.5352V41.5348V41.5345V41.5341V41.5337V41.5334V41.533V41.5326V41.5322V41.5319V41.5315V41.5311V41.5307V41.5304V41.53V41.5296V41.5293V41.5289V41.5285V41.5281V41.5278V41.5274V41.527V41.5266V41.5263V41.5259V41.5255V41.5251V41.5248V41.5244V41.524V41.5236V41.5233V41.5229V41.5225V41.5222V41.5218V41.5214V41.521V41.5207V41.5203V41.5199V41.5195V41.5191V41.5188V41.5184V41.518V41.5177V41.5173V41.5169V41.5165V41.5161V41.5158V41.5154V41.515V41.5146V41.5143V41.5139V41.5135V41.5131V41.5128V41.5124V41.512V41.5116V41.5113V41.5109V41.5105V41.5101V41.5098V41.5094V41.509V41.5086V41.5082V41.5079V41.5075V41.5071V41.5067V41.5064V41.506V41.5056V41.5052V41.5049V41.5045V41.5041V41.5037V41.5033V41.503V41.5026V41.5022V41.5018V41.5015V41.5011V41.5007V41.5003V41.4999V41.4996V41.4992V41.4988V41.4984V41.4981V41.4977V41.4973V41.4969V41.4965V41.4962V41.4958V41.4954V41.495V41.4946V41.4943V41.4939V41.4935V41.4931V41.4928V41.4924V41.492V41.4916V41.4912V41.4909V41.4905V41.4901V41.4897V41.4893V41.489V41.4886V41.4882V41.4878V41.4874V41.4871V41.4867V41.4863V41.4859V41.4856V41.4852V41.4848V41.4844V41.484V41.4837V41.4833V41.4829V41.4825V41.4821V41.4818V41.4814V41.481V41.4806V41.4802V41.4799V41.4795V41.4791V41.4787V41.4783V41.478V41.4776V41.4772V41.4768V41.4764V41.4761V41.4757V41.4753V41.4749V41.4745V41.4742V41.4738V41.4734V41.473V41.4726V41.4723V41.4719V41.4715V41.4711V41.4707V41.4704V41.47V41.4696V41.4692V41.4688V41.4685V41.4681V41.4677V41.4673V41.4669V41.4665V41.4662V41.4658V41.4654V41.465V41.4646V41.4643V41.4639V41.4635V41.4631V41.4627V41.4624V41.462V41.4616V41.4612V41.4608V41.4605V41.4601V41.4597V41.4593V41.4589V41.4586V41.4582V41.4578V41.4574V41.457V41.4566V41.4563V41.4559V41.4555V41.4551V41.4547V41.4544V41.454V41.4536V41.4532V41.4528V41.4525V41.4521V41.4517V41.4513V41.4509V41.4506V41.4502V41.4498V41.4494V41.449V41.4487V41.4483V41.4479V41.4475V41.4471V41.4467V41.4464V41.446V41.4456V41.4452V41.4448V41.4445V41.4441V41.4437V41.4433V41.4429V41.4426V41.4422V41.4418V41.4414V41.441V41.4407V41.4403V41.4399V41.4395V41.4391V41.4387V41.4384V41.438V41.4376V41.4372V41.4368V41.4365V41.4361V41.4357V41.4353V41.4349V41.4346V41.4342V41.4338V41.4334V41.433V41.4327V41.4323V41.4319V41.4315V41.4311V41.4308V41.4304V41.43V41.4296V41.4292V41.4288V41.4285V41.4281V41.4277V41.4273V41.4269V41.4266V41.4262V41.4258V41.4254V41.425V41.4247V41.4243V41.4239V41.4235V41.4231V41.4228V41.4224V41.422V41.4216V41.4212V41.4209V41.4205V41.4201V41.4197V41.4193V41.419V41.4186V41.4182V41.4178V41.4174V41.4171V41.4167V41.4163V41.4159V41.4156V41.4152V41.4148V41.4144V41.414V41.4137V41.4133V41.4129V41.4125V41.4121V41.4118V41.4114V41.411V41.4106V41.4102V41.4099V41.4095V41.4091V41.4087V41.4083V41.408V41.4076V41.4072V41.4068V41.4065V41.4061V41.4057V41.4053V41.4049V41.4046V41.4042V41.4038V41.4034V41.403V41.4027V41.4023V41.4019V41.4015V41.4012V41.4008V41.4004V41.4V41.3996V41.3993V41.3989V41.3985V41.3981V41.3978V41.3974V41.397V41.3966V41.3962V41.3959V41.3955V41.3951V41.3947V41.3944V41.394V41.3936V41.3932V41.3928V41.3925V41.3921V41.3917V41.3913V41.391V41.3906V41.3902V41.3898V41.3895V41.3891V41.3887V41.3883V41.388V41.3876V41.3872V41.3868V41.3865V41.3861V41.3857V41.3853V41.3849V41.3846V41.3842V41.3838V41.3834V41.3831V41.3827V41.3823V41.3819V41.3816V41.3812V41.3808V41.3804V41.3801V41.3797V41.3793V41.3789V41.3786V41.3782V41.3778V41.3774V41.3771V41.3767V41.3763V41.3759V41.3756V41.3752V41.3748V41.3745V41.3741V41.3737V41.3733V41.373V41.3726V41.3722V41.3718V41.3715V41.3711V41.3707V41.3703V41.37V41.3696V41.3692V41.3689V41.3685V41.3681V41.3677V41.3674V41.367V41.3666V41.3662V41.3659V41.3655V41.3651V41.3648V41.3644V41.364V41.3636V41.3633V41.3629V41.3625V41.3622V41.3618V41.3614V41.361V41.3607V41.3603V41.3599V41.3596V41.3592V41.3588V41.3584V41.3581V41.3577V41.3573V41.357V41.3566V41.3562V41.3559V41.3555V41.3551V41.3547V41.3544V41.354V41.3536Z" stroke="white" stroke-width="0.394037"/>
<path d="M12.7499 36.2315V33.6703C12.5362 33.4968 12.3644 33.2769 12.2476 33.0271C12.1307 32.7773 12.0718 32.5041 12.0753 32.2281V27.5588L17.9944 31.4991C18.3303 31.7417 18.7339 31.8713 19.1476 31.8695C19.3501 31.857 19.5474 31.8001 19.7256 31.7027C19.9039 31.6054 20.0587 31.47 20.1792 31.3061L25.9454 21.5064C26.3951 20.7617 26.6312 19.9067 26.6279 19.0358C26.6305 18.4054 26.5091 17.7807 26.2708 17.1976C26.0324 16.6145 25.6818 16.0844 25.239 15.6377C24.7961 15.1911 24.2699 14.8366 23.6904 14.5948C23.1109 14.353 22.4895 14.2285 21.862 14.2285C20.9382 14.2295 20.0351 14.5036 19.2653 15.0166C19.2557 14.7814 19.191 14.5518 19.0765 14.3464C18.962 14.141 18.8009 13.9656 18.6063 13.8345C17.6837 15.4624 16.9242 17.1783 16.3391 18.957C15.8852 20.3019 15.5286 21.6781 15.2721 23.0746H16.5862C16.7148 23.0703 16.8404 23.0343 16.952 22.9697C17.0635 22.9051 17.1574 22.8139 17.2256 22.7042L17.6178 21.8098C17.7258 21.5193 17.897 21.2568 18.1189 21.0414C18.3408 20.8259 18.6079 20.6631 18.9005 20.5646C19.1241 20.5055 19.3398 20.4661 19.5203 20.4109C19.8805 20.2791 20.192 20.0397 20.4129 19.7248C20.6337 19.41 20.7534 19.0348 20.7559 18.6496C20.8839 18.7153 20.9915 18.8151 21.0669 18.9381C21.1423 19.0611 21.1826 19.2026 21.1834 19.3471C21.1674 19.4824 21.1331 19.615 21.0814 19.7411C20.8315 20.311 20.5012 20.8418 20.1008 21.3172C19.5516 21.9359 18.6063 22.8028 18.6063 22.8028C18.0179 23.3505 17.7512 23.8588 17.5472 24.9069C17.5024 25.5189 17.542 26.1342 17.6649 26.7352L17.6884 26.8889C17.6877 26.9295 17.6763 26.9691 17.6553 27.0038C17.6343 27.0384 17.6045 27.0668 17.569 27.0861C17.5334 27.1053 17.4934 27.1147 17.4531 27.1133C17.4127 27.1119 17.3734 27.0997 17.3393 27.0781C17.2805 27.0387 15.9507 26.3806 15.1702 26.0378C13.9581 25.4664 12.6443 25.1448 11.3065 25.0921C11.0155 25.0903 10.7343 25.1969 10.517 25.3912C10.2997 25.5855 10.1617 25.8537 10.1297 26.1442C9.99633 27.4012 10.1062 31.9562 10.7769 33.82C11.0201 34.4899 11.6869 36.1567 12.7656 36.2394" fill="white"/>
<path d="M28.0637 57.912C27.9297 58.058 27.8554 58.2494 27.8558 58.4479C27.8555 58.5595 27.8787 58.6699 27.924 58.7718C27.9693 58.8737 28.0357 58.9648 28.1186 59.039C28.1399 58.8867 28.2052 58.744 28.3062 58.6284C28.4073 58.5129 28.5398 58.4296 28.6874 58.3888C28.6874 58.3888 29.6837 58.1209 30.0721 57.9554C30.2301 57.8739 30.3712 57.7629 30.4879 57.6283C30.8746 57.122 31.1536 56.5413 31.3077 55.9221C31.4059 55.5656 31.4677 55.1998 31.492 54.8307C31.5105 54.2903 31.3521 53.7588 31.0409 53.3176C30.8127 53.0127 30.5219 52.7607 30.1883 52.5785C29.8546 52.3963 29.4859 52.2882 29.1071 52.2615V52.0724C29.5427 52.0036 29.9888 52.0591 30.3945 52.2326C30.8002 52.406 31.1492 52.6905 31.4018 53.0536C32.4442 52.3743 33.3802 51.543 34.179 50.5869C35.186 49.2677 36.0883 47.8712 36.8777 46.4101C37.317 45.7087 37.9407 44.633 39.1488 44.6448C39.5841 44.6458 40.0013 44.8195 40.3099 45.1279C40.6184 45.4363 40.7932 45.8546 40.7963 46.2919C40.7963 47.6947 39.0978 49.8855 37.0542 51.6232L36.403 51.1858C35.9755 51.7296 35.3047 52.5492 34.6693 53.2506C33.7946 54.2199 32.9944 55.0198 32.9944 55.0198C35.0666 54.6628 37.0542 53.9198 38.8546 52.829L38.1172 52.3364C38.3212 52.2221 38.5094 52.1039 38.7252 51.9818C40.3037 51.0143 41.7048 49.7814 42.8674 48.3369C43.9016 47.0175 44.4552 45.3823 44.4364 43.7031C44.4364 42.6873 44.0347 41.7131 43.3197 40.9948C42.6047 40.2765 41.6349 39.873 40.6237 39.873C40.3609 39.873 39.5764 39.9912 39.4469 40.0149V38.2141C39.4352 37.9285 39.3162 37.6579 39.1138 37.4569C38.9115 37.2559 38.6409 37.1392 38.3565 37.1305H37.2699C37.6021 36.2163 38.0405 35.3447 38.5761 34.5338C39.2665 33.529 40.859 31.6534 42.1064 32.2326C42.2351 32.333 42.3416 32.459 42.4192 32.6028C42.4969 32.7466 42.5439 32.905 42.5575 33.068C42.6199 33.6545 42.5223 34.247 42.2751 34.7821C42.177 35.0342 41.4396 36.173 41.467 37.1463C41.479 37.88 41.7453 38.5865 42.2202 39.1441C42.8203 37.497 43.9422 36.3858 45.3582 35.0894C45.773 34.7335 46.1075 34.2928 46.3395 33.7968C46.5715 33.3008 46.6956 32.7609 46.7036 32.2129C46.6992 31.6877 46.5556 31.1732 46.2875 30.7222C46.0193 30.2713 45.6364 29.9003 45.1781 29.6475C44.7198 29.3946 44.2028 29.269 43.6801 29.2836C43.1574 29.2982 42.6481 29.4525 42.2045 29.7305L39.9294 31.1293C39.8208 31.1878 39.6996 31.2189 39.5764 31.22C39.4708 31.218 39.3667 31.1947 39.2703 31.1513C39.1739 31.108 39.0872 31.0456 39.0155 30.9678C37.8387 29.8408 36.6384 27.7052 33.5788 27.4215C33.9117 27.085 34.352 26.8771 34.8223 26.8343C35.0278 26.8078 35.2349 26.796 35.442 26.7989L38.4349 26.8619C39.549 26.8841 40.6435 26.5652 41.5729 25.9478C42.0795 25.6058 42.497 25.1468 42.7905 24.6093C43.084 24.0718 43.2449 23.4714 43.2596 22.8585L41.3886 23.8672C41.3558 23.7681 41.3386 23.6644 41.3376 23.5599C41.3383 23.3978 41.3796 23.2384 41.4578 23.0965C41.5359 22.9547 41.6484 22.8349 41.7848 22.7482C41.8436 22.7127 43.9657 21.6015 44.3266 21.3296C44.754 21.0096 45.1008 20.5933 45.3392 20.1143C45.5776 19.6354 45.701 19.1069 45.6995 18.5714C45.7052 17.8769 45.4955 17.1979 45.0993 16.6288C45.063 17.0427 44.8738 17.428 44.5689 17.7088C44.264 17.9895 43.8655 18.1455 43.4518 18.1458H34.5006C34.6026 17.8818 34.8929 17.1174 35.0498 16.8573C35.162 16.6596 35.3396 16.5076 35.5519 16.4278C35.8713 16.3016 36.1345 16.0637 36.2932 15.758H35.7558L36.458 15.0763C36.0932 15.1117 35.7441 14.9305 34.8889 14.5128C34.5609 14.3285 34.1937 14.2258 33.8181 14.2133C33.6054 14.21 33.3978 14.2784 33.2285 14.4078C33.0593 14.5371 32.9381 14.7198 32.8845 14.9265C32.8492 15.0684 32.6413 15.7737 32.5707 16.0653C32.4622 16.3792 32.4622 16.7207 32.5707 17.0346C32.6101 17.1435 32.6721 17.2426 32.7526 17.3255C32.8331 17.4084 32.9302 17.4731 33.0375 17.5154L32.8728 17.9094C32.3236 17.7912 31.4999 17.0977 30.7154 16.3333L32.4099 13.4725L32.6531 13.445C33.0022 13.3977 33.2062 13.0509 33.3395 12.7987C33.3914 12.7233 33.4155 12.6321 33.4076 12.5407C33.3998 12.4494 33.3604 12.3637 33.2964 12.2983L33.1787 12.1801L34.277 10.3163L33.7239 9.98926L32.5982 11.8964C32.2611 11.8113 31.9111 11.7912 31.5666 11.8373L26.6673 12.5426C26.6118 12.5461 26.5575 12.5606 26.5076 12.5854C26.4578 12.6101 26.4133 12.6446 26.3768 12.6868C26.3403 12.7289 26.3125 12.7779 26.295 12.831C26.2776 12.884 26.2708 12.9401 26.275 12.9958C26.4555 14.2094 27.1968 15.8131 28.3736 17.405L29.672 15.2339C29.0169 14.5049 28.5384 13.9139 28.5384 13.9139L31.9745 12.9248L17.7906 36.8232L17.0963 36.4291V38.683L19.0301 37.5403L18.3476 37.1463L21.1914 32.3548C21.2408 32.2684 21.306 32.1922 21.3836 32.1302C21.4899 32.0504 21.6197 32.0088 21.7524 32.012C21.9002 32.0143 22.0412 32.0752 22.1446 32.1814C23.2789 33.2297 24.5829 34.0759 26.0005 34.6836C26.3927 34.8609 26.8124 35.0145 27.2204 35.1485C27.2204 35.05 27.2204 34.9476 27.2204 34.849C27.2057 33.7529 27.47 32.6711 27.9883 31.7063C28.5066 30.7415 29.2617 29.9258 30.1819 29.3365L30.2878 29.7936C29.3762 30.5687 28.7234 31.6062 28.4177 32.766C28.112 33.9257 28.168 35.1518 28.5783 36.2785C28.9885 37.4053 29.7332 38.3784 30.7116 39.0663C31.6901 39.7542 32.8552 40.1238 34.0495 40.1252C34.2613 40.1252 36.9953 40.0503 36.9953 40.0503C37.0168 40.0498 37.0381 40.0536 37.0581 40.0615C37.0781 40.0694 37.0963 40.0812 37.1116 40.0962C37.127 40.1113 37.1392 40.1293 37.1475 40.1491C37.1558 40.169 37.1601 40.1903 37.1601 40.2119V40.6059C36.1127 40.9797 35.0929 41.4274 34.1084 41.9457C32.2961 42.8835 28.4207 45.0231 29.3268 47.1233C29.217 47.1233 29.1032 47.1233 28.9934 47.1233C28.8178 46.8431 28.7303 46.5163 28.7423 46.1855C28.7423 45.823 28.8325 44.8931 30.1701 43.7425C30.9742 43.045 33.5788 41.2246 33.5788 41.2246C33.4611 41.2246 33.3435 41.2246 33.2179 41.2246C31.9271 41.2221 30.6749 40.782 29.6641 39.9755C29.6641 39.9755 26.5575 42.0678 25.6984 44.5975C25.5355 45.1367 25.5029 45.7071 25.6032 46.2614C25.7034 46.8158 25.9338 47.3382 26.275 47.7853C26.177 47.8286 26.0789 47.872 25.9848 47.9232C25.2552 47.1903 23.9882 45.2398 26.1417 42.3397C26.9628 41.2302 27.9376 40.2444 29.0365 39.412C28.1074 38.439 27.5028 37.1995 27.3067 35.8657C24.743 37.5355 22.8815 40.0956 22.0779 43.0568C21.011 46.9972 23.2547 48.794 24.2 49.3339C24.149 49.393 24.098 49.456 24.0549 49.5151C23.4414 49.2778 22.8842 48.914 22.4192 48.4473C21.5131 48.534 19.3282 48.5812 17.4768 47.1627C17.0593 46.8319 16.7283 46.4039 16.5123 45.9158C16.2964 45.4277 16.202 44.8941 16.2373 44.3611C16.3111 43.2858 16.7484 42.2682 17.4768 41.4768C17.4913 41.4593 17.5093 41.4451 17.5295 41.4349C17.5497 41.4247 17.5719 41.4188 17.5945 41.4176C17.634 41.4176 17.6719 41.4334 17.6999 41.4615C17.7278 41.4896 17.7435 41.5277 17.7435 41.5674C17.7448 41.5844 17.7448 41.6016 17.7435 41.6186L17.6611 41.9811C18.2652 41.5516 18.2064 40.6178 18.2064 40.5941C18.203 40.5262 18.1823 40.4604 18.1461 40.403C18.11 40.3455 18.0596 40.2985 18 40.2664C17.9404 40.2342 17.8736 40.2181 17.8059 40.2197C17.7383 40.2212 17.6722 40.2402 17.6141 40.2749L14.3584 42.4815L15.8019 37.5206L14.986 37.4773C14.9172 37.4766 14.8495 37.4941 14.7896 37.528C14.7297 37.5619 14.6798 37.611 14.6447 37.6704L8.95703 46.8357L11.7499 46.0042L11.2909 48.069L12.9031 47.1588C14.5584 51.7611 19.1321 55.0671 24.5177 55.0671C25.8863 55.0687 27.2462 54.8506 28.5462 54.4209C28.5669 54.4171 28.5882 54.4171 28.609 54.4209C28.6618 54.4205 28.7131 54.4382 28.7545 54.4712C28.7959 54.5042 28.8248 54.5504 28.8365 54.6021C28.8747 54.8495 28.8586 55.1024 28.7894 55.3429C28.7345 55.5595 28.6401 55.7639 28.5109 55.9458C28.4744 55.9967 28.4275 56.0391 28.3734 56.0704C28.3193 56.1016 28.2592 56.121 28.1971 56.127L25.9965 56.3201C25.5297 56.3643 25.0961 56.5818 24.7805 56.9302C24.465 57.2785 24.2901 57.7326 24.2902 58.2036C24.2891 58.3549 24.3062 58.5057 24.3412 58.6528C24.4847 58.3501 24.7055 58.0911 24.9811 57.9021C25.2568 57.7132 25.5774 57.601 25.9102 57.5771C25.7884 57.6845 25.6905 57.8166 25.623 57.9646C25.5554 58.1126 25.5196 58.2733 25.518 58.4361C25.5257 58.6111 25.5731 58.782 25.6568 58.9357C25.7404 59.0893 25.858 59.2217 26.0005 59.3227C26.0921 58.9568 26.2904 58.6267 26.5699 58.3747C26.8495 58.1227 27.1975 57.9602 27.5695 57.9081C27.735 57.8883 27.9022 57.8883 28.0676 57.9081" fill="white"/>
</g>
<defs>
<clipPath id="clip0_926_7974">
<rect width="54.3821" height="71.2104" fill="white" transform="translate(0.501953 0.96582)"/>
</clipPath>
</defs>
</svg>
