<svg width="122" height="63" viewBox="0 0 122 63" fill="none" xmlns="http://www.w3.org/2000/svg">
<path fill-rule="evenodd" clip-rule="evenodd" d="M74.7908 0.505049C74.7914 0.865075 74.9468 1.2635 75.2078 1.57403C75.3834 1.78299 75.8765 2.08691 76.0457 2.09055C76.1488 2.09274 76.1467 2.10188 76.0178 2.20966C75.7807 2.40809 74.4152 3.06794 73.4498 3.45056C72.2421 3.92919 70.7238 4.42498 69.3777 4.78029C64.5496 6.05465 64.0299 6.25274 59.0828 8.70437C57.8246 9.32796 56.657 9.90036 56.4882 9.97643C56.3194 10.0525 55.5795 10.3794 54.8439 10.7028C54.1085 11.0262 53.4642 11.3137 53.4124 11.3416C53.3268 11.3876 53.3253 11.4166 53.3965 11.6543C53.5571 12.19 53.4735 12.9757 53.1978 13.5239C52.9765 13.964 52.972 13.9632 52.7818 13.4558C52.6054 12.9851 52.281 12.358 52.0937 12.1257L51.9911 11.9983L51.3096 12.3414L50.6282 12.6846L50.6706 12.9221C50.7732 13.4972 50.6611 14.1869 50.3921 14.6351C50.2639 14.8489 50.2382 14.8324 50.1014 14.4488C49.9874 14.1295 49.5899 13.3753 49.5089 13.3251C49.47 13.3009 48.2666 13.8906 48.1305 14.0006C48.1218 14.0076 48.1442 14.1921 48.1801 14.4107C48.2549 14.8653 48.1896 15.3347 47.9933 15.7543L47.8783 16L47.6496 15.5602C47.4056 15.0911 47.1126 14.6481 47.0449 14.6462C47.0223 14.6456 46.7284 14.8091 46.392 15.0098L45.7802 15.3745L45.8137 15.8505C45.8389 16.2095 45.8237 16.4127 45.7519 16.6769C45.6667 16.9901 45.5212 17.2832 45.4824 17.2193C45.4744 17.2062 45.3706 17.0027 45.2518 16.7673C45.133 16.5318 44.9788 16.2676 44.9093 16.1799L44.7828 16.0207L44.1327 16.4556L43.4826 16.8906L43.5267 17.099C43.6056 17.4724 43.5691 18.0731 43.4498 18.3654L43.3383 18.6386L43.1917 18.3873C43.0095 18.075 42.6073 17.5597 42.5458 17.5597C42.5205 17.5597 42.2261 17.7654 41.8914 18.0168C41.5568 18.2682 41.2775 18.4776 41.2707 18.4822C41.264 18.4867 41.3199 18.6405 41.3949 18.8238C41.4897 19.0554 41.5318 19.2663 41.5327 19.5144C41.534 19.8521 41.5284 19.8674 41.4311 19.7947C41.3745 19.7523 41.1547 19.5857 40.9429 19.4243C40.7309 19.2629 40.5259 19.1305 40.4871 19.13C40.4483 19.1296 40.1426 19.3572 39.8076 19.6359L39.1987 20.1425L39.3088 20.3926C39.4353 20.6799 39.5007 21.1267 39.4474 21.34L39.4108 21.4862L39.0731 21.2117C38.4748 20.7254 38.5512 20.7187 37.9093 21.3132C37.6012 21.5985 37.3492 21.8482 37.3494 21.8679C37.3495 21.8877 37.4117 22.0552 37.4876 22.2401C37.6016 22.5182 37.6811 23.0529 37.6085 23.0529C37.5977 23.0529 37.4168 22.9394 37.2066 22.8006C36.9963 22.6619 36.7962 22.5484 36.7619 22.5484C36.7276 22.5484 36.4943 22.7901 36.2436 23.0855C35.8609 23.5364 35.7968 23.6396 35.8442 23.7286C35.9245 23.8793 36.0127 24.3818 35.9759 24.4783C35.9516 24.5416 35.8862 24.5171 35.6778 24.3666C35.5309 24.2607 35.3957 24.1739 35.3772 24.1739C35.2738 24.1739 34.3927 25.6652 34.3921 25.8415C34.3909 26.1308 35.4569 25.384 36.7616 24.1814C39.0655 22.0578 42.5063 19.6596 45.9476 17.7787C48.1293 16.5863 51.0301 15.3323 52.9952 14.7319L53.4917 14.5802L53.6198 14.7107C53.8237 14.9184 54.1298 15.4687 54.2598 15.8609C54.3382 16.0977 54.4038 16.2126 54.4502 16.1947C54.6976 16.0993 55.3913 15.9172 56.0139 15.7842C56.7013 15.6374 56.8168 15.6292 58.2179 15.6283C59.3814 15.6277 59.9583 15.6553 60.9242 15.7579C61.5994 15.8296 62.2397 15.9054 62.3471 15.9265C62.6285 15.9818 62.7384 16.2345 62.7537 16.8615C62.7642 17.2945 62.7531 17.3582 62.6573 17.4134C62.385 17.57 62.277 17.7301 62.3092 17.9295C62.3264 18.0359 62.6141 18.5701 62.9485 19.1165C63.2829 19.663 63.6255 20.2296 63.7099 20.3756L63.8633 20.641L58.3204 20.6559L52.7775 20.6707L52.5404 20.8255C52.338 20.9576 52.3033 21.0083 52.3033 21.1713C52.3033 21.4455 52.587 21.6138 53.1123 21.6516L53.5029 21.6796L53.5453 22.0654C53.5925 22.495 53.8055 22.9546 54.0238 23.0983C54.1447 23.1779 54.1611 23.1775 54.2075 23.0943C54.3348 22.8657 54.5609 22.6577 54.8265 22.5248C55.1787 22.3484 55.285 22.3443 55.3954 22.5026C55.4979 22.6497 55.4404 22.7425 55.1787 22.8523C54.9058 22.9669 54.7026 23.2465 54.7026 23.5075C54.7026 24.0007 55.1992 24.6389 55.8288 24.955C56.2572 25.17 56.4782 25.1712 56.9203 24.9611C57.7824 24.5515 58.3081 23.6523 57.9798 23.149C57.9256 23.0658 57.756 22.934 57.6032 22.8562C57.4503 22.7783 57.3252 22.6791 57.3252 22.6356C57.3252 22.5268 57.4806 22.38 57.5942 22.3815C57.8003 22.3842 58.1508 22.6033 58.4072 22.8898L58.6778 23.1922L58.8842 22.9586C59.122 22.6894 59.2223 22.4036 59.2223 21.9954V21.7076H61.8416C63.38 21.7076 64.474 21.7289 64.4927 21.7593C64.5101 21.7877 64.6864 21.8651 64.8843 21.9313C65.3762 22.0957 65.9846 22.098 66.2998 21.9365L66.5307 21.8181L66.8642 21.9309C67.62 22.1867 68.2213 22.1851 68.8216 21.9257L69.1015 21.8047L71.3887 21.8856L73.6758 21.9666L73.8843 22.1673C74.1055 22.3802 74.3933 22.5484 74.5364 22.5484C74.6982 22.5484 74.6236 22.6426 74.4111 22.7065C74.1208 22.7939 73.7647 23.1139 73.6172 23.4198C73.4377 23.7923 73.4748 24.3375 73.7051 24.7117C74.1506 25.4356 75.2072 25.576 75.8068 24.991C76.114 24.6913 76.2135 24.4335 76.2106 23.9449L76.2082 23.5196L76.4456 23.7017C76.7171 23.9099 76.9262 23.9707 77.3451 23.9634C78.1289 23.9497 78.763 23.1538 78.6055 22.3814C78.5426 22.0731 78.5683 22.0392 78.7294 22.218C79.0206 22.5415 79.5679 22.6675 80.0591 22.524C80.8616 22.2897 81.2623 21.3488 80.8783 20.6004C80.6324 20.1212 80.198 19.8579 79.6534 19.8579C79.2711 19.8579 79.0021 19.9565 78.73 20.1965L78.5364 20.3672L78.5946 20.1555C78.7206 19.6971 78.5391 19.1294 78.1595 18.7946C77.8751 18.5437 77.6426 18.4566 77.2581 18.4566C76.9015 18.4566 76.4008 18.6609 76.2796 18.8559C76.1841 19.0095 76.1234 18.9844 76.1866 18.8173C76.2812 18.5671 76.248 18.1655 76.108 17.868C75.7035 17.0085 74.675 16.7897 73.9698 17.4133C73.6426 17.7027 73.5097 17.9958 73.5081 18.4316C73.5059 19.0283 73.927 19.631 74.4148 19.7291C74.6445 19.7754 74.6483 19.8407 74.4256 19.9146C74.3166 19.9507 74.1153 20.0662 73.9783 20.1713L73.7293 20.3622L71.6334 20.4411L69.5376 20.5199L69.297 20.2783C69.0855 20.0658 69.0036 20.0254 68.6173 19.9427C67.8913 19.7872 67.8477 19.7642 67.4127 19.3069C66.5688 18.4195 66.431 18.1205 66.3836 17.0733L66.3485 16.2985H67.8492C69.2137 16.2985 69.4021 16.2868 69.9255 16.1691C71.4323 15.8301 72.6593 15.2162 73.7989 14.2314C74.6968 13.4554 75.1517 12.8094 76.3887 10.5532C77.773 8.02804 78.6862 6.55251 79.2293 5.96323C79.5877 5.57445 80.1164 5.22081 80.6297 5.02676C80.9055 4.92244 82.2522 4.55552 82.3592 4.55552C82.37 4.55552 82.3789 4.52296 82.3789 4.4831C82.3789 4.38854 82.0206 4.04472 81.4303 3.57292C81.121 3.32567 80.9632 3.16256 80.9768 3.10398C80.9882 3.05455 81.009 2.85937 81.0231 2.67031C81.0727 2.00401 80.7205 1.61528 79.8122 1.33384C79.5861 1.26378 79.1524 1.22566 78.1661 1.18906C77.3838 1.16002 76.6699 1.10492 76.4494 1.05649C75.9411 0.944949 75.4377 0.710929 75.0832 0.421361L74.7902 0.182129L74.7908 0.505049ZM52.0365 15.2652L51.2509 15.6633L51.4505 15.9248C51.659 16.1981 52.0243 16.9117 52.0243 17.0457C52.0243 17.0884 52.0557 17.1088 52.094 17.0912C52.1324 17.0735 52.5027 16.9198 52.917 16.7494C53.743 16.4099 53.7048 16.4561 53.5524 15.9798C53.4615 15.6953 53.1141 15.126 52.9339 14.9662C52.8256 14.8702 52.7975 14.8795 52.0365 15.2652ZM50.1403 16.3232C49.6151 16.6427 49.0111 17.0485 49.0111 17.0819C49.0111 17.0943 49.0893 17.1879 49.1848 17.29C49.2804 17.3921 49.4673 17.6418 49.6002 17.8449L49.8418 18.2142L50.6259 17.8169C51.0571 17.5984 51.41 17.3995 51.4102 17.3749C51.4109 17.2576 50.9819 16.4798 50.8031 16.2744L50.6014 16.0427L50.1403 16.3232ZM64.8571 16.303C64.9897 16.4335 64.9969 16.4761 65.0245 17.2983L65.0533 18.1572L65.2824 18.4611C65.4084 18.6281 65.7158 19.0171 65.9655 19.3254C66.2153 19.6337 66.4197 19.8988 66.4199 19.9144C66.4208 19.9736 65.2644 19.8624 64.9866 19.7767C64.6634 19.677 64.4227 19.4343 64.3004 19.085C64.251 18.944 64.2196 18.4276 64.2029 17.4825L64.1783 16.0881L64.4484 16.1274C64.621 16.1524 64.7686 16.2159 64.8571 16.303ZM47.7816 17.9581C47.4605 18.2075 47.1251 18.4825 47.0365 18.569L46.8753 18.7265L47.0854 18.9418C47.2009 19.0603 47.359 19.2526 47.4365 19.3692C47.5141 19.4858 47.5934 19.5741 47.6127 19.5654C47.6321 19.5567 47.9484 19.3627 48.3156 19.1343C48.6828 18.9059 49.0401 18.6843 49.1096 18.642L49.236 18.565L49.0174 18.2445C48.8972 18.0683 48.7013 17.8297 48.5822 17.7143L48.3656 17.5046L47.7816 17.9581ZM75.0884 18.0143C75.3639 18.1404 75.4303 18.5474 75.2113 18.7674C74.9058 19.0743 74.3997 18.8728 74.3997 18.4442C74.3997 18.059 74.7323 17.8514 75.0884 18.0143ZM45.5892 19.8701L44.8827 20.5585L45.1281 20.8312L45.3736 21.1039L46.1886 20.5319L47.0036 19.9597L46.8405 19.7547C46.7508 19.6419 46.5915 19.4668 46.4865 19.3656L46.2957 19.1816L45.5892 19.8701ZM77.5757 19.4515C77.6414 19.5054 77.7101 19.643 77.7283 19.7572C77.7569 19.9367 77.7383 19.9879 77.5914 20.1356C77.1321 20.5969 76.4837 19.9583 76.9253 19.4795C77.069 19.3238 77.4026 19.3094 77.5757 19.4515ZM75.0704 20.7833C75.3949 20.9519 75.4419 21.2859 75.1783 21.5507C75.0313 21.6983 74.9803 21.7169 74.8016 21.6882C74.5422 21.6465 74.3997 21.4757 74.3997 21.2067C74.3997 21.0001 74.5343 20.8118 74.7344 20.7383C74.8671 20.6895 74.8977 20.6936 75.0704 20.7833ZM79.963 20.8442C80.1453 20.9596 80.1907 21.2857 80.0508 21.4744C79.8247 21.7794 79.4409 21.7763 79.2512 21.4679C79.1288 21.2688 79.1456 21.0759 79.3004 20.9023C79.4868 20.6931 79.6953 20.6748 79.963 20.8442ZM44.1287 21.3522C43.1403 22.4708 42.8765 22.8287 43.04 22.8287C43.0836 22.8287 44.5882 21.7179 44.7908 21.5362C44.8357 21.496 44.5122 21.0342 44.4402 21.0357C44.4223 21.0361 44.2821 21.1785 44.1287 21.3522ZM77.622 22.2993C77.7771 22.4763 77.783 22.7123 77.6369 22.8989C77.41 23.1887 76.9902 23.1383 76.8314 22.8022C76.59 22.2912 77.2482 21.8725 77.622 22.2993ZM75.1851 23.6651C75.6387 24.1208 74.9961 24.7656 74.5252 24.3273C74.3083 24.1254 74.3773 23.6643 74.6404 23.5578C74.8627 23.4678 75.0195 23.4987 75.1851 23.6651ZM22.5066 34.0219C20.763 34.1548 19.462 34.8646 18.9372 35.9692C18.6937 36.482 18.6007 36.9089 18.6007 37.5145C18.6007 38.7036 19.0631 39.6049 20.1002 40.4378C20.672 40.897 21.0729 41.1357 22.7019 41.9873C24.3817 42.8656 24.8969 43.1796 25.2947 43.5681C25.7472 44.01 25.881 44.3169 25.8818 44.9146C25.8824 45.3418 25.8631 45.4317 25.6994 45.7657C25.2574 46.6676 24.2529 47.1552 22.9982 47.077C21.6456 46.9927 20.8541 46.6418 20.2285 45.8493C19.6608 45.13 19.4792 44.5664 19.471 43.4981L19.4655 42.7835L19.1447 42.7834C18.9265 42.7834 18.8231 42.8058 18.8214 42.8535C18.82 42.892 18.6743 43.964 18.4975 45.2357L18.1761 47.5479H18.4721C18.7634 47.5479 18.7681 47.5452 18.7681 47.3806C18.7681 47.2768 18.827 47.1471 18.9234 47.0387C19.1313 46.805 19.346 46.8111 19.9004 47.0666C21.0751 47.6079 22.7387 47.8677 24.0866 47.7204C25.0086 47.6197 25.6792 47.4284 26.4404 47.0493C27.9596 46.2926 28.7003 45.1614 28.7003 43.5976C28.7003 42.3515 28.0047 41.3177 26.5799 40.446C26.0766 40.138 24.4947 39.2705 23.79 38.9161C23.0337 38.5356 22.1908 37.9767 21.8363 37.6205C21.4228 37.2052 21.2585 36.8493 21.2561 36.3638C21.2545 36.026 21.2786 35.9263 21.4256 35.6632C21.9845 34.6626 23.5923 34.382 24.9171 35.0538C25.7513 35.4768 26.2741 36.296 26.6954 37.8402L26.8206 38.2992H27.1194H27.4182L27.3902 38.089C27.3748 37.9734 27.3113 37.1095 27.2492 36.1692C27.0961 33.8524 27.1177 33.9832 26.8894 33.9832C26.7373 33.9832 26.6972 34.0088 26.6682 34.1247C26.5662 34.533 26.2904 34.5715 25.2884 34.3174C24.1726 34.0344 23.4077 33.9532 22.5066 34.0219ZM7.32413 34.3055C6.53641 36.3926 3.00746 45.2992 2.83231 45.6421C2.41533 46.4585 1.92948 46.8538 1.17067 46.9943L0.800781 47.0628V47.3053V47.5479H3.14434H5.4879V47.2997V47.0515L5.16705 47.015C4.4377 46.9323 3.99622 46.6637 3.87631 46.23C3.74965 45.7716 3.82068 45.3576 4.19163 44.3923L4.44574 43.7311L6.43157 43.7477L8.41734 43.7643L8.69634 43.9138C9.25187 44.2113 9.60268 44.7173 9.80964 45.5196C9.97865 46.1748 9.87917 46.6278 9.52066 46.8357C9.42167 46.8931 9.16427 46.9664 8.94872 46.9985L8.55684 47.057V47.3024V47.5479H11.8769H15.1969V47.3009V47.0539L14.904 47.0171C14.4848 46.9643 13.9719 46.7007 13.7508 46.4243C13.4771 46.0821 13.0919 45.2309 10.5879 39.4348L8.30575 34.1523L7.84401 34.1518C7.39142 34.1513 7.38116 34.1543 7.32413 34.3055ZM31.825 34.3958V34.6401L32.118 34.6747C32.5613 34.727 32.9899 34.9706 33.2053 35.2928C33.5377 35.7901 33.5269 35.6023 33.5269 40.9056V45.7822L33.3997 46.0594C33.3297 46.2119 33.2068 46.423 33.1266 46.5286C32.9523 46.7582 32.5003 46.9787 32.1083 47.0253L31.825 47.059V47.3034V47.5479H35.2288H38.6325V47.3035V47.0591L38.3191 47.0266C37.9212 46.9853 37.4455 46.7531 37.2608 46.5098C37.1821 46.4062 37.0634 46.1874 36.997 46.0238C36.8839 45.7448 36.8752 45.6172 36.8581 43.9862L36.8399 42.2462L37.6774 41.4648C38.138 41.0351 38.535 40.6779 38.5597 40.6711C38.6165 40.6554 41.2818 45.015 41.504 45.4871C41.6128 45.7182 41.6768 45.9543 41.6912 46.1774C41.7107 46.4803 41.6971 46.5356 41.5636 46.695C41.4093 46.8791 40.9959 47.0434 40.6869 47.0434C40.5378 47.0434 40.5297 47.0564 40.5297 47.2956V47.5479H44.1287H47.7277V47.308V47.0682L47.3511 47.0085C46.6309 46.8944 45.9668 46.4387 45.4123 45.6782C45.2742 45.4888 44.2085 43.7825 43.0441 41.8866L40.9271 38.4393L41.0492 38.3064C41.2545 38.083 43.38 36.1526 43.766 35.8389C44.5197 35.2264 45.4423 34.7632 46.0841 34.6748L46.3328 34.6405V34.3959V34.1513H43.7939H41.2551V34.4035C41.2551 34.6299 41.2683 34.6558 41.3844 34.6558C41.4556 34.6558 41.642 34.694 41.7987 34.7408C42.5908 34.9771 42.5588 35.7388 41.7201 36.614C41.5103 36.8328 40.3344 37.9296 39.1068 39.0512L36.8748 41.0905L36.86 38.6439C36.846 36.3391 36.8516 36.1759 36.956 35.8295C37.1681 35.1263 37.5995 34.7596 38.3117 34.6774L38.6325 34.6404V34.3958V34.1513H35.2288H31.825V34.3958ZM54.0656 39.6865C52.8741 42.7309 51.7985 45.4181 51.6755 45.6582C51.254 46.4802 50.7874 46.8528 50.0015 46.9948L49.6249 47.0628V47.3053V47.5479H51.9964H54.3678V47.3011V47.0544L54.0191 47.0163C53.522 46.9619 53.2865 46.8829 53.0585 46.6941C52.7794 46.463 52.6857 46.2511 52.684 45.8469C52.6822 45.4308 52.7878 45.0063 53.0695 44.2968L53.2809 43.7643L55.1466 43.7495C57.237 43.733 57.3685 43.7502 57.8442 44.1033C58.3967 44.5133 58.7706 45.4544 58.7276 46.3268C58.7235 46.4105 58.646 46.5638 58.5554 46.6675C58.3865 46.8607 58.1668 46.9509 57.7018 47.018L57.4368 47.0561V47.302V47.5479H60.7289H64.021V47.3053V47.0628L63.6506 46.9942C62.8431 46.8448 62.5255 46.5213 61.9796 45.2928C61.839 44.9762 60.7243 42.4093 59.5024 39.5884C58.2806 36.7676 57.2492 34.3903 57.2104 34.3055C57.1419 34.1557 57.1269 34.1513 56.6859 34.1513H56.2318L54.0656 39.6865ZM66.3088 34.4035C66.3088 34.6428 66.3169 34.6558 66.466 34.6558C66.7584 34.6558 67.2059 34.8281 67.4214 35.0238C67.6914 35.2688 67.8574 35.6553 67.931 36.21C67.9683 36.4906 67.9822 38.2913 67.9703 41.27C67.9498 46.4093 67.9607 46.2607 67.5759 46.6705C67.3732 46.8865 66.9412 47.0434 66.5497 47.0434H66.3088V47.2956V47.5479H68.485H70.6611V47.2956V47.0434H70.388C70.2378 47.0434 69.9547 46.9937 69.7589 46.9329C69.2265 46.7678 68.9567 46.4438 68.8239 45.8102C68.7595 45.5028 68.7015 36.4457 68.764 36.4524C68.7793 36.4541 70.7522 38.9449 73.1482 41.9877L77.5046 47.5199L78.0987 47.5358L78.6928 47.5516L78.7084 41.6502C78.7228 36.2101 78.7316 35.7299 78.8205 35.5069C79.0434 34.9482 79.3612 34.7292 80.031 34.6728L80.4259 34.6395V34.3954V34.1513H78.2498H76.0736V34.3954V34.6396L76.4347 34.6734C77.3698 34.7612 77.7998 35.2152 77.9169 36.2388C77.9793 36.7835 77.9902 42.2806 77.9289 42.2753C77.906 42.2733 76.4307 40.4458 74.6507 38.2142L71.4144 34.1569L68.8616 34.1541L66.3088 34.1513V34.4035ZM83.8855 34.3912V34.631L84.2791 34.6932C84.9791 34.804 85.3838 35.172 85.5998 35.8945C85.679 36.1592 85.6931 36.7356 85.7127 40.4853C85.7377 45.2631 85.7209 45.6172 85.4418 46.192C85.1904 46.71 84.6534 47.0434 84.0706 47.0434C83.8884 47.0434 83.8855 47.0473 83.8855 47.2959V47.5484L89.7858 47.5341L95.686 47.5199L95.806 45.8663C95.872 44.9569 95.941 44.0299 95.9592 43.8064L95.9924 43.4H95.6958H95.3993L95.2147 43.8904C94.5617 45.6267 93.7725 46.5306 92.7129 46.7563C92.53 46.7952 91.7478 46.8192 90.6618 46.8192H88.9063L88.9208 44.0306L88.9353 41.242L89.3812 41.2254C89.9632 41.2037 90.6921 41.2954 90.9877 41.4277C91.4846 41.6499 91.8605 42.2377 91.9747 42.971C92.0831 43.667 92.0591 43.6242 92.3401 43.6242H92.5901V40.8496V38.075H92.3401C92.0603 38.075 92.0905 38.0207 91.9768 38.7281C91.8989 39.2124 91.6663 39.7207 91.4112 39.9639C91.0805 40.279 90.7615 40.3799 89.8857 40.446C89.4517 40.4788 89.054 40.4892 89.002 40.4692C88.9148 40.4356 88.9074 40.2143 88.9074 37.6563V34.88H90.3802C91.7179 34.88 91.8877 34.8908 92.2317 34.9975C92.642 35.1248 92.771 35.1948 93.135 35.488C93.6169 35.876 94.1317 36.7133 94.519 37.7387L94.699 38.2151L94.9837 38.232L95.2685 38.249L95.268 38.0359C95.2676 37.8117 95.0735 35.1024 95.0148 34.5016L94.9806 34.1513H89.433H83.8855V34.3912ZM99.9556 34.3958V34.6401L100.235 34.6733C100.576 34.7139 100.993 34.8933 101.192 35.0847C101.421 35.3048 101.626 35.8259 101.689 36.348C101.725 36.638 101.74 38.4635 101.729 41.1859C101.712 45.5295 101.711 45.5604 101.588 45.9247C101.369 46.5752 100.913 46.945 100.231 47.0263L99.9556 47.059V47.3034V47.5479H105.831H111.707L111.833 45.7962C111.903 44.8329 111.974 43.8996 111.992 43.7223L112.024 43.4H111.716H111.408L111.229 43.9153C110.889 44.893 110.416 45.6904 109.903 46.1483C109.757 46.2792 109.448 46.4774 109.218 46.5888L108.8 46.7912L106.889 46.8091L104.978 46.827L104.978 41.5121C104.979 35.72 104.971 35.8644 105.297 35.3355C105.51 34.989 105.873 34.7718 106.369 34.6932L106.763 34.631V34.3912V34.1513H103.359H99.9556V34.3958ZM114.91 34.3957V34.6401L115.212 34.6715C116.143 34.7679 116.582 35.2972 116.699 36.462C116.736 36.8348 116.751 38.5931 116.739 41.3027C116.72 45.5105 116.718 45.5621 116.597 45.9247C116.377 46.5853 115.911 46.9553 115.209 47.028L114.91 47.0591V47.3035V47.5479H118.341H121.773V47.3035V47.0591L121.46 47.0266C120.801 46.9583 120.334 46.5861 120.114 45.9554C120.022 45.6906 120.015 45.3243 120.015 40.8496C120.015 35.3998 119.994 35.6753 120.455 35.17C120.726 34.8742 121.02 34.7292 121.457 34.6777L121.773 34.6404V34.3958V34.1513H118.341H114.91V34.3957ZM7.70591 40.5298C8.26602 41.8162 8.72424 42.9 8.72424 42.9382C8.72424 42.9921 8.27974 43.0076 6.7374 43.0076C4.86875 43.0076 4.75269 43.0018 4.78639 42.9095C5.07978 42.1063 6.63088 38.1876 6.65488 38.1889C6.67284 38.19 7.1458 39.2434 7.70591 40.5298ZM56.5945 40.6364C57.1498 41.9064 57.6042 42.9595 57.6042 42.9766C57.6042 42.9937 56.7128 43.0076 55.6233 43.0076C54.0647 43.0076 53.6424 42.9925 53.6424 42.9368C53.6424 42.8711 55.3995 38.3349 55.4682 38.2231C55.5112 38.1532 55.4726 38.0703 56.5945 40.6364ZM57.3427 56.7853C56.773 56.9895 56.36 57.3746 56.2051 57.8461C56.0293 58.3809 56.29 59.0872 56.7795 59.403C57.0721 59.5918 57.0945 59.6323 56.935 59.6832C56.6928 59.7603 56.2766 60.1564 56.1326 60.4466C55.6696 61.3801 56.288 62.3468 57.4368 62.4853C57.8308 62.5328 58.4612 62.4028 58.8392 62.1961C59.5232 61.8222 59.8783 60.9704 59.6678 60.2089C59.5893 59.9251 59.2366 59.5458 58.8662 59.347C58.694 59.2545 58.553 59.1605 58.5529 59.1382C58.5529 59.1159 58.6218 59.0616 58.7062 59.0176C59.1294 58.7972 59.4978 58.2534 59.5001 57.8458C59.5041 57.1655 58.9824 56.7372 58.1063 56.7011C57.7479 56.6864 57.5614 56.7069 57.3427 56.7853ZM62.8102 56.7888C62.0858 57.0403 61.6266 57.5978 61.6266 58.2259C61.6266 58.6812 61.9108 59.1989 62.2894 59.4336C62.4116 59.5092 62.5121 59.587 62.513 59.6064C62.5138 59.6258 62.4373 59.6737 62.3431 59.713C62.2488 59.7522 62.0639 59.8925 61.9322 60.0247C61.1466 60.8139 61.3476 61.899 62.362 62.3446C63.0859 62.6626 64.2542 62.4239 64.7499 61.8568C65.155 61.3933 65.311 60.6549 65.1136 60.1356C65.004 59.8474 64.6355 59.4844 64.2731 59.3075C64.1345 59.2398 64.022 59.1706 64.0232 59.1536C64.0243 59.1367 64.1572 59.0308 64.3183 58.9185C64.7478 58.6193 64.9329 58.3228 64.9557 57.8977C64.9781 57.4794 64.8372 57.1917 64.4949 56.9569C64.0778 56.6707 63.3574 56.5989 62.8102 56.7888ZM58.2157 57.0555C58.4715 57.2717 58.5616 57.4923 58.5886 57.9683C58.6086 58.3235 58.5911 58.4452 58.483 58.7024C58.3988 58.9025 58.3221 59.0083 58.2643 59.0039C58.0992 58.9915 57.5639 58.5907 57.4052 58.3608C57.1976 58.0598 57.1486 57.5431 57.3008 57.2592C57.4966 56.8938 57.9143 56.8008 58.2157 57.0555ZM63.7425 57.1202C64.0734 57.4525 64.1696 58.0321 63.993 58.6294C63.8671 59.055 63.7985 59.0868 63.4667 58.8729C62.8908 58.5016 62.6462 58.0862 62.6961 57.5642C62.7188 57.3268 62.7565 57.2494 62.925 57.0943C63.2132 56.829 63.4604 56.8368 63.7425 57.1202ZM52.6426 58.6914C52.1388 59.0519 51.7161 59.3785 51.7034 59.417C51.6871 59.4661 51.7549 59.4871 51.9297 59.4871C52.0923 59.4871 52.2252 59.5244 52.311 59.5943C52.4409 59.6999 52.4427 59.7162 52.4427 60.7392C52.4427 61.9464 52.4136 62.0313 51.9501 62.1735C51.8068 62.2175 51.6895 62.2742 51.6895 62.2996C51.6895 62.325 52.2921 62.3458 53.0286 62.3458C54.2416 62.3458 54.5435 62.3134 54.2795 62.2116C54.231 62.1929 54.1451 62.1776 54.0885 62.1776C54.032 62.1776 53.9085 62.1 53.8141 62.0051L53.6424 61.8327V59.9312C53.6424 58.8854 53.6236 58.0311 53.6006 58.0327C53.5776 58.0344 53.1465 58.3308 52.6426 58.6914ZM68.4636 58.1445C68.3445 58.1746 68.0996 58.2781 67.9195 58.3746C66.9048 58.9179 66.5057 60.1847 67.0111 61.2578C67.4093 62.1033 68.396 62.6191 69.3095 62.4593C70.043 62.331 70.6737 61.85 70.9859 61.1809C71.1168 60.9002 71.1354 60.7907 71.1354 60.2999C71.1354 59.786 71.1206 59.7079 70.9576 59.3624C70.6079 58.6208 69.9149 58.1492 69.1183 58.1109C68.8774 58.0993 68.5828 58.1145 68.4636 58.1445ZM69.3203 58.4493C70.1369 58.8735 70.2132 61.4961 69.426 62.0807C69.3451 62.1408 69.1693 62.202 69.0354 62.2167C68.3575 62.2914 67.9206 61.3523 68.0001 59.9916C68.0428 59.2606 68.161 58.9009 68.4559 58.6047C68.6597 58.3999 68.7266 58.366 68.9268 58.366C69.0551 58.366 69.2322 58.4035 69.3203 58.4493ZM57.8553 60.0663C58.4963 60.4915 58.8232 61.1054 58.6651 61.5868C58.5054 62.0729 58.0908 62.3066 57.622 62.1748C57.1782 62.05 56.8788 61.5218 56.8788 60.8639C56.8788 60.5108 56.9435 60.2779 57.131 59.9565L57.2767 59.7068L57.4823 59.831C57.5953 59.8993 57.7632 60.0052 57.8553 60.0663ZM63.445 60.1564C64.0779 60.5986 64.3165 61.1447 64.1021 61.6601C63.9815 61.9501 63.813 62.1132 63.5643 62.1804C62.5896 62.4441 61.9835 61.0309 62.6067 59.9472L62.745 59.7068L62.9506 59.8306C63.0636 59.8988 63.2862 60.0454 63.445 60.1564Z" fill="white"/>
</svg>
