<svg width="123" height="15" viewBox="0 0 123 15" fill="none" xmlns="http://www.w3.org/2000/svg">
<g clip-path="url(#clip0_926_7979)">
<path d="M3.61572 6.37656L5.12923 3.04338L6.51113 0.421143H3.56697L0.771484 6.55917V14.0728H3.294V14.0558H3.30863V9.53932C3.30857 9.50681 3.31769 9.47495 3.33493 9.44739C3.35217 9.41983 3.37685 9.39768 3.40612 9.38349L3.97399 8.9428C4.01487 8.9192 4.06086 8.90583 4.10803 8.90384H6.54525C6.58668 8.90791 6.62666 8.92122 6.66224 8.9428L7.24961 9.3908C7.27442 9.40838 7.29451 9.43179 7.30811 9.45897C7.32171 9.48614 7.3284 9.51625 7.3276 9.54662V13.9681H9.85987V8.21237L7.47383 6.37656H3.61572Z" fill="white"/>
<path d="M20.1505 8.25129L16.2875 0.406494H13.4457L17.6378 8.81615V10.8711C17.6363 10.9029 17.6266 10.9338 17.6095 10.9608C17.5924 10.9877 17.5685 11.0096 17.5403 11.0245L16.9651 11.4749C16.9234 11.4986 16.8766 11.512 16.8286 11.5139H14.7302C14.6887 11.5098 14.6488 11.4965 14.6132 11.4749L14.0258 11.0245C14.001 11.0069 13.9809 10.9835 13.9673 10.9563C13.9537 10.9291 13.947 10.899 13.9478 10.8687V8.80398H11.4277V12.1956L13.8113 14.0314H17.7474L20.153 12.1956V10.8248L20.1505 8.25129Z" fill="white"/>
<path d="M81.4591 8.41707L77.5961 0.574707H74.747L78.939 8.98436V11.0369C78.9386 11.0692 78.9292 11.1009 78.912 11.1283C78.8948 11.1558 78.8705 11.1781 78.8416 11.1927L78.2761 11.6407C78.2344 11.6644 78.1876 11.6778 78.1396 11.6796H76.0412C75.9998 11.6756 75.9598 11.6623 75.9242 11.6407L75.3368 11.1927C75.312 11.1751 75.2919 11.1517 75.2783 11.1245C75.2647 11.0973 75.258 11.0672 75.2588 11.0369V8.97219H72.7363V12.3638L75.1199 14.1996H79.056L81.4616 12.3638V10.9906L81.4591 8.41707Z" fill="white"/>
<path d="M101.559 8.41707L97.6957 0.574707H94.8491L99.0411 8.98436V11.0369C99.0401 11.0691 99.0305 11.1005 99.0134 11.1279C98.9963 11.1553 98.9722 11.1776 98.9436 11.1927L98.3757 11.6407C98.334 11.6644 98.2872 11.6778 98.2392 11.6796H96.1408C96.0994 11.6756 96.0594 11.6623 96.0238 11.6407L95.4364 11.1927C95.4116 11.1751 95.3916 11.1517 95.3779 11.1245C95.3643 11.0973 95.3576 11.0672 95.3585 11.0369V8.97219H92.8359V12.3638L95.2195 14.1996H99.1556L101.561 12.3638V10.9906L101.559 8.41707Z" fill="white"/>
<path d="M28.0801 5.9798L27.4927 6.42779C27.4572 6.44937 27.4172 6.46268 27.3758 6.46675H25.1433C25.1018 6.46268 25.0619 6.44937 25.0263 6.42779L24.4413 5.9798C24.4039 5.94695 24.379 5.90225 24.3707 5.85319V3.53043C24.3724 3.50054 24.3803 3.47132 24.3937 3.44454C24.4071 3.41775 24.4258 3.39396 24.4487 3.3746L25.0336 2.92417C25.0707 2.90444 25.1112 2.89204 25.153 2.88765H27.3782C27.4193 2.89178 27.4591 2.90421 27.4952 2.92417L28.0825 3.3746C28.1208 3.40464 28.1461 3.44822 28.1532 3.49634V5.82154C28.154 5.85225 28.1473 5.8827 28.1337 5.91026C28.1202 5.93783 28.1001 5.96169 28.0752 5.9798H28.0801ZM24.2391 0.367676L21.8457 2.20348V9.26429L24.1806 11.0417L24.2975 11.1391C24.3334 11.1639 24.3603 11.1996 24.3745 11.2408C24.3886 11.282 24.3892 11.3267 24.3761 11.3683C24.3631 11.4099 24.337 11.4462 24.3019 11.472C24.2667 11.4977 24.2242 11.5116 24.1806 11.5116H21.8555V14.034H29.3182V12.2785L28.2629 11.4556L25.4601 8.98672H28.2946L30.6782 7.15092V6.37666V2.20348L28.3116 0.367676H24.2391Z" fill="white"/>
<path d="M85.8094 0.367676L83.4258 2.20348V9.26429L85.7509 11.0417L85.8679 11.1391C85.9037 11.1639 85.9307 11.1996 85.9448 11.2408C85.9589 11.282 85.9595 11.3267 85.9465 11.3683C85.9334 11.4099 85.9074 11.4462 85.8722 11.472C85.837 11.4977 85.7945 11.5116 85.7509 11.5116H83.4258V14.034H90.891V12.2785L89.8357 11.4556L86.0433 8.11508L86.6112 8.52899L86.0239 8.09804C85.9996 8.07562 85.9803 8.04852 85.9668 8.01838C85.9534 7.98825 85.9463 7.95571 85.9459 7.92273V3.54017C85.9517 3.48039 85.9795 3.4249 86.0239 3.38434L86.6112 2.93391C86.6473 2.91395 86.6871 2.90152 86.7282 2.89739H88.9534C88.9952 2.90178 89.0357 2.91418 89.0728 2.93391L89.6577 3.38434C89.6827 3.40177 89.7029 3.42515 89.7165 3.45236C89.7302 3.47958 89.7368 3.50976 89.7357 3.54017V7.45526H92.2583V2.20348L89.8722 0.367676H85.8094Z" fill="white"/>
<path d="M34.7371 0.333496L32.3535 2.1693V14.0412H34.8736V3.49625C34.8732 3.4656 34.8801 3.43529 34.8936 3.40779C34.9072 3.38029 34.927 3.35638 34.9516 3.33799L35.539 2.88999C35.575 2.86954 35.6148 2.8563 35.6559 2.85104H37.8836C37.9247 2.8563 37.9645 2.86954 38.0005 2.88999L38.5855 3.33799C38.6313 3.37875 38.66 3.43526 38.6659 3.49625V14.0412H41.186V2.1693L38.7926 0.333496H34.7371Z" fill="white"/>
<path d="M119.91 0.333496H115.847L113.461 2.1693V14.0412H115.983V3.49625C115.982 3.46714 115.988 3.43812 115.999 3.4115C116.011 3.38487 116.029 3.36137 116.052 3.34286L116.637 2.89486C116.674 2.87466 116.714 2.86145 116.756 2.85591H118.981C119.022 2.86117 119.062 2.87441 119.098 2.89486L119.708 3.34286C119.752 3.38402 119.78 3.44048 119.786 3.50112V14.0412H122.306V2.1693L119.91 0.333496Z" fill="white"/>
<path d="M68.4274 3.53044H65.6026V6.04798H68.4371V10.8907C68.4379 10.9211 68.4312 10.9512 68.4176 10.9784C68.404 11.0056 68.384 11.029 68.3591 11.0465L67.7718 11.4945C67.7362 11.5161 67.6962 11.5294 67.6548 11.5335H65.8464C65.805 11.529 65.7651 11.5158 65.7294 11.4945L65.1445 11.0465C65.1213 11.0272 65.1023 11.0035 65.0885 10.9767C65.0747 10.95 65.0664 10.9207 65.064 10.8907V9.62951H62.5391V12.2055L64.9251 14.0413H68.5639L70.9475 12.2055V0.372559H68.4274V3.53044Z" fill="white"/>
<path d="M109.132 3.53044H106.302V6.04798H109.137V10.8907C109.138 10.9209 109.132 10.9508 109.118 10.978C109.105 11.0052 109.086 11.0287 109.061 11.0465L108.474 11.4945C108.438 11.5158 108.398 11.529 108.357 11.5335H106.546C106.505 11.5294 106.465 11.5161 106.429 11.4945L105.842 11.0465C105.797 11.006 105.77 10.9505 105.764 10.8907V9.62951H103.246V12.2055L105.63 14.0413H109.268L111.664 12.2055V0.372559H109.132V3.53044Z" fill="white"/>
<path d="M52.6141 0.177734H49.7966L49.3872 0.703642C49.3699 0.728874 49.3465 0.74942 49.3193 0.763442C49.2921 0.777463 49.2618 0.784523 49.2312 0.783989C49.1976 0.783572 49.1644 0.776219 49.1338 0.762392C49.1032 0.748565 49.0758 0.728563 49.0533 0.703642L48.6633 0.177734H45.2195L42.8359 2.01354V13.8854H45.356V3.34292C45.3556 3.31262 45.3625 3.28266 45.3761 3.25555C45.3896 3.22844 45.4095 3.20497 45.434 3.1871L46.0214 2.7391C46.057 2.71753 46.0969 2.70421 46.1384 2.70015H47.1401C47.1815 2.70421 47.2215 2.71753 47.257 2.7391L47.8444 3.1871C47.8723 3.21558 47.8939 3.24959 47.9078 3.28692V8.09557H50.4425V3.27962C50.4542 3.24198 50.4771 3.20883 50.5083 3.18466L51.0957 2.73667C51.1312 2.71509 51.1712 2.70178 51.2127 2.69771H52.2144C52.2558 2.70178 52.2958 2.71509 52.3313 2.73667L52.9285 3.18466C52.9728 3.22522 53.0006 3.28071 53.0064 3.34049V13.8854H55.5265V2.01354L53.1332 0.177734H52.6141Z" fill="white"/>
</g>
<defs>
<clipPath id="clip0_926_7979">
<rect width="121.522" height="14.0218" fill="white" transform="translate(0.769531 0.176758)"/>
</clipPath>
</defs>
</svg>
