<svg width="250" height="40" viewBox="0 0 250 40" fill="none" xmlns="http://www.w3.org/2000/svg">
<g clip-path="url(#clip0_926_8114)">
<path d="M66.0387 27.3818V28.6851H61.3054L57.5668 21.8253H54.8744V26.9702L57.5154 27.3132V28.6165H49.4894L49.3351 27.759L51.7189 26.8673V12.7532L49.7981 12.5646V11.2098L57.7383 11.0383C59.4694 10.9595 61.1737 11.4872 62.5573 12.5303C63.1421 12.9721 63.6145 13.5455 63.9363 14.204C64.2581 14.8625 64.4202 15.5875 64.4095 16.3203C64.3876 17.3983 64.0277 18.4421 63.3805 19.3043C62.7036 20.2271 61.7658 20.926 60.6881 21.3108L64.2723 27.1417L66.0387 27.3818ZM54.8572 19.8188C55.5304 19.9455 56.2131 20.0144 56.898 20.0246C57.4616 20.084 58.0314 20.0196 58.5675 19.836C59.1037 19.6523 59.5933 19.3538 60.0021 18.9614C60.617 18.2213 60.9403 17.2821 60.911 16.3203C60.9597 15.6318 60.8114 14.9436 60.4834 14.3362C60.1555 13.7288 59.6613 13.2273 59.0588 12.8904L54.8572 13.2849V19.8188ZM75.2137 10.7296C76.3646 10.6996 77.5083 10.9203 78.5655 11.3763C79.6227 11.8324 80.568 12.5129 81.336 13.3706C82.9882 15.2637 83.848 17.7202 83.737 20.2304C83.8528 22.6464 83.0152 25.0113 81.4046 26.8158C80.6329 27.6274 79.6965 28.2646 78.6583 28.6846C77.6201 29.1046 76.5041 29.2977 75.3852 29.251C74.2471 29.2869 73.1143 29.0808 72.0618 28.6462C71.0093 28.2116 70.0611 27.5585 69.2799 26.7301C67.6349 24.9214 66.7719 22.5357 66.879 20.0932C66.7769 17.6245 67.6167 15.2091 69.2285 13.3363C69.9728 12.4881 70.8951 11.8146 71.9297 11.364C72.9643 10.9134 74.0857 10.6968 75.2137 10.7296ZM72.5898 13.182C71.8229 13.8622 71.2691 14.7496 70.9949 15.7373C70.5837 16.9875 70.3809 18.2969 70.3947 19.613C70.3009 21.5324 70.8237 23.4314 71.8867 25.0323C72.3297 25.6787 72.9274 26.204 73.6253 26.5604C74.3232 26.9168 75.0991 27.0931 75.8825 27.0731C76.4619 27.0645 77.038 26.9839 77.5974 26.833C78.4403 26.1702 79.0719 25.2763 79.4153 24.2605C79.897 22.9901 80.1355 21.6404 80.1184 20.2819C80.2073 18.3571 79.6981 16.452 78.6607 14.8283C78.2531 14.1929 77.6925 13.6699 77.0303 13.3074C76.3682 12.9448 75.6256 12.7543 74.8707 12.7532C74.0911 12.7614 73.3191 12.9066 72.5898 13.182ZM94.8155 10.7296C95.9627 10.692 97.1043 10.9041 98.1614 11.3513C99.2185 11.7984 100.166 12.4698 100.938 13.3192C102.592 15.2113 103.452 17.6685 103.339 20.179C103.455 22.595 102.617 24.9598 101.006 26.7644C100.239 27.5853 99.3051 28.232 98.2666 28.661C97.2282 29.09 96.1098 29.2912 94.987 29.251C93.8489 29.2869 92.7162 29.0808 91.6637 28.6462C90.6112 28.2116 89.663 27.5585 88.8818 26.7301C87.2368 24.9214 86.3737 22.5357 86.4809 20.0932C86.3787 17.6245 87.2186 15.2091 88.8304 13.3363C89.5746 12.4881 90.497 11.8146 91.5316 11.364C92.5662 10.9134 93.6875 10.6968 94.8155 10.7296ZM92.1916 13.1991C91.4255 13.88 90.8718 14.7671 90.5967 15.7544C90.1892 16.9997 89.9865 18.3028 89.9965 19.613C89.9028 21.5324 90.4256 23.4314 91.4885 25.0323C91.9316 25.6787 92.5292 26.204 93.2271 26.5604C93.925 26.9168 94.701 27.0931 95.4844 27.0731C96.0637 27.0644 96.6398 26.9837 97.1993 26.833C98.0421 26.1702 98.6738 25.2763 99.0171 24.2605C99.5059 22.9916 99.7503 21.6416 99.7374 20.2819C99.8252 18.3572 99.3161 16.4525 98.2797 14.8283C97.8817 14.2073 97.3374 13.6934 96.6946 13.3316C96.0517 12.9698 95.33 12.7713 94.5926 12.7532C93.79 12.7533 92.994 12.8985 92.2431 13.182L92.1916 13.1991ZM127.828 27.4332V28.6851H119.974L119.819 27.8276C120.531 27.4513 121.271 27.1302 122.032 26.8673V18.4983L122.409 13.9709L117.264 28.1878L114.572 28.8052L109.255 14.0395L109.701 18.4297L109.513 27.0045L111.776 27.3818V28.6337H104.745L104.591 27.7762C105.355 27.4008 106.139 27.0687 106.94 26.7815L107.386 12.8561L105.174 12.4446V11.2612H111.399L116.338 25.0837L121.346 11.2612H126.954L127.108 12.1187C126.44 12.4756 125.739 12.7685 125.016 12.9933L125.256 26.9702L127.828 27.4332ZM142.028 23.969C142.051 24.6898 141.908 25.4063 141.611 26.0633C141.314 26.7204 140.87 27.3005 140.313 27.759C139.042 28.7638 137.456 29.2863 135.837 29.2339C134.729 29.2214 133.627 29.0599 132.562 28.7537C131.564 28.5198 130.629 28.0754 129.818 27.4504V26.4728C129.806 25.2239 129.921 23.9771 130.161 22.7514H131.876L132.733 26.2842C133.952 26.9855 135.341 27.3357 136.746 27.296H137.329C137.799 27.0796 138.193 26.7266 138.459 26.2829C138.725 25.8393 138.851 25.3258 138.821 24.8093C138.782 24.2597 138.591 23.7316 138.271 23.2836C137.95 22.8356 137.511 22.4852 137.003 22.2712L132.784 20.1104C131.966 19.7328 131.266 19.1385 130.762 18.3919C130.257 17.6452 129.966 16.7746 129.921 15.8745C129.908 15.1607 130.07 14.4545 130.393 13.8178C130.715 13.1811 131.189 12.633 131.773 12.2216C133.128 11.2134 134.783 10.6881 136.472 10.7296C138.12 10.761 139.753 11.0563 141.308 11.6042C141.371 13.1987 141.233 14.7948 140.896 16.3546H139.181L138.667 13.5764C137.589 12.9721 136.369 12.6699 135.134 12.7018H134.328C133.929 12.9336 133.601 13.2704 133.38 13.6756C133.16 14.0809 133.054 14.5389 133.076 14.9998C133.076 15.9488 133.716 16.7605 134.997 17.4351L139.01 19.4072C139.891 19.8069 140.641 20.4469 141.175 21.2538C141.709 22.0607 142.005 23.0018 142.028 23.969ZM170.959 27.3818V28.6851H163.19L163.036 27.8276L165.3 26.8673V21.0193H157.308V27.0388L159.846 27.3646V28.668H151.958L151.786 27.8105L154.067 26.8501V12.7532L152.009 12.4446V11.1755H159.418L159.572 12.033C158.841 12.4055 158.084 12.7264 157.308 12.9933V18.9271H165.248V12.7532L163.19 12.4446V11.1755H170.599L170.753 12.033C170.022 12.4057 169.266 12.7266 168.49 12.9933V27.0388L170.959 27.3818ZM179.482 10.7296C180.634 10.6985 181.778 10.9186 182.835 11.3747C183.892 11.8308 184.838 12.5119 185.605 13.3706C187.259 15.2628 188.119 17.72 188.006 20.2304C188.12 22.6461 187.282 25.0103 185.673 26.8158C184.906 27.6367 183.972 28.2835 182.934 28.7125C181.895 29.1414 180.777 29.3426 179.654 29.3025C178.501 29.3417 177.352 29.1323 176.287 28.6884C175.222 28.2446 174.264 27.5767 173.48 26.7301C171.837 24.9205 170.974 22.5354 171.079 20.0932C170.991 17.6176 171.85 15.2014 173.48 13.3363C174.226 12.4858 175.151 11.811 176.189 11.3603C177.227 10.9096 178.352 10.6942 179.482 10.7296ZM176.91 13.182C176.099 13.846 175.502 14.7351 175.195 15.7373C174.782 16.993 174.579 18.3083 174.595 19.6302C174.5 21.5497 175.023 23.449 176.087 25.0494C176.53 25.6958 177.128 26.2211 177.826 26.5775C178.523 26.934 179.299 27.1102 180.083 27.0902C180.662 27.0813 181.238 27.0007 181.798 26.8501C182.64 26.1866 183.271 25.293 183.616 24.2777C184.098 23.0076 184.337 21.6577 184.319 20.299C184.408 18.3743 183.898 16.4692 182.861 14.8455C182.455 14.2069 181.896 13.6805 181.233 13.3149C180.571 12.9493 179.827 12.7562 179.071 12.7532C178.332 12.7751 177.602 12.92 176.91 13.182ZM205.687 11.0383V11.7243C205.679 13.1954 205.553 14.6636 205.31 16.1145H203.492L203.149 13.0962L199.204 12.8904V27.0045L202.12 27.3818V28.6851H193.322L193.168 27.8276L195.123 27.0731L195.98 26.7815V12.8904L192.07 13.0962L191.727 16.1145H190.012C189.768 14.7214 189.642 13.3101 189.635 11.8958V11.0383L197.712 11.1412C200.525 11.1526 203.183 11.1183 205.687 11.0383ZM220.092 23.6432C220.133 25.3358 220.024 27.0288 219.767 28.7023H206.562L206.407 27.8448L208.688 26.8844V12.7532L206.767 12.5646V11.2269H219.784V11.9815C219.776 13.3163 219.649 14.6477 219.406 15.9602H217.554L217.16 13.3878L211.844 13.0448V19.0986L217.812 18.6184V21.1393L211.844 20.8993V26.7301L217.383 26.4042L218.189 23.5231L220.092 23.6432ZM235.904 22.94C235.968 24.8615 235.853 26.7848 235.561 28.6851H221.842L221.687 27.8276L223.951 26.8673V12.7532L221.893 12.4446V11.1755H229.302L229.456 12.033C228.724 12.4042 227.968 12.725 227.192 12.9933V26.7129L233.092 26.3356L233.966 22.9057L235.904 22.94ZM248.938 23.969C248.962 24.69 248.82 25.4069 248.523 26.0641C248.225 26.7214 247.781 27.3013 247.223 27.759C245.952 28.7638 244.366 29.2863 242.747 29.2339C241.639 29.2214 240.537 29.0599 239.471 28.7537C238.474 28.5208 237.538 28.0763 236.727 27.4504V26.4728C236.713 25.2239 236.828 23.9768 237.07 22.7514H238.785L239.643 26.2842C240.861 26.9855 242.25 27.3357 243.656 27.296H244.239C244.709 27.0796 245.103 26.7266 245.369 26.2829C245.635 25.8393 245.761 25.3258 245.731 24.8093C245.692 24.2597 245.501 23.7316 245.18 23.2836C244.86 22.8356 244.421 22.4852 243.913 22.2712L239.694 20.1104C238.872 19.7065 238.179 19.0821 237.691 18.3068C237.204 17.5315 236.941 16.6359 236.933 15.7201C236.908 15.0211 237.05 14.3261 237.348 13.6935C237.647 13.0609 238.092 12.5091 238.648 12.0844C240.007 11.1358 241.64 10.6598 243.296 10.7296C244.944 10.761 246.577 11.0563 248.132 11.6042C248.216 13.1901 248.101 14.7803 247.789 16.3375H246.074L245.508 13.5078C244.461 12.9213 243.278 12.6197 242.078 12.6332H241.272C240.874 12.8664 240.548 13.2036 240.327 13.6084C240.107 14.0133 240 14.4706 240.02 14.9312C240.02 15.8802 240.66 16.6919 241.941 17.3665L245.902 19.3043C246.802 19.7089 247.567 20.3637 248.105 21.1908C248.644 22.0179 248.933 22.9823 248.938 23.969ZM19.7351 2.41211C16.2788 2.41211 12.9001 3.43702 10.0263 5.35723C7.15252 7.27744 4.91267 10.0067 3.59 13.1999C2.26734 16.3931 1.92127 19.9068 2.59556 23.2967C3.26985 26.6866 4.93421 29.8004 7.37818 32.2443C9.82214 34.6883 12.9359 36.3527 16.3258 37.027C19.7157 37.7013 23.2294 37.3552 26.4226 36.0325C29.6158 34.7099 32.3451 32.47 34.2653 29.5962C36.1855 26.7224 37.2104 23.3437 37.2104 19.8874C37.2104 15.2527 35.3693 10.8078 32.092 7.53051C28.8148 4.25325 24.3698 2.41211 19.7351 2.41211ZM24.0396 28.5136H15.4649L17.7801 19.4072C16.9346 18.9615 16.2615 18.2471 15.8669 17.3765C15.4724 16.506 15.3787 15.5289 15.6008 14.5993C15.8229 13.6697 16.3481 12.8404 17.0935 12.2422C17.839 11.6441 18.7623 11.311 19.7179 11.2955H19.838C20.7936 11.311 21.717 11.6441 22.4624 12.2422C23.2079 12.8404 23.733 13.6697 23.9551 14.5993C24.1772 15.5289 24.0836 16.506 23.689 17.3765C23.2944 18.2471 22.6214 18.9615 21.7759 19.4072L24.0396 28.5136Z" fill="white"/>
<path d="M19.7362 39.3683C15.8871 39.3683 12.1245 38.2271 8.92395 36.0891C5.72337 33.9511 3.22853 30.9121 1.75479 27.3564C0.281055 23.8007 -0.105411 19.8879 0.644249 16.1126C1.39391 12.3373 3.24604 8.86897 5.9665 6.1461C8.68697 3.42324 12.1536 1.56806 15.9283 0.815075C19.7029 0.062091 23.6161 0.44511 27.1731 1.91572C30.7301 3.38632 33.7712 5.87849 35.9121 9.07718C38.053 12.2759 39.1974 16.0375 39.2008 19.8865C39.2031 22.4441 38.7013 24.977 37.7241 27.3406C36.7469 29.7041 35.3135 31.8519 33.5058 33.6612C31.6981 35.4705 29.5516 36.9057 27.1889 37.885C24.8262 38.8643 22.2937 39.3683 19.7362 39.3683ZM19.7362 1.63944C16.126 1.63945 12.5969 2.70934 9.59447 4.71397C6.59206 6.7186 4.25108 9.56805 2.86721 12.9024C1.48333 16.2368 1.11865 19.9064 1.81922 23.4479C2.51979 26.9894 4.25418 30.2439 6.80333 32.8002C9.35248 35.3565 12.602 37.1001 16.1415 37.8106C19.6811 38.5211 23.3518 38.1668 26.69 36.7923C30.0282 35.4178 32.8842 33.0848 34.8973 30.0881C36.9104 27.0913 37.9902 23.5652 38.0004 19.9551C38.0049 17.5521 37.536 15.1717 36.6206 12.9499C35.7052 10.7281 34.3611 8.7084 32.6651 7.00604C30.9691 5.30368 28.9544 3.95204 26.7361 3.0283C24.5177 2.10455 22.1391 1.62679 19.7362 1.62229V1.63944Z" fill="white"/>
</g>
<defs>
<clipPath id="clip0_926_8114">
<rect width="248.753" height="38.9293" fill="white" transform="translate(0.275391 0.4375)"/>
</clipPath>
</defs>
</svg>
