<svg width="56" height="73" viewBox="0 0 56 73" fill="none" xmlns="http://www.w3.org/2000/svg">
<g clip-path="url(#clip0_926_7967)">
<path d="M1.1289 41.3536V1.16186H55.117V41.3536V41.354V41.3544V41.3547V41.3551V41.3555V41.3559V41.3562V41.3566V41.357V41.3573V41.3577V41.3581V41.3584V41.3588V41.3592V41.3596V41.3599V41.3603V41.3607V41.361V41.3614V41.3618V41.3622V41.3625V41.3629V41.3633V41.3636V41.364V41.3644V41.3648V41.3651V41.3655V41.3659V41.3662V41.3666V41.367V41.3674V41.3677V41.3681V41.3685V41.3689V41.3692V41.3696V41.37V41.3703V41.3707V41.3711V41.3715V41.3718V41.3722V41.3726V41.373V41.3733V41.3737V41.3741V41.3745V41.3748V41.3752V41.3756V41.3759V41.3763V41.3767V41.3771V41.3774V41.3778V41.3782V41.3786V41.3789V41.3793V41.3797V41.3801V41.3804V41.3808V41.3812V41.3816V41.3819V41.3823V41.3827V41.3831V41.3834V41.3838V41.3842V41.3846V41.3849V41.3853V41.3857V41.3861V41.3865V41.3868V41.3872V41.3876V41.388V41.3883V41.3887V41.3891V41.3895V41.3898V41.3902V41.3906V41.391V41.3913V41.3917V41.3921V41.3925V41.3928V41.3932V41.3936V41.394V41.3944V41.3947V41.3951V41.3955V41.3959V41.3962V41.3966V41.397V41.3974V41.3978V41.3981V41.3985V41.3989V41.3993V41.3996V41.4V41.4004V41.4008V41.4012V41.4015V41.4019V41.4023V41.4027V41.403V41.4034V41.4038V41.4042V41.4046V41.4049V41.4053V41.4057V41.4061V41.4065V41.4068V41.4072V41.4076V41.408V41.4083V41.4087V41.4091V41.4095V41.4099V41.4102V41.4106V41.411V41.4114V41.4118V41.4121V41.4125V41.4129V41.4133V41.4137V41.414V41.4144V41.4148V41.4152V41.4156V41.4159V41.4163V41.4167V41.4171V41.4174V41.4178V41.4182V41.4186V41.419V41.4193V41.4197V41.4201V41.4205V41.4209V41.4212V41.4216V41.422V41.4224V41.4228V41.4231V41.4235V41.4239V41.4243V41.4247V41.425V41.4254V41.4258V41.4262V41.4266V41.4269V41.4273V41.4277V41.4281V41.4285V41.4288V41.4292V41.4296V41.43V41.4304V41.4308V41.4311V41.4315V41.4319V41.4323V41.4327V41.433V41.4334V41.4338V41.4342V41.4346V41.4349V41.4353V41.4357V41.4361V41.4365V41.4368V41.4372V41.4376V41.438V41.4384V41.4387V41.4391V41.4395V41.4399V41.4403V41.4407V41.441V41.4414V41.4418V41.4422V41.4426V41.4429V41.4433V41.4437V41.4441V41.4445V41.4448V41.4452V41.4456V41.446V41.4464V41.4467V41.4471V41.4475V41.4479V41.4483V41.4487V41.449V41.4494V41.4498V41.4502V41.4506V41.4509V41.4513V41.4517V41.4521V41.4525V41.4528V41.4532V41.4536V41.454V41.4544V41.4547V41.4551V41.4555V41.4559V41.4563V41.4566V41.457V41.4574V41.4578V41.4582V41.4586V41.4589V41.4593V41.4597V41.4601V41.4605V41.4608V41.4612V41.4616V41.462V41.4624V41.4627V41.4631V41.4635V41.4639V41.4643V41.4646V41.465V41.4654V41.4658V41.4662V41.4665V41.4669V41.4673V41.4677V41.4681V41.4685V41.4688V41.4692V41.4696V41.47V41.4704V41.4707V41.4711V41.4715V41.4719V41.4723V41.4726V41.473V41.4734V41.4738V41.4742V41.4745V41.4749V41.4753V41.4757V41.4761V41.4764V41.4768V41.4772V41.4776V41.478V41.4783V41.4787V41.4791V41.4795V41.4799V41.4802V41.4806V41.481V41.4814V41.4818V41.4821V41.4825V41.4829V41.4833V41.4837V41.484V41.4844V41.4848V41.4852V41.4856V41.4859V41.4863V41.4867V41.4871V41.4874V41.4878V41.4882V41.4886V41.489V41.4893V41.4897V41.4901V41.4905V41.4909V41.4912V41.4916V41.492V41.4924V41.4928V41.4931V41.4935V41.4939V41.4943V41.4946V41.495V41.4954V41.4958V41.4962V41.4965V41.4969V41.4973V41.4977V41.4981V41.4984V41.4988V41.4992V41.4996V41.4999V41.5003V41.5007V41.5011V41.5015V41.5018V41.5022V41.5026V41.503V41.5033V41.5037V41.5041V41.5045V41.5049V41.5052V41.5056V41.506V41.5064V41.5067V41.5071V41.5075V41.5079V41.5082V41.5086V41.509V41.5094V41.5098V41.5101V41.5105V41.5109V41.5113V41.5116V41.512V41.5124V41.5128V41.5131V41.5135V41.5139V41.5143V41.5146V41.515V41.5154V41.5158V41.5161V41.5165V41.5169V41.5173V41.5177V41.518V41.5184V41.5188V41.5191V41.5195V41.5199V41.5203V41.5207V41.521V41.5214V41.5218V41.5222V41.5225V41.5229V41.5233V41.5236V41.524V41.5244V41.5248V41.5251V41.5255V41.5259V41.5263V41.5266V41.527V41.5274V41.5278V41.5281V41.5285V41.5289V41.5293V41.5296V41.53V41.5304V41.5307V41.5311V41.5315V41.5319V41.5322V41.5326V41.533V41.5334V41.5337V41.5341V41.5345V41.5348V41.5352V41.5356V41.536V41.5363V41.5367V41.5371V41.5374V41.5378V41.5382V41.5386V41.5389V41.5393V41.5397V41.54V41.5404V41.5408V41.5412V41.5415V41.5419V41.5423V41.5426V41.543V41.5434V41.5438V41.5441V41.5445V41.5449V41.5452V41.5456V41.546V41.5463V41.5467C55.117 57.0993 43.4778 67.7785 28.1229 71.971C12.7759 67.7785 1.1289 57.0993 1.1289 41.5467V41.5463V41.546V41.5456V41.5452V41.5449V41.5445V41.5441V41.5438V41.5434V41.543V41.5426V41.5423V41.5419V41.5415V41.5412V41.5408V41.5404V41.54V41.5397V41.5393V41.5389V41.5386V41.5382V41.5378V41.5374V41.5371V41.5367V41.5363V41.536V41.5356V41.5352V41.5348V41.5345V41.5341V41.5337V41.5334V41.533V41.5326V41.5322V41.5319V41.5315V41.5311V41.5307V41.5304V41.53V41.5296V41.5293V41.5289V41.5285V41.5281V41.5278V41.5274V41.527V41.5266V41.5263V41.5259V41.5255V41.5251V41.5248V41.5244V41.524V41.5236V41.5233V41.5229V41.5225V41.5222V41.5218V41.5214V41.521V41.5207V41.5203V41.5199V41.5195V41.5191V41.5188V41.5184V41.518V41.5177V41.5173V41.5169V41.5165V41.5161V41.5158V41.5154V41.515V41.5146V41.5143V41.5139V41.5135V41.5131V41.5128V41.5124V41.512V41.5116V41.5113V41.5109V41.5105V41.5101V41.5098V41.5094V41.509V41.5086V41.5082V41.5079V41.5075V41.5071V41.5067V41.5064V41.506V41.5056V41.5052V41.5049V41.5045V41.5041V41.5037V41.5033V41.503V41.5026V41.5022V41.5018V41.5015V41.5011V41.5007V41.5003V41.4999V41.4996V41.4992V41.4988V41.4984V41.4981V41.4977V41.4973V41.4969V41.4965V41.4962V41.4958V41.4954V41.495V41.4946V41.4943V41.4939V41.4935V41.4931V41.4928V41.4924V41.492V41.4916V41.4912V41.4909V41.4905V41.4901V41.4897V41.4893V41.489V41.4886V41.4882V41.4878V41.4874V41.4871V41.4867V41.4863V41.4859V41.4856V41.4852V41.4848V41.4844V41.484V41.4837V41.4833V41.4829V41.4825V41.4821V41.4818V41.4814V41.481V41.4806V41.4802V41.4799V41.4795V41.4791V41.4787V41.4783V41.478V41.4776V41.4772V41.4768V41.4764V41.4761V41.4757V41.4753V41.4749V41.4745V41.4742V41.4738V41.4734V41.473V41.4726V41.4723V41.4719V41.4715V41.4711V41.4707V41.4704V41.47V41.4696V41.4692V41.4688V41.4685V41.4681V41.4677V41.4673V41.4669V41.4665V41.4662V41.4658V41.4654V41.465V41.4646V41.4643V41.4639V41.4635V41.4631V41.4627V41.4624V41.462V41.4616V41.4612V41.4608V41.4605V41.4601V41.4597V41.4593V41.4589V41.4586V41.4582V41.4578V41.4574V41.457V41.4566V41.4563V41.4559V41.4555V41.4551V41.4547V41.4544V41.454V41.4536V41.4532V41.4528V41.4525V41.4521V41.4517V41.4513V41.4509V41.4506V41.4502V41.4498V41.4494V41.449V41.4487V41.4483V41.4479V41.4475V41.4471V41.4467V41.4464V41.446V41.4456V41.4452V41.4448V41.4445V41.4441V41.4437V41.4433V41.4429V41.4426V41.4422V41.4418V41.4414V41.441V41.4407V41.4403V41.4399V41.4395V41.4391V41.4387V41.4384V41.438V41.4376V41.4372V41.4368V41.4365V41.4361V41.4357V41.4353V41.4349V41.4346V41.4342V41.4338V41.4334V41.433V41.4327V41.4323V41.4319V41.4315V41.4311V41.4308V41.4304V41.43V41.4296V41.4292V41.4288V41.4285V41.4281V41.4277V41.4273V41.4269V41.4266V41.4262V41.4258V41.4254V41.425V41.4247V41.4243V41.4239V41.4235V41.4231V41.4228V41.4224V41.422V41.4216V41.4212V41.4209V41.4205V41.4201V41.4197V41.4193V41.419V41.4186V41.4182V41.4178V41.4174V41.4171V41.4167V41.4163V41.4159V41.4156V41.4152V41.4148V41.4144V41.414V41.4137V41.4133V41.4129V41.4125V41.4121V41.4118V41.4114V41.411V41.4106V41.4102V41.4099V41.4095V41.4091V41.4087V41.4083V41.408V41.4076V41.4072V41.4068V41.4065V41.4061V41.4057V41.4053V41.4049V41.4046V41.4042V41.4038V41.4034V41.403V41.4027V41.4023V41.4019V41.4015V41.4012V41.4008V41.4004V41.4V41.3996V41.3993V41.3989V41.3985V41.3981V41.3978V41.3974V41.397V41.3966V41.3962V41.3959V41.3955V41.3951V41.3947V41.3944V41.394V41.3936V41.3932V41.3928V41.3925V41.3921V41.3917V41.3913V41.391V41.3906V41.3902V41.3898V41.3895V41.3891V41.3887V41.3883V41.388V41.3876V41.3872V41.3868V41.3865V41.3861V41.3857V41.3853V41.3849V41.3846V41.3842V41.3838V41.3834V41.3831V41.3827V41.3823V41.3819V41.3816V41.3812V41.3808V41.3804V41.3801V41.3797V41.3793V41.3789V41.3786V41.3782V41.3778V41.3774V41.3771V41.3767V41.3763V41.3759V41.3756V41.3752V41.3748V41.3745V41.3741V41.3737V41.3733V41.373V41.3726V41.3722V41.3718V41.3715V41.3711V41.3707V41.3703V41.37V41.3696V41.3692V41.3689V41.3685V41.3681V41.3677V41.3674V41.367V41.3666V41.3662V41.3659V41.3655V41.3651V41.3648V41.3644V41.364V41.3636V41.3633V41.3629V41.3625V41.3622V41.3618V41.3614V41.361V41.3607V41.3603V41.3599V41.3596V41.3592V41.3588V41.3584V41.3581V41.3577V41.3573V41.357V41.3566V41.3562V41.3559V41.3555V41.3551V41.3547V41.3544V41.354V41.3536Z" stroke="white" stroke-width="0.394037"/>
<path d="M13.1777 36.2315V33.6703C12.9639 33.4968 12.7922 33.2769 12.6753 33.0271C12.5585 32.7773 12.4995 32.5041 12.503 32.2281V27.5588L18.4221 31.4991C18.758 31.7417 19.1617 31.8713 19.5753 31.8695C19.7778 31.857 19.9751 31.8001 20.1534 31.7027C20.3316 31.6054 20.4864 31.47 20.607 31.3061L26.3731 21.5064C26.8228 20.7617 27.059 19.9067 27.0556 19.0358C27.0582 18.4054 26.9368 17.7807 26.6985 17.1976C26.4601 16.6145 26.1095 16.0844 25.6667 15.6377C25.2239 15.1911 24.6976 14.8366 24.1181 14.5948C23.5386 14.353 22.9173 14.2285 22.2897 14.2285C21.3659 14.2295 20.4629 14.5036 19.693 15.0166C19.6834 14.7814 19.6187 14.5518 19.5042 14.3464C19.3897 14.141 19.2287 13.9656 19.034 13.8345C18.1114 15.4624 17.352 17.1783 16.7668 18.957C16.3129 20.3019 15.9564 21.6781 15.6999 23.0746H17.0139C17.1426 23.0703 17.2682 23.0343 17.3797 22.9697C17.4912 22.9051 17.5852 22.8139 17.6533 22.7042L18.0456 21.8098C18.1535 21.5193 18.3247 21.2568 18.5466 21.0414C18.7685 20.8259 19.0356 20.6631 19.3282 20.5646C19.5518 20.5055 19.7676 20.4661 19.948 20.4109C20.3082 20.2791 20.6197 20.0397 20.8406 19.7248C21.0615 19.41 21.1811 19.0348 21.1836 18.6496C21.3116 18.7153 21.4193 18.8151 21.4947 18.9381C21.5701 19.0611 21.6104 19.2026 21.6111 19.3471C21.5952 19.4824 21.5609 19.615 21.5092 19.7411C21.2592 20.311 20.9289 20.8418 20.5285 21.3172C19.9794 21.9359 19.034 22.8028 19.034 22.8028C18.4457 23.3505 18.1789 23.8588 17.975 24.9069C17.9301 25.5189 17.9697 26.1342 18.0926 26.7352L18.1162 26.8889C18.1155 26.9295 18.104 26.9691 18.083 27.0038C18.062 27.0384 18.0322 27.0668 17.9967 27.0861C17.9611 27.1053 17.9211 27.1147 17.8808 27.1133C17.8404 27.1119 17.8012 27.0997 17.7671 27.0781C17.7082 27.0387 16.3785 26.3806 15.5979 26.0378C14.3858 25.4664 13.0721 25.1448 11.7342 25.0921C11.4433 25.0903 11.162 25.1969 10.9447 25.3912C10.7274 25.5855 10.5894 25.8537 10.5574 26.1442C10.4241 27.4012 10.5339 31.9562 11.2046 33.82C11.4478 34.4899 12.1147 36.1567 13.1934 36.2394" fill="white"/>
<path d="M28.4934 57.912C28.3594 58.058 28.2851 58.2494 28.2855 58.4479C28.2852 58.5595 28.3084 58.6699 28.3537 58.7718C28.399 58.8737 28.4654 58.9648 28.5483 59.039C28.5696 58.8867 28.6348 58.744 28.7359 58.6284C28.837 58.5129 28.9695 58.4296 29.1171 58.3888C29.1171 58.3888 30.1134 58.1209 30.5018 57.9554C30.6598 57.8739 30.8009 57.7629 30.9175 57.6283C31.3043 57.122 31.5833 56.5413 31.7374 55.9221C31.8356 55.5656 31.8974 55.1998 31.9217 54.8307C31.9402 54.2903 31.7817 53.7588 31.4706 53.3176C31.2424 53.0127 30.9516 52.7607 30.6179 52.5785C30.2843 52.3963 29.9156 52.2882 29.5368 52.2615V52.0724C29.9724 52.0036 30.4184 52.0591 30.8242 52.2326C31.2299 52.406 31.5789 52.6905 31.8315 53.0536C32.8739 52.3743 33.8099 51.543 34.6087 50.5869C35.6157 49.2677 36.518 47.8712 37.3074 46.4101C37.7467 45.7087 38.3704 44.633 39.5785 44.6448C40.0138 44.6458 40.431 44.8195 40.7395 45.1279C41.0481 45.4363 41.2229 45.8546 41.226 46.2919C41.226 47.6947 39.5275 49.8855 37.4839 51.6232L36.8327 51.1858C36.4052 51.7296 35.7344 52.5492 35.099 53.2506C34.2242 54.2199 33.424 55.0198 33.424 55.0198C35.4963 54.6628 37.4839 53.9198 39.2843 52.829L38.5469 52.3364C38.7509 52.2221 38.9391 52.1039 39.1549 51.9818C40.7334 51.0143 42.1345 49.7814 43.2971 48.3369C44.3313 47.0175 44.8849 45.3823 44.8661 43.7031C44.8661 42.6873 44.4644 41.7131 43.7494 40.9948C43.0344 40.2765 42.0646 39.873 41.0534 39.873C40.7906 39.873 40.0061 39.9912 39.8766 40.0149V38.2141C39.8649 37.9285 39.7458 37.6579 39.5435 37.4569C39.3412 37.2559 39.0706 37.1392 38.7862 37.1305H37.6996C38.0318 36.2163 38.4702 35.3447 39.0058 34.5338C39.6962 33.529 41.2887 31.6534 42.5361 32.2326C42.6647 32.333 42.7712 32.459 42.8489 32.6028C42.9265 32.7466 42.9736 32.905 42.9872 33.068C43.0496 33.6545 42.952 34.247 42.7048 34.7821C42.6067 35.0342 41.8693 36.173 41.8967 37.1463C41.9087 37.88 42.175 38.5865 42.6499 39.1441C43.25 37.497 44.3719 36.3858 45.7879 35.0894C46.2027 34.7335 46.5372 34.2928 46.7692 33.7968C47.0012 33.3008 47.1253 32.7609 47.1333 32.2129C47.1289 31.6877 46.9853 31.1732 46.7171 30.7222C46.449 30.2713 46.0661 29.9003 45.6078 29.6475C45.1495 29.3946 44.6324 29.269 44.1098 29.2836C43.5871 29.2982 43.0778 29.4525 42.6342 29.7305L40.3591 31.1293C40.2505 31.1878 40.1293 31.2189 40.0061 31.22C39.9005 31.218 39.7964 31.1947 39.7 31.1513C39.6036 31.108 39.5169 31.0456 39.4451 30.9678C38.2684 29.8408 37.0681 27.7052 34.0085 27.4215C34.3414 27.085 34.7816 26.8771 35.2519 26.8343C35.4574 26.8078 35.6645 26.796 35.8717 26.7989L38.8646 26.8619C39.9787 26.8841 41.0732 26.5652 42.0026 25.9478C42.5092 25.6058 42.9267 25.1468 43.2202 24.6093C43.5137 24.0718 43.6745 23.4714 43.6893 22.8585L41.8183 23.8672C41.7855 23.7681 41.7683 23.6644 41.7673 23.5599C41.768 23.3978 41.8093 23.2384 41.8874 23.0965C41.9656 22.9547 42.0781 22.8349 42.2145 22.7482C42.2733 22.7127 44.3954 21.6015 44.7563 21.3296C45.1837 21.0096 45.5305 20.5933 45.7689 20.1143C46.0073 19.6354 46.1307 19.1069 46.1292 18.5714C46.1349 17.8769 45.9251 17.1979 45.529 16.6288C45.4927 17.0427 45.3035 17.428 44.9986 17.7088C44.6937 17.9895 44.2952 18.1455 43.8815 18.1458H34.9303C35.0323 17.8818 35.3226 17.1174 35.4795 16.8573C35.5917 16.6596 35.7693 16.5076 35.9815 16.4278C36.301 16.3016 36.5642 16.0637 36.7229 15.758H36.1855L36.8876 15.0763C36.5229 15.1117 36.1737 14.9305 35.3186 14.5128C34.9906 14.3285 34.6234 14.2258 34.2478 14.2133C34.0351 14.21 33.8275 14.2784 33.6582 14.4078C33.4889 14.5371 33.3678 14.7198 33.3142 14.9265C33.2789 15.0684 33.071 15.7737 33.0004 16.0653C32.8919 16.3792 32.8919 16.7207 33.0004 17.0346C33.0398 17.1435 33.1018 17.2426 33.1823 17.3255C33.2628 17.4084 33.3599 17.4731 33.4672 17.5154L33.3024 17.9094C32.7533 17.7912 31.9296 17.0977 31.145 16.3333L32.8396 13.4725L33.0828 13.445C33.4319 13.3977 33.6359 13.0509 33.7692 12.7987C33.8211 12.7233 33.8452 12.6321 33.8373 12.5407C33.8294 12.4494 33.7901 12.3637 33.7261 12.2983L33.6084 12.1801L34.7067 10.3163L34.1536 9.98926L33.0279 11.8964C32.6908 11.8113 32.3407 11.7912 31.9962 11.8373L27.097 12.5426C27.0415 12.5461 26.9872 12.5606 26.9373 12.5854C26.8875 12.6101 26.843 12.6446 26.8065 12.6868C26.77 12.7289 26.7422 12.7779 26.7247 12.831C26.7073 12.884 26.7005 12.9401 26.7047 12.9958C26.8852 14.2094 27.6265 15.8131 28.8033 17.405L30.1017 15.2339C29.4466 14.5049 28.968 13.9139 28.968 13.9139L32.4042 12.9248L18.2203 36.8232L17.526 36.4291V38.683L19.4598 37.5403L18.7773 37.1463L21.6211 32.3548C21.6705 32.2684 21.7357 32.1922 21.8133 32.1302C21.9196 32.0504 22.0494 32.0088 22.182 32.012C22.3299 32.0143 22.4709 32.0752 22.5743 32.1814C23.7085 33.2297 25.0125 34.0759 26.4302 34.6836C26.8224 34.8609 27.2421 35.0145 27.6501 35.1485C27.6501 35.05 27.6501 34.9476 27.6501 34.849C27.6353 33.7529 27.8997 32.6711 28.418 31.7063C28.9363 30.7415 29.6914 29.9258 30.6116 29.3365L30.7175 29.7936C29.8059 30.5687 29.1531 31.6062 28.8474 32.766C28.5417 33.9257 28.5977 35.1518 29.008 36.2785C29.4182 37.4053 30.1629 38.3784 31.1413 39.0663C32.1198 39.7542 33.2849 40.1238 34.4792 40.1252C34.691 40.1252 37.425 40.0503 37.425 40.0503C37.4465 40.0498 37.4678 40.0536 37.4878 40.0615C37.5077 40.0694 37.5259 40.0812 37.5413 40.0962C37.5567 40.1113 37.5688 40.1293 37.5772 40.1491C37.5855 40.169 37.5898 40.1903 37.5898 40.2119V40.6059C36.5424 40.9797 35.5226 41.4274 34.538 41.9457C32.7258 42.8835 28.8504 45.0231 29.7565 47.1233C29.6466 47.1233 29.5329 47.1233 29.4231 47.1233C29.2474 46.8431 29.16 46.5163 29.172 46.1855C29.172 45.823 29.2622 44.8931 30.5998 43.7425C31.4039 43.045 34.0085 41.2246 34.0085 41.2246C33.8908 41.2246 33.7732 41.2246 33.6476 41.2246C32.3568 41.2221 31.1046 40.782 30.0938 39.9755C30.0938 39.9755 26.9872 42.0678 26.1281 44.5975C25.9652 45.1367 25.9326 45.7071 26.0328 46.2614C26.1331 46.8158 26.3634 47.3382 26.7047 47.7853C26.6067 47.8286 26.5086 47.872 26.4145 47.9232C25.6849 47.1903 24.4179 45.2398 26.5714 42.3397C27.3925 41.2302 28.3673 40.2444 29.4662 39.412C28.5371 38.439 27.9325 37.1995 27.7364 35.8657C25.1726 37.5355 23.3112 40.0956 22.5076 43.0568C21.4407 46.9972 23.6844 48.794 24.6297 49.3339C24.5787 49.393 24.5277 49.456 24.4846 49.5151C23.8711 49.2778 23.3139 48.914 22.8489 48.4473C21.9428 48.534 19.7579 48.5812 17.9065 47.1627C17.489 46.8319 17.158 46.4039 16.942 45.9158C16.7261 45.4277 16.6317 44.8941 16.667 44.3611C16.7408 43.2858 17.1781 42.2682 17.9065 41.4768C17.921 41.4593 17.9389 41.4451 17.9592 41.4349C17.9794 41.4247 18.0015 41.4188 18.0242 41.4176C18.0637 41.4176 18.1016 41.4334 18.1295 41.4615C18.1575 41.4896 18.1732 41.5277 18.1732 41.5674C18.1744 41.5844 18.1744 41.6016 18.1732 41.6186L18.0908 41.9811C18.6949 41.5516 18.6361 40.6178 18.6361 40.5941C18.6327 40.5262 18.612 40.4604 18.5758 40.403C18.5396 40.3455 18.4893 40.2985 18.4297 40.2664C18.3701 40.2342 18.3032 40.2181 18.2356 40.2197C18.168 40.2212 18.1019 40.2402 18.0438 40.2749L14.7881 42.4815L16.2316 37.5206L15.4157 37.4773C15.3469 37.4766 15.2792 37.4941 15.2193 37.528C15.1594 37.5619 15.1095 37.611 15.0744 37.6704L9.38672 46.8357L12.1796 46.0042L11.7206 48.069L13.3328 47.1588C14.9881 51.7611 19.5618 55.0671 24.9474 55.0671C26.316 55.0687 27.6759 54.8506 28.9759 54.4209C28.9966 54.4171 29.0179 54.4171 29.0386 54.4209C29.0915 54.4205 29.1428 54.4382 29.1842 54.4712C29.2256 54.5042 29.2545 54.5504 29.2662 54.6021C29.3044 54.8495 29.2883 55.1024 29.2191 55.3429C29.1642 55.5595 29.0698 55.7639 28.9406 55.9458C28.9041 55.9967 28.8572 56.0391 28.8031 56.0704C28.749 56.1016 28.6889 56.121 28.6268 56.127L26.4262 56.3201C25.9594 56.3643 25.5258 56.5818 25.2102 56.9302C24.8947 57.2785 24.7198 57.7326 24.7199 58.2036C24.7188 58.3549 24.7359 58.5057 24.7709 58.6528C24.9144 58.3501 25.1352 58.0911 25.4108 57.9021C25.6865 57.7132 26.0071 57.601 26.3399 57.5771C26.2181 57.6845 26.1202 57.8166 26.0526 57.9646C25.9851 58.1126 25.9493 58.2733 25.9477 58.4361C25.9554 58.6111 26.0028 58.782 26.0865 58.9357C26.1701 59.0893 26.2877 59.2217 26.4302 59.3227C26.5218 58.9568 26.7201 58.6267 26.9996 58.3747C27.2791 58.1227 27.6272 57.9602 27.9992 57.9081C28.1646 57.8883 28.3319 57.8883 28.4973 57.9081" fill="white"/>
</g>
<defs>
<clipPath id="clip0_926_7967">
<rect width="54.3821" height="71.2104" fill="white" transform="translate(0.931641 0.96582)"/>
</clipPath>
</defs>
</svg>
