<svg width="130" height="36" viewBox="0 0 130 36" fill="none" xmlns="http://www.w3.org/2000/svg">
<path d="M93.1551 18.3519L97.5613 24.534C97.5967 24.5846 97.6438 24.6258 97.6986 24.6542C97.7534 24.6826 97.8143 24.6973 97.876 24.697H100.315C100.416 24.697 100.514 24.6567 100.585 24.5851C100.657 24.5134 100.697 24.4162 100.697 24.3148V11.8832C100.697 11.7818 100.657 11.6846 100.585 11.6129C100.514 11.5413 100.416 11.501 100.315 11.501H98.2076C98.1062 11.501 98.009 11.5413 97.9374 11.6129C97.8657 11.6846 97.8254 11.7818 97.8254 11.8832V17.8967L98.1683 21.3474L96.1394 17.8461L91.7276 11.664C91.6928 11.6142 91.6466 11.5734 91.5928 11.5451C91.539 11.5167 91.4793 11.5016 91.4185 11.501H88.9738C88.8734 11.5025 88.7776 11.5434 88.7072 11.6149C88.6367 11.6864 88.5972 11.7828 88.5972 11.8832V24.3148C88.5972 24.5228 88.7658 24.697 88.9738 24.697H91.0869C91.1883 24.697 91.2855 24.6567 91.3572 24.5851C91.4288 24.5134 91.4691 24.4162 91.4691 24.3148V18.3013L91.1207 14.8506L93.1551 18.3519ZM113.163 13.6029V11.8888C113.161 11.7854 113.119 11.6868 113.046 11.6142C112.972 11.5417 112.873 11.501 112.769 11.501H103.732C103.62 11.501 103.513 11.5454 103.434 11.6245C103.355 11.7035 103.311 11.8107 103.311 11.9225V24.2755C103.311 24.5059 103.502 24.697 103.732 24.697H112.775C112.878 24.6955 112.977 24.6534 113.049 24.5798C113.122 24.5062 113.163 24.407 113.163 24.3036V22.5951C113.163 22.5432 113.154 22.4917 113.134 22.4436C113.115 22.3956 113.086 22.3519 113.049 22.3152C113.012 22.2785 112.969 22.2496 112.921 22.2301C112.873 22.2106 112.821 22.2009 112.769 22.2017H106.194V19.3523H112.297C112.401 19.3508 112.499 19.3087 112.572 19.2351C112.644 19.1615 112.685 19.0622 112.685 18.9589V17.2447C112.685 17.1404 112.644 17.0403 112.57 16.9666C112.496 16.8928 112.396 16.8513 112.292 16.8513H106.194V13.9963H112.781C112.884 13.9948 112.983 13.9527 113.055 13.8791C113.128 13.8055 113.168 13.7063 113.168 13.6029H113.163ZM65.0883 11.8888V24.1294C65.0883 24.4385 65.3469 24.6914 65.656 24.6914H73.9007C74.0031 24.6914 74.1015 24.6515 74.1749 24.5802C74.2484 24.5088 74.2911 24.4116 74.2941 24.3092V22.5951C74.2941 22.5434 74.2839 22.4923 74.2641 22.4445C74.2444 22.3968 74.2154 22.3534 74.1788 22.3169C74.1423 22.2804 74.0989 22.2514 74.0512 22.2316C74.0035 22.2118 73.9523 22.2017 73.9007 22.2017H67.9658V11.8888C67.9644 11.7854 67.9223 11.6868 67.8486 11.6142C67.775 11.5417 67.6758 11.501 67.5724 11.501H65.4761C65.3728 11.5025 65.2741 11.5446 65.2016 11.6182C65.129 11.6918 65.0883 11.791 65.0883 11.8944V11.8888ZM59.6031 11.8944V24.3036C59.6031 24.4079 59.6446 24.508 59.7183 24.5818C59.7921 24.6556 59.8922 24.697 59.9965 24.697H62.076C62.1281 24.6977 62.1799 24.6881 62.2282 24.6687C62.2766 24.6492 62.3207 24.6204 62.3578 24.5838C62.3949 24.5472 62.4244 24.5036 62.4445 24.4555C62.4646 24.4074 62.475 24.3557 62.475 24.3036V11.8944C62.475 11.7901 62.4335 11.69 62.3598 11.6162C62.286 11.5424 62.1859 11.501 62.0816 11.501H59.9965C59.8922 11.501 59.7921 11.5424 59.7183 11.6162C59.6446 11.69 59.6031 11.7901 59.6031 11.8944ZM75.6654 11.8944V24.3036C75.6654 24.5172 75.8396 24.697 76.0588 24.697H78.1438C78.2482 24.697 78.3482 24.6556 78.422 24.5818C78.4958 24.508 78.5372 24.4079 78.5372 24.3036V11.8944C78.5372 11.7901 78.4958 11.69 78.422 11.6162C78.3482 11.5424 78.2482 11.501 78.1438 11.501H76.0588C75.9544 11.501 75.8544 11.5424 75.7806 11.6162C75.7068 11.69 75.6654 11.7901 75.6654 11.8944ZM87.2372 24.0732L82.6174 17.7449V17.7337L86.7819 12.1248C86.8242 12.0664 86.8495 11.9974 86.8553 11.9255C86.861 11.8537 86.8468 11.7816 86.8143 11.7172C86.7818 11.6528 86.7323 11.5986 86.6711 11.5604C86.6098 11.5223 86.5393 11.5018 86.4672 11.501H83.9044C83.8415 11.5014 83.7795 11.5169 83.7237 11.5463C83.668 11.5756 83.6201 11.6179 83.5841 11.6696L79.2679 17.7393L83.9775 24.5172C84.0506 24.6296 84.1742 24.697 84.3035 24.697H86.9168C86.9894 24.6973 87.0607 24.6775 87.1227 24.6397C87.1847 24.602 87.2351 24.5479 87.2683 24.4833C87.3014 24.4187 87.3161 24.3462 87.3106 24.2738C87.3051 24.2015 87.2797 24.132 87.2372 24.0732ZM49.6106 19.1106C47.3401 18.942 45.6597 17.1099 45.8732 14.9349C45.9802 13.9837 46.4356 13.1057 47.1518 12.4706C47.8679 11.8354 48.7939 11.488 49.7511 11.4954H56.8043C57.0235 11.4954 57.1977 11.6752 57.1977 11.8888V13.5917C57.1977 13.696 57.1563 13.7961 57.0825 13.8699C57.0087 13.9436 56.9086 13.9851 56.8043 13.9851H50.0433C49.2902 13.9851 48.7282 14.519 48.7282 15.2215C48.7282 15.9128 49.2397 16.4242 49.9759 16.4804L54.0336 17.0705C56.3041 17.2447 57.9789 19.0769 57.771 21.2519C57.664 22.2031 57.2085 23.081 56.4924 23.7162C55.7763 24.3513 54.8503 24.6988 53.8931 24.6914H46.8343C46.7299 24.6914 46.6299 24.6499 46.5561 24.5762C46.4823 24.5024 46.4408 24.4023 46.4408 24.298V22.5951C46.4408 22.3759 46.6207 22.2017 46.8343 22.2017H53.6009C54.3483 22.2017 54.916 21.6678 54.916 20.9596C54.916 20.274 54.3989 19.7625 53.6683 19.7007L49.6106 19.1106ZM115.062 11.501C114.958 11.501 114.858 11.5424 114.784 11.6162C114.71 11.69 114.669 11.7901 114.669 11.8944V13.6029C114.669 13.8165 114.843 13.9963 115.062 13.9963H118.642V24.3036C118.642 24.4079 118.684 24.508 118.758 24.5818C118.831 24.6556 118.931 24.697 119.036 24.697H121.121C121.225 24.697 121.325 24.6556 121.399 24.5818C121.473 24.508 121.514 24.4079 121.514 24.3036V13.9907H125.094C125.199 13.9907 125.299 13.9493 125.372 13.8755C125.446 13.8017 125.488 13.7016 125.488 13.5973V11.8888C125.486 11.7854 125.444 11.6868 125.37 11.6142C125.297 11.5417 125.198 11.501 125.094 11.501H115.062ZM31.8173 4.05998C28.8656 4.03101 26.0002 5.05522 23.7356 6.94872C22.6564 5.61422 21.2093 4.62581 19.5736 4.10605C17.938 3.58629 16.1857 3.55803 14.5341 4.02478C12.8826 4.49153 11.4043 5.43276 10.2826 6.73177C9.16096 8.03078 8.44522 9.63043 8.22415 11.3324C2.13196 14.5921 4.80713 21.28 9.82026 23.1852C7.49916 21.7802 6.1672 19.105 7.58908 16.6827C7.71834 16.4579 7.88695 16.2387 8.08927 16.0364C8.87608 21.2631 12.7764 27.0462 18.7787 29.9743C27.518 34.2456 36.527 30.525 37.7465 24.5003C38.8874 18.8802 35.24 14.4178 28.9623 11.8551C32.3737 9.75877 35.1725 9.87117 36.8473 10.8097C39.3932 12.2316 38.7582 16.2893 38.7582 16.2893C39.6855 14.9236 40.062 14.1986 40.2587 13.1083C41.0174 8.85955 37.9714 4.13866 31.8117 4.05998H31.8173ZM23.1961 7.40956C22.3802 8.14095 21.6419 8.95455 20.993 9.83745C19.4756 9.64636 17.5929 9.51148 15.6314 9.59016C17.9132 6.09446 21.9541 6.31364 23.1961 7.40956ZM31.0642 26.3268C29.4232 29.4685 24.2639 31.0477 19.8971 28.3782C14.0072 24.7813 13.6813 17.4976 14.1646 13.8502C15.5696 13.7378 17.1152 13.7771 18.7337 13.9963C16.6543 20.8528 18.8124 24.742 20.7963 25.9503C22.5385 27.0125 26.1523 27.6026 28.1193 24.5453C27.9058 24.6127 25.1519 25.5962 23.567 23.8821C22.162 22.3759 22.8645 18.099 24.663 15.5981C30.7776 18.1777 32.947 22.7131 31.0642 26.3268Z" fill="white"/>
</svg>
