<svg width="122" height="63" viewBox="0 0 122 63" fill="none" xmlns="http://www.w3.org/2000/svg">
<path fill-rule="evenodd" clip-rule="evenodd" d="M74.3611 0.505049C74.3617 0.865074 74.5171 1.2635 74.7781 1.57403C74.9538 1.78299 75.4468 2.08691 75.616 2.09055C75.7191 2.09274 75.717 2.10188 75.5881 2.20966C75.351 2.40809 73.9855 3.06794 73.0201 3.45056C71.8124 3.92919 70.2942 4.42498 68.9481 4.78029C64.1199 6.05465 63.6002 6.25274 58.6531 8.70437C57.3949 9.32795 56.2273 9.90036 56.0585 9.97643C55.8897 10.0525 55.1498 10.3794 54.4143 10.7028C53.6788 11.0262 53.0345 11.3137 52.9827 11.3416C52.8971 11.3876 52.8956 11.4166 52.9668 11.6543C53.1274 12.19 53.0438 12.9757 52.7681 13.5239C52.5468 13.964 52.5423 13.9632 52.3522 13.4558C52.1757 12.9851 51.8513 12.358 51.664 12.1257L51.5614 11.9983L50.88 12.3414L50.1985 12.6846L50.2409 12.9221C50.3436 13.4972 50.2315 14.1869 49.9624 14.6351C49.8342 14.8489 49.8086 14.8324 49.6717 14.4488C49.5577 14.1295 49.1602 13.3753 49.0793 13.3251C49.0403 13.3009 47.8369 13.8906 47.7008 14.0006C47.6922 14.0076 47.7145 14.1921 47.7504 14.4107C47.8252 14.8653 47.7599 15.3347 47.5636 15.7543L47.4486 16L47.2199 15.5602C46.9759 15.0911 46.6829 14.6481 46.6152 14.6462C46.5926 14.6456 46.2987 14.8091 45.9623 15.0098L45.3506 15.3745L45.384 15.8505C45.4093 16.2095 45.394 16.4127 45.3222 16.6769C45.237 16.9901 45.0915 17.2832 45.0527 17.2193C45.0447 17.2062 44.9409 17.0027 44.8221 16.7673C44.7033 16.5318 44.5491 16.2675 44.4796 16.1799L44.3531 16.0207L43.703 16.4556L43.0529 16.8906L43.097 17.099C43.1759 17.4724 43.1394 18.0731 43.0201 18.3654L42.9086 18.6386L42.762 18.3873C42.5798 18.075 42.1777 17.5597 42.1161 17.5597C42.0908 17.5597 41.7964 17.7654 41.4618 18.0168C41.1271 18.2682 40.8478 18.4776 40.841 18.4822C40.8343 18.4867 40.8903 18.6405 40.9653 18.8238C41.0601 19.0554 41.1021 19.2663 41.103 19.5144C41.1043 19.8521 41.0987 19.8674 41.0014 19.7947C40.9448 19.7523 40.725 19.5857 40.5132 19.4243C40.3012 19.2629 40.0962 19.1305 40.0574 19.13C40.0186 19.1296 39.7129 19.3572 39.3779 19.6359L38.769 20.1425L38.8792 20.3926C39.0056 20.6799 39.071 21.1267 39.0177 21.34L38.9811 21.4862L38.6434 21.2117C38.0451 20.7254 38.1215 20.7187 37.4797 21.3132C37.1715 21.5985 36.9195 21.8482 36.9197 21.8679C36.9198 21.8877 36.982 22.0551 37.0579 22.2401C37.1719 22.5182 37.2514 23.0529 37.1788 23.0529C37.168 23.0529 36.9871 22.9394 36.7769 22.8006C36.5666 22.6619 36.3665 22.5484 36.3322 22.5484C36.2979 22.5484 36.0646 22.7901 35.8139 23.0855C35.4312 23.5364 35.3671 23.6396 35.4145 23.7286C35.4948 23.8793 35.583 24.3818 35.5462 24.4782C35.5219 24.5416 35.4565 24.5171 35.2481 24.3666C35.1012 24.2607 34.966 24.1739 34.9476 24.1739C34.8441 24.1739 33.963 25.6652 33.9624 25.8415C33.9613 26.1308 35.0272 25.384 36.3319 24.1814C38.6358 22.0578 42.0767 19.6596 45.5179 17.7787C47.6996 16.5863 50.6005 15.3323 52.5655 14.7319L53.062 14.5802L53.1901 14.7107C53.394 14.9184 53.7001 15.4687 53.8301 15.8609C53.9086 16.0977 53.9741 16.2126 54.0205 16.1947C54.2679 16.0993 54.9616 15.9172 55.5842 15.7842C56.2716 15.6373 56.3871 15.6292 57.7883 15.6283C58.9517 15.6277 59.5286 15.6553 60.4945 15.7579C61.1697 15.8296 61.81 15.9054 61.9174 15.9265C62.1988 15.9818 62.3088 16.2345 62.324 16.8615C62.3345 17.2945 62.3234 17.3582 62.2276 17.4134C61.9553 17.57 61.8474 17.7301 61.8796 17.9295C61.8967 18.0359 62.1844 18.5701 62.5188 19.1165C62.8532 19.663 63.1958 20.2296 63.2802 20.3756L63.4336 20.641L57.8908 20.6559L52.3479 20.6706L52.1107 20.8255C51.9083 20.9576 51.8736 21.0083 51.8736 21.1713C51.8736 21.4455 52.1573 21.6138 52.6826 21.6516L53.0732 21.6796L53.1157 22.0654C53.1629 22.495 53.3758 22.9546 53.5941 23.0983C53.715 23.1779 53.7314 23.1775 53.7778 23.0943C53.9051 22.8657 54.1312 22.6577 54.3968 22.5248C54.7491 22.3484 54.8553 22.3443 54.9657 22.5026C55.0682 22.6497 55.0107 22.7425 54.7491 22.8523C54.4761 22.9669 54.2729 23.2465 54.2729 23.5075C54.2729 24.0007 54.7695 24.6389 55.3991 24.955C55.8275 25.17 56.0486 25.1712 56.4907 24.9611C57.3527 24.5515 57.8784 23.6523 57.5501 23.149C57.4959 23.0658 57.3264 22.934 57.1735 22.8562C57.0206 22.7783 56.8955 22.6791 56.8955 22.6356C56.8955 22.5268 57.0509 22.38 57.1645 22.3815C57.3706 22.3842 57.7211 22.6033 57.9775 22.8898L58.2481 23.1922L58.4545 22.9586C58.6923 22.6894 58.7926 22.4036 58.7926 21.9954V21.7076H61.4119C62.9503 21.7076 64.0443 21.7289 64.063 21.7593C64.0804 21.7877 64.2567 21.8651 64.4546 21.9313C64.9465 22.0957 65.5549 22.098 65.8701 21.9365L66.101 21.8181L66.4345 21.9309C67.1903 22.1867 67.7916 22.1851 68.3919 21.9257L68.6719 21.8047L70.959 21.8856L73.2461 21.9666L73.4546 22.1673C73.6758 22.3802 73.9637 22.5484 74.1067 22.5484C74.2685 22.5484 74.1939 22.6426 73.9814 22.7065C73.6911 22.7939 73.335 23.1139 73.1876 23.4198C73.008 23.7923 73.0451 24.3375 73.2754 24.7117C73.7209 25.4356 74.7775 25.576 75.3772 24.991C75.6843 24.6913 75.7838 24.4335 75.7809 23.9449L75.7785 23.5196L76.0159 23.7017C76.2874 23.9099 76.4965 23.9707 76.9154 23.9634C77.6992 23.9497 78.3333 23.1538 78.1758 22.3814C78.1129 22.0731 78.1386 22.0392 78.2997 22.218C78.5909 22.5415 79.1382 22.6675 79.6294 22.524C80.4319 22.2897 80.8326 21.3488 80.4486 20.6004C80.2027 20.1212 79.7683 19.8579 79.2237 19.8579C78.8414 19.8579 78.5724 19.9565 78.3003 20.1965L78.1067 20.3672L78.1649 20.1555C78.2909 19.6971 78.1094 19.1294 77.7298 18.7946C77.4454 18.5437 77.213 18.4566 76.8284 18.4566C76.4718 18.4566 75.9711 18.6609 75.8499 18.8559C75.7544 19.0095 75.6937 18.9844 75.7569 18.8173C75.8516 18.5671 75.8184 18.1655 75.6784 17.868C75.2738 17.0085 74.2453 16.7897 73.5401 17.4133C73.2129 17.7027 73.08 17.9958 73.0784 18.4316C73.0762 19.0283 73.4973 19.631 73.9851 19.7291C74.2148 19.7754 74.2186 19.8407 73.9959 19.9146C73.8869 19.9507 73.6856 20.0662 73.5486 20.1713L73.2996 20.3622L71.2037 20.4411L69.1079 20.5199L68.8673 20.2783C68.6558 20.0658 68.5739 20.0254 68.1876 19.9427C67.4616 19.7872 67.4181 19.7642 66.983 19.3069C66.1391 18.4195 66.0013 18.1205 65.9539 17.0732L65.9188 16.2985H67.4195C68.7841 16.2985 68.9724 16.2868 69.4958 16.1691C71.0026 15.8301 72.2297 15.2162 73.3692 14.2314C74.2672 13.4554 74.722 12.8094 75.959 10.5532C77.3433 8.02804 78.2566 6.55251 78.7997 5.96323C79.158 5.57445 79.6867 5.22081 80.2 5.02676C80.4758 4.92244 81.8226 4.55552 81.9295 4.55552C81.9403 4.55552 81.9492 4.52295 81.9492 4.4831C81.9492 4.38854 81.5909 4.04471 81.0006 3.57292C80.6913 3.32567 80.5335 3.16256 80.5471 3.10398C80.5585 3.05455 80.5794 2.85937 80.5934 2.6703C80.643 2.00401 80.2908 1.61528 79.3825 1.33384C79.1564 1.26378 78.7228 1.22566 77.7364 1.18906C76.9541 1.16002 76.2402 1.10492 76.0197 1.05649C75.5114 0.944949 75.008 0.710929 74.6535 0.421361L74.3606 0.182129L74.3611 0.505049ZM51.6068 15.2652L50.8213 15.6633L51.0208 15.9248C51.2293 16.1981 51.5946 16.9116 51.5946 17.0457C51.5946 17.0884 51.626 17.1088 51.6643 17.0912C51.7027 17.0735 52.073 16.9198 52.4874 16.7494C53.3133 16.4099 53.2751 16.4561 53.1227 15.9798C53.0318 15.6953 52.6844 15.126 52.5043 14.9662C52.396 14.8702 52.3678 14.8795 51.6068 15.2652ZM49.7106 16.3232C49.1854 16.6427 48.5814 17.0485 48.5814 17.0819C48.5814 17.0943 48.6596 17.1879 48.7551 17.29C48.8507 17.3921 49.0376 17.6418 49.1705 17.8449L49.4121 18.2142L50.1962 17.8169C50.6274 17.5984 50.9803 17.3995 50.9805 17.3749C50.9812 17.2575 50.5522 16.4798 50.3734 16.2744L50.1717 16.0427L49.7106 16.3232ZM64.4274 16.303C64.56 16.4335 64.5672 16.4761 64.5948 17.2983L64.6236 18.1572L64.8527 18.4611C64.9787 18.6281 65.2861 19.0171 65.5358 19.3254C65.7856 19.6337 65.99 19.8987 65.9903 19.9144C65.9911 19.9736 64.8347 19.8624 64.5569 19.7767C64.2338 19.6769 63.993 19.4343 63.8707 19.085C63.8213 18.944 63.7899 18.4276 63.7732 17.4825L63.7486 16.0881L64.0187 16.1274C64.1913 16.1524 64.3389 16.2159 64.4274 16.303ZM47.3519 17.9581C47.0308 18.2075 46.6954 18.4825 46.6068 18.569L46.4457 18.7265L46.6557 18.9418C46.7712 19.0603 46.9293 19.2526 47.0068 19.3692C47.0844 19.4858 47.1637 19.5741 47.183 19.5654C47.2024 19.5567 47.5187 19.3627 47.8859 19.1343C48.2531 18.9059 48.6104 18.6843 48.6799 18.642L48.8063 18.565L48.5877 18.2445C48.4675 18.0683 48.2716 17.8297 48.1525 17.7143L47.9359 17.5046L47.3519 17.9581ZM74.6587 18.0143C74.9342 18.1404 75.0006 18.5474 74.7816 18.7674C74.4761 19.0743 73.97 18.8728 73.97 18.4442C73.97 18.059 74.3026 17.8514 74.6587 18.0143ZM45.1595 19.8701L44.453 20.5585L44.6984 20.8312L44.9439 21.1039L45.7589 20.5319L46.5739 19.9597L46.4108 19.7547C46.3211 19.6419 46.1618 19.4668 46.0569 19.3656L45.866 19.1816L45.1595 19.8701ZM77.146 19.4515C77.2117 19.5054 77.2804 19.643 77.2986 19.7572C77.3272 19.9367 77.3086 19.9879 77.1617 20.1356C76.7024 20.5969 76.054 19.9583 76.4957 19.4795C76.6393 19.3238 76.9729 19.3094 77.146 19.4515ZM74.6407 20.7833C74.9652 20.9519 75.0122 21.2859 74.7486 21.5507C74.6016 21.6983 74.5506 21.7169 74.3719 21.6882C74.1125 21.6465 73.97 21.4757 73.97 21.2067C73.97 21.0001 74.1046 20.8118 74.3048 20.7382C74.4374 20.6895 74.468 20.6936 74.6407 20.7833ZM79.5333 20.8442C79.7156 20.9596 79.761 21.2857 79.6211 21.4744C79.395 21.7794 79.0112 21.7763 78.8215 21.4679C78.6992 21.2688 78.7159 21.0759 78.8707 20.9023C79.0571 20.6931 79.2656 20.6748 79.5333 20.8442ZM43.699 21.3522C42.7106 22.4708 42.4468 22.8287 42.6103 22.8287C42.6539 22.8287 44.1585 21.7179 44.3611 21.5362C44.406 21.496 44.0825 21.0342 44.0105 21.0357C43.9926 21.0361 43.8525 21.1785 43.699 21.3522ZM77.1924 22.2993C77.3474 22.4763 77.3533 22.7123 77.2072 22.8989C76.9803 23.1887 76.5605 23.1383 76.4017 22.8022C76.1603 22.2912 76.8185 21.8725 77.1924 22.2993ZM74.7554 23.6651C75.209 24.1208 74.5664 24.7656 74.0955 24.3273C73.8786 24.1254 73.9476 23.6643 74.2107 23.5578C74.433 23.4678 74.5898 23.4987 74.7554 23.6651ZM22.0769 34.0219C20.3334 34.1548 19.0323 34.8646 18.5076 35.9692C18.264 36.482 18.171 36.9089 18.171 37.5145C18.171 38.7036 18.6334 39.6049 19.6705 40.4378C20.2423 40.897 20.6432 41.1357 22.2722 41.9873C23.952 42.8656 24.4672 43.1796 24.865 43.5681C25.3175 44.0099 25.4513 44.3169 25.4521 44.9146C25.4527 45.3418 25.4334 45.4317 25.2697 45.7657C24.8277 46.6676 23.8232 47.1552 22.5685 47.077C21.2159 46.9927 20.4244 46.6418 19.7989 45.8493C19.2311 45.13 19.0495 44.5664 19.0413 43.4981L19.0359 42.7835L18.715 42.7834C18.4968 42.7834 18.3934 42.8058 18.3917 42.8535C18.3903 42.892 18.2446 43.964 18.0679 45.2357L17.7465 47.5479H18.0424C18.3337 47.5479 18.3384 47.5452 18.3384 47.3806C18.3384 47.2768 18.3973 47.147 18.4937 47.0387C18.7016 46.805 18.9163 46.8111 19.4708 47.0666C20.6454 47.6079 22.309 47.8677 23.6569 47.7204C24.5789 47.6197 25.2495 47.4284 26.0107 47.0493C27.5299 46.2926 28.2706 45.1614 28.2706 43.5976C28.2706 42.3515 27.5751 41.3177 26.1502 40.446C25.6469 40.138 24.065 39.2705 23.3603 38.9161C22.604 38.5356 21.7611 37.9767 21.4066 37.6205C20.9931 37.2052 20.8288 36.8493 20.8264 36.3638C20.8248 36.026 20.8489 35.9263 20.9959 35.6632C21.5548 34.6626 23.1626 34.382 24.4874 35.0538C25.3216 35.4768 25.8444 36.296 26.2657 37.8402L26.3909 38.2992H26.6897H26.9886L26.9605 38.089C26.9451 37.9734 26.8816 37.1095 26.8195 36.1692C26.6664 33.8524 26.688 33.9831 26.4597 33.9831C26.3076 33.9831 26.2675 34.0088 26.2386 34.1247C26.1366 34.533 25.8607 34.5715 24.8587 34.3174C23.7429 34.0344 22.978 33.9532 22.0769 34.0219ZM6.89444 34.3054C6.10673 36.3926 2.57778 45.2992 2.40262 45.6421C1.98564 46.4585 1.4998 46.8538 0.740985 46.9943L0.371094 47.0628V47.3053V47.5479H2.71465H5.05821V47.2997V47.0515L4.73736 47.015C4.00802 46.9323 3.56653 46.6637 3.44662 46.23C3.31996 45.7716 3.39099 45.3576 3.76194 44.3923L4.01605 43.7311L6.00188 43.7477L7.98766 43.7643L8.26665 43.9138C8.82219 44.2113 9.17299 44.7173 9.37995 45.5196C9.54897 46.1748 9.44948 46.6278 9.09097 46.8357C8.99198 46.8931 8.73458 46.9664 8.51903 46.9985L8.12715 47.057V47.3024V47.5479H11.4472H14.7672V47.3009V47.0539L14.4743 47.0171C14.0551 46.9643 13.5422 46.7007 13.3211 46.4243C13.0474 46.0821 12.6622 45.2309 10.1582 39.4348L7.87606 34.1523L7.41432 34.1518C6.96174 34.1513 6.95147 34.1543 6.89444 34.3054ZM31.3953 34.3957V34.6401L31.6883 34.6747C32.1316 34.727 32.5602 34.9706 32.7756 35.2928C33.108 35.7901 33.0972 35.6023 33.0972 40.9056V45.7822L32.97 46.0594C32.9 46.2119 32.7771 46.423 32.697 46.5286C32.5226 46.7582 32.0706 46.9787 31.6786 47.0253L31.3953 47.059V47.3034V47.5479H34.7991H38.2028V47.3035V47.0591L37.8894 47.0266C37.4915 46.9853 37.0159 46.7531 36.8312 46.5098C36.7524 46.4062 36.6337 46.1874 36.5673 46.0238C36.4542 45.7448 36.4455 45.6172 36.4285 43.9862L36.4102 42.2462L37.2477 41.4648C37.7083 41.0351 38.1053 40.6779 38.13 40.6711C38.1869 40.6554 40.8521 45.015 41.0743 45.4871C41.1831 45.7182 41.2471 45.9542 41.2615 46.1774C41.281 46.4803 41.2674 46.5356 41.1339 46.695C40.9796 46.8791 40.5662 47.0434 40.2572 47.0434C40.1081 47.0434 40.1 47.0564 40.1 47.2956V47.5479H43.699H47.298V47.308V47.0682L46.9214 47.0085C46.2012 46.8944 45.5371 46.4387 44.9826 45.6782C44.8445 45.4888 43.7788 43.7825 42.6144 41.8866L40.4974 38.4393L40.6195 38.3064C40.8249 38.083 42.9503 36.1526 43.3363 35.8389C44.09 35.2264 45.0126 34.7632 45.6544 34.6748L45.9031 34.6405V34.3959V34.1513H43.3642H40.8254V34.4035C40.8254 34.6299 40.8386 34.6558 40.9547 34.6558C41.0259 34.6558 41.2123 34.694 41.369 34.7408C42.1611 34.9771 42.1291 35.7388 41.2904 36.614C41.0806 36.8328 39.9047 37.9296 38.6771 39.0512L36.4451 41.0905L36.4303 38.6439C36.4164 36.3391 36.4219 36.1759 36.5263 35.8295C36.7384 35.1263 37.1699 34.7596 37.882 34.6774L38.2028 34.6404V34.3958V34.1513H34.7991H31.3953V34.3957ZM53.6359 39.6865C52.4444 42.7309 51.3689 45.4181 51.2458 45.6582C50.8243 46.4802 50.3577 46.8528 49.5719 46.9948L49.1952 47.0628V47.3053V47.5479H51.5667H53.9381V47.3011V47.0544L53.5894 47.0163C53.0923 46.9618 52.8568 46.8829 52.6288 46.6941C52.3497 46.463 52.256 46.2511 52.2543 45.8469C52.2525 45.4308 52.3581 45.0063 52.6398 44.2968L52.8512 43.7643L54.7169 43.7495C56.8073 43.733 56.9388 43.7502 57.4145 44.1033C57.967 44.5133 58.3409 45.4544 58.2979 46.3268C58.2938 46.4105 58.2163 46.5638 58.1257 46.6675C57.9568 46.8607 57.7371 46.9509 57.2721 47.018L57.0071 47.0561V47.302V47.5479H60.2992H63.5914V47.3053V47.0628L63.2209 46.9942C62.4134 46.8448 62.0958 46.5213 61.5499 45.2928C61.4093 44.9762 60.2946 42.4093 59.0727 39.5884C57.8509 36.7676 56.8195 34.3903 56.7807 34.3054C56.7122 34.1557 56.6972 34.1513 56.2562 34.1513H55.8021L53.6359 39.6865ZM65.8791 34.4035C65.8791 34.6428 65.8872 34.6558 66.0364 34.6558C66.3287 34.6558 66.7762 34.8281 66.9917 35.0238C67.2617 35.2688 67.4278 35.6553 67.5014 36.21C67.5386 36.4906 67.5525 38.2913 67.5406 41.27C67.5202 46.4093 67.531 46.2607 67.1462 46.6705C66.9435 46.8865 66.5115 47.0434 66.12 47.0434H65.8791V47.2956V47.5479H68.0553H70.2314V47.2956V47.0434H69.9583C69.8081 47.0434 69.525 46.9937 69.3292 46.9329C68.7968 46.7678 68.527 46.4438 68.3942 45.8102C68.3299 45.5028 68.2718 36.4457 68.3343 36.4524C68.3496 36.4541 70.3226 38.9449 72.7186 41.9877L77.075 47.5199L77.669 47.5358L78.2631 47.5516L78.2787 41.6502C78.2932 36.2101 78.3019 35.7299 78.3909 35.5069C78.6137 34.9482 78.9315 34.7292 79.6013 34.6728L79.9963 34.6395V34.3954V34.1513H77.8201H75.6439V34.3954V34.6396L76.005 34.6734C76.9401 34.7612 77.3701 35.2152 77.4873 36.2388C77.5496 36.7835 77.5605 42.2806 77.4993 42.2753C77.4763 42.2733 76.001 40.4458 74.2211 38.2142L70.9847 34.1569L68.4319 34.1541L65.8791 34.1513V34.4035ZM83.4558 34.3912V34.6309L83.8494 34.6932C84.5495 34.804 84.9541 35.172 85.1702 35.8945C85.2493 36.1592 85.2635 36.7356 85.283 40.4852C85.308 45.2631 85.2912 45.6172 85.0121 46.192C84.7607 46.7099 84.2237 47.0434 83.6409 47.0434C83.4587 47.0434 83.4558 47.0473 83.4558 47.2959V47.5484L89.3561 47.5341L95.2563 47.5199L95.3764 45.8663C95.4423 44.9568 95.5113 44.0298 95.5295 43.8064L95.5627 43.4H95.2662H94.9696L94.785 43.8904C94.132 45.6267 93.3428 46.5306 92.2833 46.7562C92.1003 46.7952 91.3181 46.8192 90.2321 46.8192H88.4766L88.4911 44.0306L88.5056 41.242L88.9515 41.2254C89.5335 41.2037 90.2624 41.2954 90.5581 41.4277C91.0549 41.6499 91.4309 42.2377 91.545 42.971C91.6534 43.667 91.6295 43.6242 91.9104 43.6242H92.1604V40.8496V38.075H91.9104C91.6306 38.075 91.6608 38.0207 91.5471 38.7281C91.4693 39.2124 91.2366 39.7207 90.9815 39.9639C90.6508 40.279 90.3318 40.3799 89.456 40.446C89.022 40.4788 88.6243 40.4892 88.5723 40.4692C88.4851 40.4356 88.4777 40.2143 88.4777 37.6563V34.88H89.9505C91.2882 34.88 91.458 34.8907 91.802 34.9975C92.2123 35.1248 92.3413 35.1948 92.7053 35.488C93.1872 35.876 93.702 36.7133 94.0893 37.7387L94.2693 38.2151L94.554 38.232L94.8388 38.249L94.8383 38.0359C94.8379 37.8117 94.6438 35.1023 94.5851 34.5016L94.5509 34.1513H89.0033H83.4558V34.3912ZM99.5259 34.3957V34.6401L99.8048 34.6733C100.146 34.7139 100.563 34.8933 100.762 35.0847C100.991 35.3048 101.196 35.8259 101.26 36.3479C101.295 36.638 101.31 38.4635 101.299 41.1859C101.282 45.5295 101.282 45.5604 101.159 45.9247C100.94 46.5752 100.484 46.945 99.8014 47.0262L99.5259 47.059V47.3034V47.5479H105.401H111.277L111.404 45.7962C111.473 44.8329 111.545 43.8996 111.562 43.7223L111.594 43.4H111.287H110.979L110.8 43.9153C110.46 44.893 109.986 45.6904 109.474 46.1482C109.327 46.2792 109.019 46.4774 108.789 46.5888L108.37 46.7912L106.459 46.8091L104.548 46.827L104.548 41.5121C104.549 35.72 104.542 35.8644 104.867 35.3355C105.081 34.989 105.443 34.7718 105.94 34.6932L106.333 34.6309V34.3912V34.1513H102.93H99.5259V34.3957ZM114.48 34.3957V34.6401L114.783 34.6715C115.713 34.7679 116.152 35.2972 116.269 36.462C116.307 36.8348 116.321 38.5931 116.309 41.3027C116.29 45.5105 116.289 45.5621 116.168 45.9247C115.947 46.5853 115.481 46.9553 114.779 47.028L114.48 47.0591V47.3035V47.5479H117.912H121.343V47.3035V47.0591L121.03 47.0266C120.371 46.9583 119.904 46.5861 119.685 45.9554C119.593 45.6906 119.586 45.3243 119.586 40.8496C119.586 35.3998 119.564 35.6753 120.026 35.17C120.296 34.8742 120.591 34.7292 121.027 34.6777L121.343 34.6404V34.3958V34.1513H117.912H114.48V34.3957ZM7.27622 40.5298C7.83633 41.8162 8.29455 42.9 8.29455 42.9382C8.29455 42.9921 7.85006 43.0076 6.30772 43.0076C4.43906 43.0076 4.323 43.0018 4.3567 42.9095C4.65009 42.1063 6.2012 38.1876 6.22519 38.1889C6.24316 38.1899 6.71611 39.2433 7.27622 40.5298ZM56.1648 40.6364C56.7202 41.9064 57.1745 42.9595 57.1745 42.9766C57.1745 42.9937 56.2831 43.0076 55.1936 43.0076C53.635 43.0076 53.2127 42.9925 53.2127 42.9368C53.2127 42.8711 54.9698 38.3348 55.0385 38.2231C55.0816 38.1532 55.0429 38.0703 56.1648 40.6364ZM56.913 56.7853C56.3433 56.9895 55.9303 57.3746 55.7754 57.8461C55.5997 58.3809 55.8603 59.0871 56.3498 59.403C56.6424 59.5918 56.6649 59.6323 56.5053 59.6832C56.2631 59.7603 55.847 60.1564 55.7029 60.4466C55.2399 61.3801 55.8583 62.3468 57.0071 62.4853C57.4011 62.5328 58.0315 62.4028 58.4095 62.1961C59.0935 61.8222 59.4486 60.9704 59.2381 60.2089C59.1596 59.9251 58.8069 59.5458 58.4365 59.347C58.2643 59.2545 58.1233 59.1605 58.1232 59.1382C58.1232 59.1158 58.1921 59.0616 58.2765 59.0176C58.6997 58.7972 59.0681 58.2534 59.0704 57.8457C59.0744 57.1655 58.5528 56.7372 57.6767 56.7011C57.3182 56.6864 57.1317 56.7069 56.913 56.7853ZM62.3805 56.7888C61.6561 57.0403 61.1969 57.5978 61.1969 58.2259C61.1969 58.6812 61.4811 59.1989 61.8597 59.4336C61.9819 59.5092 62.0824 59.587 62.0833 59.6064C62.0841 59.6258 62.0076 59.6737 61.9134 59.713C61.8191 59.7522 61.6342 59.8925 61.5025 60.0247C60.7169 60.8139 60.9179 61.899 61.9323 62.3446C62.6562 62.6626 63.8245 62.4239 64.3203 61.8568C64.7253 61.3933 64.8813 60.6549 64.6839 60.1356C64.5744 59.8474 64.2058 59.4844 63.8434 59.3075C63.7048 59.2398 63.5923 59.1706 63.5935 59.1536C63.5946 59.1366 63.7275 59.0308 63.8886 58.9185C64.3181 58.6193 64.5032 58.3228 64.526 57.8977C64.5484 57.4794 64.4075 57.1917 64.0652 56.9569C63.6481 56.6707 62.9277 56.5989 62.3805 56.7888ZM57.786 57.0555C58.0418 57.2717 58.1319 57.4923 58.1589 57.9683C58.179 58.3235 58.1614 58.4452 58.0533 58.7023C57.9692 58.9025 57.8924 59.0083 57.8346 59.0039C57.6695 58.9915 57.1342 58.5907 56.9755 58.3608C56.7679 58.0598 56.7189 57.5431 56.8711 57.2592C57.0669 56.8938 57.4847 56.8008 57.786 57.0555ZM63.3128 57.1201C63.6437 57.4525 63.7399 58.0321 63.5633 58.6294C63.4375 59.055 63.3688 59.0868 63.037 58.8729C62.4611 58.5016 62.2165 58.0862 62.2664 57.5642C62.2891 57.3268 62.3268 57.2494 62.4953 57.0943C62.7835 56.829 63.0307 56.8368 63.3128 57.1201ZM52.2129 58.6914C51.7091 59.0519 51.2864 59.3785 51.2737 59.417C51.2574 59.4661 51.3252 59.4871 51.5 59.4871C51.6626 59.4871 51.7955 59.5244 51.8813 59.5943C52.0112 59.6999 52.0131 59.7162 52.0131 60.7392C52.0131 61.9464 51.9839 62.0313 51.5204 62.1735C51.3771 62.2175 51.2598 62.2742 51.2598 62.2996C51.2598 62.325 51.8624 62.3458 52.5989 62.3458C53.8119 62.3458 54.1138 62.3134 53.8498 62.2116C53.8013 62.1929 53.7154 62.1776 53.6589 62.1776C53.6023 62.1776 53.4788 62.1 53.3844 62.0051L53.2127 61.8327V59.9312C53.2127 58.8854 53.1939 58.0311 53.1709 58.0327C53.1479 58.0344 52.7168 58.3308 52.2129 58.6914ZM68.034 58.1445C67.9148 58.1746 67.6699 58.2781 67.4898 58.3745C66.4751 58.9179 66.076 60.1847 66.5815 61.2578C66.9796 62.1033 67.9663 62.6191 68.8798 62.4593C69.6133 62.331 70.244 61.85 70.5562 61.1809C70.6871 60.9002 70.7057 60.7907 70.7057 60.2998C70.7057 59.786 70.6909 59.7079 70.5279 59.3624C70.1783 58.6208 69.4852 58.1492 68.6886 58.1109C68.4477 58.0993 68.1531 58.1145 68.034 58.1445ZM68.8906 58.4493C69.7072 58.8735 69.7835 61.4961 68.9963 62.0807C68.9154 62.1408 68.7396 62.202 68.6057 62.2167C67.9278 62.2914 67.4909 61.3523 67.5704 59.9916C67.6131 59.2606 67.7314 58.9009 68.0262 58.6047C68.23 58.3999 68.2969 58.366 68.4971 58.366C68.6254 58.366 68.8025 58.4035 68.8906 58.4493ZM57.4256 60.0663C58.0666 60.4915 58.3936 61.1054 58.2354 61.5868C58.0757 62.0729 57.6611 62.3066 57.1923 62.1747C56.7485 62.05 56.4491 61.5218 56.4491 60.8638C56.4491 60.5108 56.5138 60.2779 56.7013 59.9565L56.847 59.7067L57.0526 59.831C57.1657 59.8993 57.3335 60.0052 57.4256 60.0663ZM63.0153 60.1564C63.6482 60.5986 63.8868 61.1447 63.6724 61.6601C63.5518 61.9501 63.3833 62.1131 63.1346 62.1804C62.1599 62.4441 61.5538 61.0309 62.177 59.9472L62.3153 59.7067L62.5209 59.8306C62.634 59.8988 62.8565 60.0454 63.0153 60.1564Z" fill="white"/>
</svg>
