<svg width="60" height="72" viewBox="0 0 60 72" fill="none" xmlns="http://www.w3.org/2000/svg">
<g clip-path="url(#clip0_926_8120)">
<path d="M46.4924 59.858H13.9116C10.3817 59.8541 6.99754 58.4474 4.50154 55.9467C2.00555 53.4459 0.601579 50.0553 0.597656 46.5187L0.597656 13.8759C0.601579 10.3393 2.00555 6.94869 4.50154 4.44794C6.99754 1.9472 10.3817 0.540551 13.9116 0.536621L46.4924 0.536621C50.0223 0.540551 53.4064 1.9472 55.9024 4.44794C58.3984 6.94869 59.8024 10.3393 59.8063 13.8759V46.5187C59.8024 50.0553 58.3984 53.4459 55.9024 55.9467C53.4064 58.4474 50.0223 59.8541 46.4924 59.858ZM13.9116 6.59992C11.9864 6.60287 10.141 7.37039 8.77971 8.73426C7.41844 10.0981 6.65238 11.9471 6.64944 13.8759V46.5187C6.65172 48.4484 7.41784 50.2984 8.77972 51.6628C10.1416 53.0273 11.9881 53.7949 13.914 53.7972H46.4924C48.4184 53.7949 50.2648 53.0273 51.6267 51.6628C52.9886 50.2984 53.7547 48.4484 53.757 46.5187V13.8759C53.7541 11.9467 52.9877 10.0973 51.6258 8.73338C50.264 7.36944 48.4179 6.60221 46.4924 6.59992H13.9116Z" fill="white"/>
<path d="M48.8115 48.8408H11.5918V39.3017H48.8115V48.8408ZM37.3279 11.5503H11.5918V21.0895H48.8078C48.3035 18.4084 46.8804 15.9879 44.7844 14.2462C42.6884 12.5045 40.051 11.551 37.3279 11.5503ZM23.0778 25.4278C20.3535 25.4274 17.7147 26.3805 15.6174 28.1225C13.5201 29.8646 12.0962 32.286 11.5918 34.9683H37.3279C40.0512 34.9675 42.6887 34.0138 44.7848 32.2719C46.8808 30.5299 48.3038 28.1092 48.8078 25.4278H23.0778Z" fill="white"/>
<path d="M50.8754 71.7478H52.7279V66.0866C52.7279 65.7488 52.9601 65.3751 53.485 65.3751H56.5727C57.0741 65.3751 57.3298 65.7018 57.3298 66.0866V71.7478H59.1823V65.9703C59.1823 64.4854 58.2857 63.5771 56.8357 63.5771H53.3356C51.8906 63.5771 50.8778 64.4879 50.8778 65.9282L50.8754 71.7478ZM43.1637 71.7478H47.1702C48.6152 71.7478 49.5464 70.837 49.5464 69.3311C49.5464 67.7324 48.4868 66.9392 47.0541 66.9392H46.0166V66.1101H48.5189V64.5114H46.0166V63.5771H44.1764V64.5114H41.6766V66.1101H44.1764V68.6196H46.9022C47.4271 68.6196 47.6593 68.9908 47.6593 69.2853C47.6593 69.6231 47.4123 69.9498 46.9182 69.9498H43.3143C42.7907 69.9498 42.5572 69.5786 42.5572 69.2383V68.9463H40.6701V69.2383C40.6701 70.837 41.7186 71.7478 43.1637 71.7478ZM31.0947 71.7478H32.9473V66.0866C32.9473 65.7488 33.1807 65.3751 33.7044 65.3751H36.792C37.2934 65.3751 37.5491 65.7018 37.5491 66.0866V71.7478H39.4017V65.9703C39.4017 64.4854 38.505 63.5771 37.0551 63.5771H33.5524C32.1074 63.5771 31.0947 64.4879 31.0947 65.9282V71.7478ZM23.5448 69.956C23.0211 69.956 22.7877 69.5848 22.7877 69.2445C22.7877 68.9042 23.0211 68.533 23.5448 68.533H27.3994C27.9243 68.533 28.1577 68.9042 28.1577 69.2445C28.1577 69.5848 27.9255 69.956 27.3994 69.956H23.5448ZM13.7483 71.7539H17.4881C18.9318 71.7539 19.8285 70.8432 19.8285 69.3608V68.2236C19.8285 66.9751 19.1529 66.2512 18.4082 65.8428L17.1484 65.1647C16.4963 64.8146 15.9949 64.4879 15.9949 63.8036V63.5809H14.1546V64.0486C14.1546 65.3788 14.9117 66.0284 15.7602 66.4875L17.1805 67.2572C17.6474 67.5047 17.9734 67.8413 17.9734 68.5528V69.242C17.9734 69.6268 17.7165 69.9535 17.2163 69.9535H13.899C13.3753 69.9535 13.1419 69.5823 13.1419 69.242V68.2521H11.2893V69.4078C11.2905 70.837 12.3033 71.7478 13.7483 71.7478V71.7539ZM3.7184 71.7539H7.70269C9.14648 71.7539 10.195 70.8432 10.195 69.2445C10.195 67.6457 9.13536 66.735 7.70269 66.735H3.07741V66.0928C3.07741 65.7488 3.31577 65.3776 3.8345 65.3776H9.57751V63.5771H3.68629C2.24251 63.5771 1.22853 64.4879 1.22853 65.9282V69.2383C1.22482 70.837 2.27338 71.7478 3.7184 71.7478V71.7539ZM3.8345 69.956C3.3096 69.956 3.07741 69.5848 3.07741 69.2445V68.533H7.55078C8.07445 68.533 8.30787 68.9042 8.30787 69.2445C8.30787 69.5848 8.07445 69.956 7.55078 69.956H3.8345ZM23.3941 71.7539H27.5525C28.9976 71.7539 30.0461 70.8432 30.0461 69.2445C30.0461 67.6457 28.9852 66.7585 27.5525 66.7585H26.8535V66.0235C26.8535 65.2811 26.4694 64.7972 25.7703 64.5992L24.9898 64.3777C24.6193 64.2726 24.3957 64.1563 24.3957 63.8283V63.5809H22.5431V64.0944C22.5431 65.0756 23.2311 65.5793 23.8832 65.7636L24.7477 66.0111C24.8282 66.0295 24.8995 66.0762 24.9487 66.1427C24.9979 66.2092 25.0216 66.2911 25.0157 66.3737V66.7585H23.3941C21.9491 66.7585 20.9005 67.6457 20.9005 69.2445C20.9005 70.8432 21.9491 71.7478 23.3941 71.7478V71.7539Z" fill="white"/>
</g>
<defs>
<clipPath id="clip0_926_8120">
<rect width="59.2086" height="71.2104" fill="white" transform="translate(0.597656 0.537598)"/>
</clipPath>
</defs>
</svg>
