<svg width="186" height="33" viewBox="0 0 186 33" fill="none" xmlns="http://www.w3.org/2000/svg">
<g clip-path="url(#clip0_926_7866)">
<path d="M38.4367 6.57143C38.1668 6.14788 34.1507 0.203125 27.1881 0.203125H12.3004C9.98523 0.203393 7.76497 1.12321 6.1279 2.76027C4.49084 4.39733 3.57102 6.61759 3.57076 8.93275V25.2669C3.57076 25.7491 2.82071 25.4812 2.82071 25.4812C2.61263 25.4149 2.39616 25.3784 2.17782 25.3731C1.98772 25.3724 1.79937 25.4094 1.62362 25.4818C1.44788 25.5543 1.28822 25.6609 1.15384 25.7953C1.01947 25.9298 0.913039 26.0895 0.840692 26.2653C0.768345 26.4411 0.731511 26.6295 0.732313 26.8196C0.732313 28.538 3.41003 29.2294 4.48152 29.2294C4.78578 29.2399 5.09035 29.2219 5.39128 29.1759C6.21437 30.2224 7.26328 31.0694 8.45966 31.6537C9.65604 32.238 10.969 32.5444 12.3004 32.5501H27.1345C29.4496 32.5498 31.6699 31.63 33.307 29.9929C34.944 28.3558 35.8638 26.1356 35.8641 23.8204V14.8775C35.8641 14.8775 37.6836 12.5748 37.8989 12.3605C37.8989 12.3605 39.3444 10.3793 39.7185 9.63124C40.0925 8.88322 39.772 8.55975 38.4327 6.5785" fill="white"/>
<path d="M29.7017 23.2326C30.0472 23.3463 30.4095 23.4007 30.7732 23.3934C32.3794 23.3934 33.0759 22.7505 33.0759 22.0014C33.0759 21.1442 31.8973 21.1442 31.7901 20.3416C31.6294 19.3773 31.7365 15.0933 33.3963 12.7371L34.5214 13.2192C34.74 13.3203 34.9771 13.3751 35.2179 13.38C35.3625 13.3748 35.5042 13.3386 35.6336 13.2739C35.763 13.2092 35.877 13.1175 35.9679 13.0049C37.0796 11.798 38.0505 10.4686 38.862 9.04244C39.0227 8.77456 36.6664 5.82897 35.3806 4.81206C34.4463 4.086 33.2979 3.68968 32.1146 3.68498C31.0323 3.67645 29.9746 4.00784 29.0907 4.63243C28.2068 5.25702 27.5412 6.1433 27.1878 7.16631C24.9355 8.74374 22.4386 9.93908 19.7975 10.7043C16.209 11.6686 12.5144 10.7578 10.051 10.9186C9.36866 10.9167 8.69299 11.0523 8.06431 11.3175C7.43564 11.5826 6.86686 11.9717 6.39196 12.4616C5.91706 12.9515 5.5458 13.5321 5.30035 14.1688C5.05489 14.8054 4.94029 15.4849 4.96339 16.1668C5.01697 18.9517 6.94464 21.4687 6.94464 24.0929C6.95472 24.4734 6.88893 24.8521 6.75109 25.2069C6.61325 25.5617 6.40613 25.8855 6.14182 26.1594C5.8775 26.4333 5.56128 26.6519 5.21161 26.8023C4.86194 26.9527 4.48582 27.0319 4.10519 27.0354C2.71326 27.0354 2.65968 26.4997 2.23109 26.4997C2.18135 26.4868 2.12934 26.4852 2.07892 26.4951C2.0285 26.505 1.98095 26.5261 1.93979 26.5569C1.89863 26.5877 1.86493 26.6273 1.84116 26.6729C1.81739 26.7184 1.80418 26.7687 1.80249 26.8201C1.80249 27.5166 3.52092 28.1595 4.48021 28.1595C5.19061 28.1851 5.89606 28.0319 6.53188 27.714C7.16769 27.3961 7.7135 26.9236 8.11924 26.34C8.3928 26.9482 8.84957 27.4559 9.42571 27.7919C10.0018 28.1279 10.6686 28.2755 11.3327 28.2141C13.3675 28.2141 14.2247 27.2497 14.2247 26.4471C14.2247 25.8042 13.8497 25.5373 13.5283 25.1077C13.2665 24.7517 13.1342 24.317 13.1532 23.8755C13.5091 23.9135 13.8668 23.9313 14.2247 23.9291C15.6702 23.9291 16.1524 23.3398 16.1524 22.7505C16.1524 22.0004 15.2952 22.054 15.2952 20.8228C15.2952 19.8584 15.8309 19.5906 16.2595 19.5906C16.7417 19.5906 18.6158 19.7513 20.9185 20.0192C21.6686 20.0727 23.5467 20.8228 23.5467 23.7684V24.8399C23.5467 26.6068 24.2432 28.857 27.4566 28.857C29.5986 28.857 30.8308 27.6783 30.8308 26.7686C30.8308 26.1792 30.3487 25.9649 30.0808 25.5899C29.8464 25.25 29.6911 24.862 29.6262 24.4543C29.5613 24.0466 29.5885 23.6295 29.7058 23.2336" fill="#6E6F71"/>
<path d="M34.8985 10.432C34.8243 10.432 34.7518 10.454 34.6901 10.4952C34.6284 10.5364 34.5804 10.595 34.552 10.6635C34.5236 10.732 34.5162 10.8074 34.5306 10.8802C34.5451 10.9529 34.5808 11.0198 34.6333 11.0722C34.6857 11.1247 34.7525 11.1604 34.8253 11.1748C34.898 11.1893 34.9734 11.1819 35.042 11.1535C35.1105 11.1251 35.1691 11.077 35.2103 11.0154C35.2515 10.9537 35.2735 10.8812 35.2735 10.807C35.2747 10.7574 35.2659 10.7081 35.2475 10.662C35.2291 10.616 35.2015 10.5741 35.1664 10.5391C35.1313 10.504 35.0895 10.4764 35.0434 10.458C34.9974 10.4396 34.948 10.4308 34.8985 10.432Z" fill="white"/>
<path d="M36.1885 9.30791C36.1249 9.30791 36.0628 9.32676 36.0099 9.36208C35.9571 9.3974 35.9159 9.44761 35.8915 9.50634C35.8672 9.56508 35.8608 9.62972 35.8732 9.69207C35.8856 9.75442 35.9163 9.8117 35.9612 9.85666C36.0062 9.90161 36.0635 9.93223 36.1258 9.94463C36.1882 9.95703 36.2528 9.95067 36.3115 9.92634C36.3703 9.90201 36.4205 9.86081 36.4558 9.80794C36.4911 9.75508 36.51 9.69294 36.51 9.62936C36.5118 9.58665 36.5048 9.54402 36.4893 9.50418C36.4738 9.46433 36.4502 9.42815 36.42 9.39792C36.3897 9.36769 36.3535 9.34408 36.3137 9.32858C36.2739 9.31309 36.2312 9.30605 36.1885 9.30791Z" fill="white"/>
<path d="M36.8304 8.07593C36.7774 8.07593 36.7256 8.09164 36.6816 8.12107C36.6375 8.15051 36.6032 8.19234 36.5829 8.24129C36.5626 8.29024 36.5573 8.3441 36.5676 8.39606C36.578 8.44802 36.6035 8.49575 36.641 8.53322C36.6784 8.57068 36.7262 8.59619 36.7781 8.60653C36.8301 8.61686 36.8839 8.61156 36.9329 8.59128C36.9818 8.57101 37.0237 8.53668 37.0531 8.49262C37.0825 8.44857 37.0982 8.39678 37.0982 8.3438C37.0937 8.27424 37.0641 8.2087 37.0148 8.15941C36.9655 8.11012 36.8999 8.08044 36.8304 8.07593Z" fill="white"/>
<path d="M26.1179 9.84401C26.2027 9.84401 26.2856 9.81887 26.356 9.77178C26.4265 9.72468 26.4815 9.65775 26.5139 9.57943C26.5463 9.50111 26.5548 9.41494 26.5383 9.3318C26.5218 9.24866 26.4809 9.17229 26.421 9.11235C26.3611 9.05241 26.2847 9.01159 26.2015 8.99505C26.1184 8.97851 26.0322 8.987 25.9539 9.01944C25.8756 9.05188 25.8087 9.10681 25.7616 9.1773C25.7145 9.24778 25.6893 9.33064 25.6893 9.41541C25.7429 9.68328 25.9036 9.84401 26.1179 9.84401Z" fill="white"/>
<path d="M27.6707 19.5903C27.617 19.5909 27.564 19.6029 27.5151 19.6253C27.4663 19.6478 27.4228 19.6803 27.3874 19.7208C27.352 19.7612 27.3255 19.8087 27.3097 19.8601C27.2939 19.9115 27.2891 19.9656 27.2957 20.0189C27.2914 20.1248 27.3278 20.2283 27.3976 20.3081C27.4674 20.3879 27.5652 20.4378 27.6707 20.4475C27.7272 20.4483 27.7833 20.4378 27.8357 20.4166C27.8881 20.3953 27.9356 20.3638 27.9756 20.3238C28.0156 20.2838 28.0471 20.2363 28.0683 20.1839C28.0896 20.1315 28.1001 20.0754 28.0993 20.0189C28.0457 19.8046 27.885 19.5903 27.6707 19.5903Z" fill="white"/>
<path d="M30.0808 20.019C29.996 20.019 29.9132 20.0442 29.8427 20.0913C29.7722 20.1384 29.7173 20.2053 29.6848 20.2836C29.6524 20.3619 29.6439 20.4481 29.6605 20.5313C29.677 20.6144 29.7178 20.6908 29.7778 20.7507C29.8377 20.8106 29.9141 20.8515 29.9972 20.868C30.0803 20.8845 30.1665 20.876 30.2448 20.8436C30.3232 20.8112 30.3901 20.7562 30.4372 20.6858C30.4843 20.6153 30.5094 20.5324 30.5094 20.4476C30.4558 20.1798 30.2951 20.019 30.0808 20.019Z" fill="white"/>
<path d="M27.9929 15.9478C27.8793 15.9478 27.7702 15.993 27.6899 16.0733C27.6095 16.1537 27.5643 16.2627 27.5643 16.3764C27.5643 16.4901 27.6095 16.5991 27.6899 16.6795C27.7702 16.7598 27.8793 16.805 27.9929 16.805C28.0505 16.8103 28.1086 16.8028 28.163 16.7832C28.2174 16.7635 28.2668 16.7321 28.3077 16.6912C28.3486 16.6503 28.38 16.6009 28.3997 16.5465C28.4194 16.4921 28.4268 16.434 28.4215 16.3764C28.4223 16.3199 28.4118 16.2638 28.3906 16.2114C28.3693 16.159 28.3378 16.1115 28.2978 16.0715C28.2579 16.0315 28.2103 16 28.1579 15.9788C28.1055 15.9575 28.0494 15.947 27.9929 15.9478Z" fill="white"/>
<path d="M29.3852 13.2175C29.4989 13.2175 29.6079 13.1724 29.6883 13.092C29.7687 13.0116 29.8138 12.9026 29.8138 12.7889C29.8138 12.6753 29.7687 12.5663 29.6883 12.4859C29.6079 12.4055 29.4989 12.3604 29.3852 12.3604C29.2817 12.3746 29.1868 12.4259 29.1181 12.5047C29.0494 12.5834 29.0116 12.6844 29.0116 12.7889C29.0116 12.8935 29.0494 12.9945 29.1181 13.0732C29.1868 13.152 29.2817 13.2033 29.3852 13.2175Z" fill="white"/>
<path d="M23.0652 11.5574C23.15 11.5574 23.2328 11.5323 23.3033 11.4852C23.3738 11.4381 23.4287 11.3711 23.4612 11.2928C23.4936 11.2145 23.5021 11.1283 23.4856 11.0452C23.469 10.962 23.4282 10.8857 23.3683 10.8257C23.3083 10.7658 23.2319 10.725 23.1488 10.7084C23.0657 10.6919 22.9795 10.7004 22.9012 10.7328C22.8229 10.7653 22.7559 10.8202 22.7088 10.8907C22.6617 10.9612 22.6366 11.044 22.6366 11.1288C22.6902 11.3967 22.8509 11.5574 23.0652 11.5574Z" fill="white"/>
<path d="M25.3661 18.7864C25.2813 18.7864 25.1985 18.8115 25.128 18.8586C25.0575 18.9057 25.0026 18.9726 24.9701 19.051C24.9377 19.1293 24.9292 19.2154 24.9457 19.2986C24.9623 19.3817 25.0031 19.4581 25.063 19.518C25.123 19.578 25.1993 19.6188 25.2825 19.6353C25.3656 19.6519 25.4518 19.6434 25.5301 19.6109C25.6084 19.5785 25.6754 19.5236 25.7225 19.4531C25.7696 19.3826 25.7947 19.2997 25.7947 19.215C25.7411 18.9471 25.5804 18.7864 25.3661 18.7864Z" fill="white"/>
<path d="M24.2411 13.5381C24.2948 13.5375 24.3479 13.5256 24.3967 13.5031C24.4455 13.4806 24.489 13.4481 24.5244 13.4076C24.5598 13.3672 24.5863 13.3197 24.6021 13.2684C24.6179 13.217 24.6227 13.1629 24.6161 13.1095C24.6205 13.0036 24.584 12.9001 24.5142 12.8203C24.4444 12.7406 24.3466 12.6907 24.2411 12.6809C24.1274 12.6809 24.0184 12.7261 23.938 12.8064C23.8577 12.8868 23.8125 12.9958 23.8125 13.1095C23.8125 13.2232 23.8577 13.3322 23.938 13.4126C24.0184 13.4929 24.1274 13.5381 24.2411 13.5381Z" fill="white"/>
<path d="M21.6726 15.8398C21.5878 15.8398 21.505 15.865 21.4345 15.9121C21.364 15.9592 21.3091 16.0261 21.2766 16.1044C21.2442 16.1827 21.2357 16.2689 21.2523 16.3521C21.2688 16.4352 21.3096 16.5116 21.3696 16.5715C21.4295 16.6314 21.5059 16.6723 21.589 16.6888C21.6721 16.7053 21.7583 16.6969 21.8366 16.6644C21.915 16.632 21.9819 16.577 22.029 16.5066C22.0761 16.4361 22.1012 16.3532 22.1012 16.2684C22.0937 16.1573 22.0461 16.0526 21.9673 15.9738C21.8885 15.895 21.7838 15.8474 21.6726 15.8398Z" fill="white"/>
<path d="M25.8483 15.4141C25.933 15.4141 26.0159 15.3889 26.0864 15.3418C26.1569 15.2948 26.2118 15.2278 26.2443 15.1495C26.2767 15.0712 26.2852 14.985 26.2686 14.9019C26.2521 14.8187 26.2113 14.7424 26.1513 14.6824C26.0914 14.6225 26.015 14.5817 25.9319 14.5651C25.8488 14.5486 25.7626 14.5571 25.6843 14.5895C25.6059 14.6219 25.539 14.6769 25.4919 14.7474C25.4448 14.8178 25.4197 14.9007 25.4197 14.9855C25.4733 15.2534 25.634 15.4141 25.8483 15.4141Z" fill="white"/>
<path d="M19.4773 11.8252C19.3925 11.8252 19.3097 11.8504 19.2392 11.8975C19.1687 11.9446 19.1138 12.0115 19.0813 12.0898C19.0489 12.1681 19.0404 12.2543 19.0569 12.3375C19.0735 12.4206 19.1143 12.497 19.1742 12.5569C19.2342 12.6168 19.3106 12.6577 19.3937 12.6742C19.4768 12.6907 19.563 12.6822 19.6413 12.6498C19.7196 12.6174 19.7866 12.5624 19.8337 12.492C19.8808 12.4215 19.9059 12.3386 19.9059 12.2538C19.9067 12.1973 19.8962 12.1412 19.8749 12.0889C19.8537 12.0365 19.8221 11.9889 19.7822 11.949C19.7422 11.909 19.6947 11.8774 19.6423 11.8562C19.5899 11.835 19.5338 11.8244 19.4773 11.8252Z" fill="white"/>
<path d="M20.3895 13.9128C20.3048 13.9128 20.2219 13.938 20.1514 13.9851C20.0809 14.0322 20.026 14.0991 19.9936 14.1774C19.9611 14.2557 19.9526 14.3419 19.9692 14.4251C19.9857 14.5082 20.0265 14.5846 20.0865 14.6445C20.1464 14.7044 20.2228 14.7453 20.3059 14.7618C20.3891 14.7783 20.4752 14.7698 20.5536 14.7374C20.6319 14.705 20.6988 14.65 20.7459 14.5796C20.793 14.5091 20.8181 14.4262 20.8181 14.3414C20.7646 14.0736 20.6038 13.9128 20.3895 13.9128Z" fill="white"/>
<path d="M23.3347 17.3945C23.25 17.3945 23.1671 17.4197 23.0966 17.4668C23.0261 17.5139 22.9712 17.5808 22.9388 17.6591C22.9063 17.7374 22.8978 17.8236 22.9144 17.9067C22.9309 17.9899 22.9717 18.0663 23.0317 18.1262C23.0916 18.1861 23.168 18.227 23.2511 18.2435C23.3343 18.26 23.4204 18.2515 23.4987 18.2191C23.5771 18.1867 23.644 18.1317 23.6911 18.0612C23.7382 17.9908 23.7633 17.9079 23.7633 17.8231C23.7098 17.6088 23.549 17.3945 23.3347 17.3945Z" fill="white"/>
<path d="M27.4539 11.7171C27.5386 11.7171 27.6215 11.6919 27.692 11.6448C27.7625 11.5977 27.8174 11.5308 27.8498 11.4525C27.8823 11.3742 27.8908 11.288 27.8742 11.2048C27.8577 11.1217 27.8169 11.0453 27.7569 10.9854C27.697 10.9255 27.6206 10.8846 27.5375 10.8681C27.4543 10.8516 27.3682 10.86 27.2899 10.8925C27.2115 10.9249 27.1446 10.9799 27.0975 11.0503C27.0504 11.1208 27.0253 11.2037 27.0253 11.2885C27.0788 11.5563 27.2396 11.7171 27.4539 11.7171Z" fill="white"/>
<path d="M30.405 16.6988C30.3203 16.6988 30.2374 16.7239 30.1669 16.771C30.0964 16.8181 30.0415 16.885 30.0091 16.9634C29.9766 17.0417 29.9681 17.1278 29.9847 17.211C30.0012 17.2941 30.042 17.3705 30.102 17.4304C30.1619 17.4904 30.2383 17.5312 30.3214 17.5477C30.4046 17.5643 30.4907 17.5558 30.5691 17.5233C30.6474 17.4909 30.7143 17.436 30.7614 17.3655C30.8085 17.295 30.8336 17.2121 30.8336 17.1274C30.8345 17.0709 30.8239 17.0148 30.8027 16.9624C30.7814 16.91 30.7499 16.8625 30.7099 16.8225C30.67 16.7825 30.6224 16.751 30.57 16.7297C30.5176 16.7085 30.4615 16.698 30.405 16.6988Z" fill="white"/>
<path d="M31.4207 13.4322C31.307 13.4322 31.198 13.4773 31.1176 13.5577C31.0372 13.6381 30.9921 13.7471 30.9921 13.8608C30.9921 13.9744 31.0372 14.0835 31.1176 14.1638C31.198 14.2442 31.307 14.2894 31.4207 14.2894C31.4783 14.2947 31.5363 14.2872 31.5907 14.2675C31.6451 14.2479 31.6945 14.2165 31.7354 14.1755C31.7763 14.1346 31.8077 14.0852 31.8274 14.0308C31.8471 13.9764 31.8545 13.9184 31.8493 13.8608C31.8501 13.8043 31.8395 13.7482 31.8183 13.6958C31.797 13.6434 31.7655 13.5958 31.7255 13.5559C31.6856 13.5159 31.638 13.4844 31.5856 13.4631C31.5333 13.4419 31.4772 13.4314 31.4207 13.4322Z" fill="white"/>
<path d="M31.1511 10.111C31.0664 10.111 30.9835 10.1362 30.913 10.1833C30.8425 10.2304 30.7876 10.2973 30.7552 10.3756C30.7227 10.4539 30.7142 10.5401 30.7308 10.6232C30.7473 10.7064 30.7881 10.7827 30.8481 10.8427C30.908 10.9026 30.9844 10.9434 31.0675 10.96C31.1507 10.9765 31.2368 10.968 31.3151 10.9356C31.3935 10.9032 31.4604 10.8482 31.5075 10.7777C31.5546 10.7073 31.5797 10.6244 31.5797 10.5396C31.585 10.482 31.5776 10.424 31.5579 10.3696C31.5382 10.3152 31.5068 10.2657 31.4659 10.2248C31.425 10.1839 31.3756 10.1525 31.3212 10.1329C31.2668 10.1132 31.2087 10.1057 31.1511 10.111Z" fill="white"/>
<path d="M33.0808 10.7002C32.996 10.7002 32.9132 10.7253 32.8427 10.7724C32.7722 10.8195 32.7173 10.8865 32.6848 10.9648C32.6524 11.0431 32.6439 11.1293 32.6605 11.2124C32.677 11.2955 32.7178 11.3719 32.7778 11.4319C32.8377 11.4918 32.9141 11.5326 32.9972 11.5492C33.0803 11.5657 33.1665 11.5572 33.2448 11.5248C33.3232 11.4923 33.3901 11.4374 33.4372 11.3669C33.4843 11.2964 33.5094 11.2136 33.5094 11.1288C33.5019 11.0176 33.4543 10.9129 33.3755 10.8341C33.2967 10.7553 33.192 10.7078 33.0808 10.7002Z" fill="white"/>
<path d="M29.7567 8.87891C29.672 8.87891 29.5891 8.90404 29.5186 8.95114C29.4481 8.99823 29.3932 9.06517 29.3608 9.14349C29.3283 9.2218 29.3198 9.30798 29.3364 9.39112C29.3529 9.47426 29.3937 9.55063 29.4537 9.61057C29.5136 9.67051 29.59 9.71133 29.6731 9.72786C29.7562 9.7444 29.8424 9.73591 29.9207 9.70347C29.9991 9.67103 30.066 9.6161 30.1131 9.54562C30.1602 9.47514 30.1853 9.39227 30.1853 9.3075C30.1317 9.03963 29.971 8.87891 29.7567 8.87891Z" fill="white"/>
<path d="M28.9558 7.32568C28.8711 7.32568 28.7882 7.35082 28.7177 7.39792C28.6472 7.44501 28.5923 7.51195 28.5598 7.59026C28.5274 7.66858 28.5189 7.75476 28.5355 7.83789C28.552 7.92103 28.5928 7.9974 28.6528 8.05734C28.7127 8.11728 28.7891 8.1581 28.8722 8.17464C28.9553 8.19118 29.0415 8.18269 29.1198 8.15025C29.1982 8.11781 29.2651 8.06288 29.3122 7.9924C29.3593 7.92191 29.3844 7.83905 29.3844 7.75428C29.3308 7.53998 29.1701 7.32568 28.9558 7.32568Z" fill="white"/>
<path d="M30.6179 7.32568C30.5332 7.32568 30.4503 7.35082 30.3798 7.39792C30.3093 7.44501 30.2544 7.51195 30.222 7.59026C30.1895 7.66858 30.181 7.75476 30.1976 7.83789C30.2141 7.92103 30.2549 7.9974 30.3149 8.05734C30.3748 8.11728 30.4512 8.1581 30.5343 8.17464C30.6175 8.19118 30.7036 8.18269 30.7819 8.15025C30.8603 8.11781 30.9272 8.06288 30.9743 7.9924C31.0214 7.92191 31.0465 7.83905 31.0465 7.75428C31.039 7.6431 30.9914 7.53842 30.9126 7.45963C30.8338 7.38083 30.7291 7.33325 30.6179 7.32568Z" fill="white"/>
<path d="M28.6893 6.25485C28.695 6.17146 28.7307 6.09296 28.7898 6.03386C28.8489 5.97476 28.9274 5.93907 29.0108 5.9334C29.0535 5.93154 29.0961 5.93858 29.136 5.95407C29.1758 5.96957 29.212 5.99318 29.2422 6.02341C29.2724 6.05364 29.2961 6.08982 29.3116 6.12966C29.327 6.16951 29.3341 6.21214 29.3322 6.25485C29.3322 6.3401 29.2984 6.42186 29.2381 6.48214C29.1778 6.54243 29.096 6.57629 29.0108 6.57629C28.9255 6.57629 28.8438 6.54243 28.7835 6.48214C28.7232 6.42186 28.6893 6.3401 28.6893 6.25485Z" fill="white"/>
<path d="M29.7069 5.02325C29.7069 4.97026 29.7226 4.91847 29.7521 4.87442C29.7815 4.83037 29.8233 4.79604 29.8723 4.77576C29.9212 4.75549 29.9751 4.75018 30.027 4.76052C30.079 4.77085 30.1267 4.79637 30.1642 4.83383C30.2017 4.87129 30.2272 4.91902 30.2375 4.97098C30.2478 5.02295 30.2425 5.07681 30.2223 5.12576C30.202 5.1747 30.1677 5.21654 30.1236 5.24597C30.0796 5.27541 30.0278 5.29112 29.9748 5.29112C29.9052 5.2866 29.8397 5.25693 29.7904 5.20764C29.7411 5.15835 29.7114 5.09281 29.7069 5.02325Z" fill="white"/>
<path d="M30.9921 4.43451C30.9921 4.39213 31.0046 4.3507 31.0282 4.31546C31.0517 4.28021 31.0852 4.25275 31.1244 4.23653C31.1635 4.22031 31.2066 4.21606 31.2482 4.22433C31.2897 4.2326 31.3279 4.25301 31.3579 4.28298C31.3879 4.31295 31.4083 4.35114 31.4165 4.39271C31.4248 4.43428 31.4206 4.47736 31.4044 4.51652C31.3881 4.55568 31.3607 4.58915 31.3254 4.6127C31.2902 4.63624 31.2488 4.64881 31.2064 4.64881C31.1508 4.64503 31.0984 4.62124 31.059 4.58184C31.0196 4.54244 30.9958 4.4901 30.9921 4.43451Z" fill="white"/>
<path d="M36.5625 7.21869C36.5625 7.17631 36.5751 7.13488 36.5986 7.09963C36.6222 7.06439 36.6556 7.03693 36.6948 7.02071C36.7339 7.00449 36.777 7.00024 36.8186 7.00851C36.8602 7.01678 36.8984 7.03719 36.9283 7.06716C36.9583 7.09713 36.9787 7.13532 36.987 7.17689C36.9952 7.21845 36.991 7.26154 36.9748 7.3007C36.9586 7.33986 36.9311 7.37333 36.8959 7.39687C36.8606 7.42042 36.8192 7.43299 36.7768 7.43299C36.7212 7.42921 36.6689 7.40542 36.6295 7.36602C36.5901 7.32662 36.5663 7.27428 36.5625 7.21869Z" fill="white"/>
<path d="M36.2382 11.2363C36.2382 11.1939 36.2507 11.1525 36.2743 11.1172C36.2978 11.082 36.3313 11.0545 36.3704 11.0383C36.4096 11.0221 36.4527 11.0178 36.4943 11.0261C36.5358 11.0344 36.574 11.0548 36.604 11.0847C36.6339 11.1147 36.6544 11.1529 36.6626 11.1945C36.6709 11.236 36.6667 11.2791 36.6504 11.3183C36.6342 11.3574 36.6068 11.3909 36.5715 11.4145C36.5363 11.438 36.4948 11.4506 36.4525 11.4506C36.3989 11.4506 36.2917 11.3434 36.2382 11.2363Z" fill="white"/>
<path d="M36.8319 10.4863C36.8319 10.4439 36.8445 10.4025 36.868 10.3672C36.8916 10.332 36.925 10.3045 36.9642 10.2883C37.0034 10.2721 37.0464 10.2678 37.088 10.2761C37.1296 10.2844 37.1678 10.3048 37.1977 10.3347C37.2277 10.3647 37.2481 10.4029 37.2564 10.4445C37.2647 10.486 37.2604 10.5291 37.2442 10.5683C37.228 10.6074 37.2005 10.6409 37.1653 10.6645C37.13 10.688 37.0886 10.7006 37.0462 10.7006C36.9906 10.6968 36.9383 10.673 36.8989 10.6336C36.8595 10.5942 36.8357 10.5419 36.8319 10.4863Z" fill="white"/>
<path d="M35.6503 12.0395C35.6503 11.9971 35.6628 11.9557 35.6864 11.9204C35.7099 11.8852 35.7434 11.8577 35.7826 11.8415C35.8217 11.8253 35.8648 11.821 35.9064 11.8293C35.948 11.8376 35.9861 11.858 36.0161 11.888C36.0461 11.9179 36.0665 11.9561 36.0748 11.9977C36.083 12.0393 36.0788 12.0823 36.0626 12.1215C36.0463 12.1607 36.0189 12.1941 35.9836 12.2177C35.9484 12.2412 35.907 12.2538 35.8646 12.2538C35.809 12.25 35.7566 12.2262 35.7172 12.1868C35.6778 12.1474 35.6541 12.0951 35.6503 12.0395Z" fill="white"/>
<path d="M34.953 12.7343C34.953 12.6919 34.9656 12.6505 34.9891 12.6153C35.0127 12.58 35.0461 12.5526 35.0853 12.5363C35.1244 12.5201 35.1675 12.5159 35.2091 12.5241C35.2507 12.5324 35.2889 12.5528 35.3188 12.5828C35.3488 12.6128 35.3692 12.6509 35.3775 12.6925C35.3857 12.7341 35.3815 12.7772 35.3653 12.8163C35.3491 12.8555 35.3216 12.889 35.2864 12.9125C35.2511 12.936 35.2097 12.9486 35.1673 12.9486C35.0602 12.9486 35.0066 12.8415 34.953 12.7343Z" fill="white"/>
<path d="M37.3632 9.68354C37.3632 9.64115 37.3757 9.59972 37.3993 9.56448C37.4228 9.52924 37.4563 9.50177 37.4954 9.48555C37.5346 9.46933 37.5777 9.46509 37.6193 9.47336C37.6608 9.48162 37.699 9.50203 37.729 9.532C37.759 9.56198 37.7794 9.60016 37.7876 9.64173C37.7959 9.6833 37.7917 9.72639 37.7754 9.76555C37.7592 9.8047 37.7318 9.83817 37.6965 9.86172C37.6613 9.88527 37.6198 9.89784 37.5775 9.89784C37.5219 9.89406 37.4695 9.87026 37.4301 9.83086C37.3907 9.79146 37.3669 9.73913 37.3632 9.68354Z" fill="white"/>
<path d="M37.7382 8.98627C37.7382 8.94389 37.7507 8.90245 37.7743 8.86721C37.7978 8.83197 37.8313 8.8045 37.8705 8.78829C37.9096 8.77207 37.9527 8.76782 37.9943 8.77609C38.0358 8.78436 38.074 8.80477 38.104 8.83474C38.134 8.86471 38.1544 8.90289 38.1626 8.94446C38.1709 8.98603 38.1667 9.02912 38.1504 9.06828C38.1342 9.10744 38.1068 9.14091 38.0715 9.16445C38.0363 9.188 37.9948 9.20057 37.9525 9.20057C37.8453 9.20057 37.7917 9.14699 37.7382 8.98627Z" fill="white"/>
<path d="M12.5683 26.0687C12.1402 25.2904 11.8765 24.4325 11.7935 23.5482C11.7106 22.6638 11.8102 21.7718 12.0861 20.9275C13.2112 18.0355 16.4772 18.4105 16.4772 18.4105C15.9376 18.1699 15.3489 18.0598 14.7588 18.0891C13.6326 18.1867 12.5906 18.7256 11.86 19.5883C11.1295 20.451 10.7697 21.5676 10.859 22.6945C10.9089 23.3424 11.0864 23.9741 11.3813 24.5531C11.6762 25.1322 12.0827 25.6473 12.5774 26.0687" fill="white"/>
<path d="M7.16044 17.9297C6.83528 17.6075 6.57775 17.2237 6.40295 16.8006C6.22815 16.3776 6.13961 15.9239 6.14253 15.4662C6.15863 14.548 6.53058 13.6718 7.18 13.0224C7.82942 12.3729 8.70559 12.001 9.62386 11.9849C11.6051 11.8777 15.2472 12.4671 17.6034 12.1456C18.4071 15.7341 21.0848 18.2511 23.062 19.8573C20.6521 18.7858 18.2423 15.9474 15.4574 14.3988C12.5654 12.7926 9.61982 12.5247 8.06717 13.9702C7.57511 14.4892 7.23118 15.1307 7.07117 15.8277C6.91117 16.5248 6.94095 17.252 7.15741 17.9337" fill="white"/>
<path d="M15.4097 21.5723C15.5704 22.5902 13.6913 22.9642 13.6913 22.9642C15.4097 23.2857 15.9404 22.3749 15.9404 22.3749C15.7942 22.0868 15.6144 21.8171 15.4047 21.5713" fill="white"/>
<path d="M28.9549 22.1082C28.9549 22.1082 27.8299 23.6608 28.6335 26.5559C28.0447 27.0178 27.3718 27.3611 26.6522 27.5667C26.6522 27.5667 29.2228 27.8881 30.0264 26.5488C28.4202 25.3166 28.9013 22.3184 28.9549 22.1011" fill="white"/>
<path d="M34.0432 5.71963C33.61 5.60163 33.1478 5.65921 32.7568 5.87986C32.3658 6.10052 32.0776 6.46646 31.9547 6.89827C31.9334 7.12042 31.957 7.34459 32.0241 7.55743C32.0912 7.77027 32.2005 7.96744 32.3453 8.1372C32.4902 8.30696 32.6677 8.44585 32.8674 8.54559C33.067 8.64533 33.2847 8.70389 33.5074 8.71779C33.9406 8.83579 34.4028 8.77821 34.7938 8.55755C35.1847 8.33689 35.4729 7.97095 35.5958 7.53914C35.6171 7.317 35.5935 7.09283 35.5264 6.87999C35.4593 6.66714 35.3501 6.46997 35.2052 6.30021C35.0604 6.13045 34.8828 5.99157 34.6832 5.89183C34.4836 5.79208 34.2659 5.73352 34.0432 5.71963ZM35.3289 7.48658C35.2388 7.79581 35.0321 8.05799 34.7525 8.21788C34.4729 8.37777 34.1421 8.42291 33.8299 8.34377C33.6748 8.33033 33.524 8.28632 33.3861 8.21429C33.2482 8.14225 33.1259 8.04363 33.0263 7.92409C32.9266 7.80455 32.8517 7.66648 32.8057 7.51782C32.7597 7.36917 32.7436 7.21289 32.7584 7.05798C32.8485 6.74875 33.0552 6.48658 33.3348 6.32668C33.6144 6.16679 33.9452 6.12166 34.2574 6.20079C34.4125 6.21424 34.5633 6.25825 34.7012 6.33028C34.8391 6.40231 34.9614 6.50094 35.061 6.62047C35.1607 6.74001 35.2356 6.87809 35.2816 7.02674C35.3276 7.17539 35.3437 7.33168 35.3289 7.48658Z" fill="white"/>
<path d="M33.9883 7.21937C34.037 7.05264 34.1468 6.91041 34.2958 6.82105C34.4447 6.73168 34.6219 6.70174 34.7919 6.7372C34.9622 6.75187 35.1198 6.83336 35.2302 6.96386C35.3407 7.09436 35.395 7.26327 35.3812 7.43367C35.3325 7.60039 35.2227 7.74262 35.0738 7.83199C34.9248 7.92136 34.7477 7.9513 34.5776 7.91584C34.4073 7.90117 34.2497 7.81967 34.1393 7.68917C34.0289 7.55867 33.9746 7.38977 33.9883 7.21937Z" fill="white"/>
<path d="M31.9037 20.7134C32.493 21.8385 30.5643 22.2661 30.5643 22.2661C31.9563 22.4804 32.7063 21.6767 32.7063 21.3017C32.4115 21.145 32.1408 20.9465 31.9027 20.7124" fill="white"/>
<path d="M19.8518 17.0197C19.8518 17.0197 20.1196 17.3412 20.5482 17.7698C21.0889 18.2886 21.663 18.7714 22.2667 19.2153C22.857 19.6604 23.4839 20.0546 24.1408 20.3939C24.3436 20.5227 24.559 20.6304 24.7837 20.7154C24.8752 20.7453 24.9646 20.7811 25.0515 20.8225C24.9646 20.7811 24.8752 20.7453 24.7837 20.7154C24.541 20.6328 24.3075 20.5251 24.0872 20.3939C23.401 20.0662 22.739 19.6902 22.106 19.2689C21.4795 18.8545 20.8885 18.389 20.339 17.8769C20.0724 17.6441 19.8218 17.3935 19.589 17.1269C19.563 17.0972 19.5487 17.0592 19.5487 17.0197C19.5487 16.9803 19.563 16.9423 19.589 16.9126C19.6884 16.9142 19.7838 16.9523 19.8568 17.0197" fill="white"/>
<path d="M36.0247 6.63134C35.7815 6.21041 35.4362 5.85755 35.0206 5.60535C34.605 5.35315 34.1325 5.20975 33.6468 5.1884C33.1612 5.16704 32.6779 5.26842 32.2418 5.48316C31.8057 5.6979 31.4307 6.01908 31.1515 6.41705C31.1132 6.46417 31.066 6.50319 31.0125 6.53181C30.9589 6.56044 30.9002 6.57809 30.8398 6.58373C30.7794 6.58937 30.7185 6.58289 30.6606 6.56467C30.6027 6.54645 30.549 6.51686 30.5027 6.47762C30.4564 6.43839 30.4184 6.3903 30.3909 6.33619C30.3635 6.28208 30.3471 6.22303 30.3427 6.16249C30.3384 6.10196 30.3462 6.04117 30.3656 5.98369C30.3851 5.9262 30.4158 5.87318 30.456 5.82773C30.7689 5.46911 31.1561 5.18296 31.5908 4.98919C32.0255 4.79542 32.4971 4.69867 32.973 4.70569C33.6158 4.68715 34.2496 4.86063 34.7933 5.20399C35.3371 5.54735 35.7662 6.04499 36.0257 6.63337" fill="white"/>
<path d="M32.8637 12.5785C31.5561 12.4409 30.313 11.9402 29.2752 11.133C28.3439 10.4758 27.5748 9.61501 27.0261 8.616C26.9725 8.45527 26.9725 8.24097 27.1332 8.1874C27.1673 8.1628 27.2064 8.14594 27.2477 8.13801C27.289 8.13007 27.3316 8.13124 27.3724 8.14144C27.4132 8.15165 27.4513 8.17063 27.484 8.19708C27.5167 8.22352 27.5433 8.25678 27.5618 8.29455C28.0714 9.34762 28.802 10.2785 29.7038 11.0238C30.6265 11.7734 31.7067 12.3049 32.8637 12.5785Z" fill="white"/>
<path d="M31.4727 15.3581C29.3173 15.1621 27.3125 14.1691 25.8504 12.5733C25.1576 11.8318 24.5637 11.0038 24.0835 10.1098C24.0408 10.0388 24.0282 9.95372 24.0483 9.87335C24.0684 9.79297 24.1196 9.72387 24.1906 9.68124C24.2617 9.63861 24.3467 9.62595 24.4271 9.64605C24.5075 9.66614 24.5766 9.71734 24.6192 9.78839C25.1247 10.94 25.832 11.9919 26.7076 12.8947C27.97 14.2339 29.6511 15.1028 31.4737 15.3581" fill="white"/>
<path d="M21.03 11.1822C21.0687 11.1713 21.1091 11.1683 21.149 11.1732C21.1889 11.1781 21.2274 11.1909 21.2623 11.2109C21.2972 11.2308 21.3278 11.2575 21.3523 11.2893C21.3768 11.3212 21.3947 11.3576 21.405 11.3965C21.9679 13.0492 22.9015 14.5512 24.1343 15.7876C25.9139 17.5871 28.3016 18.6567 30.8291 18.7867C28.1175 18.782 25.5182 17.7037 23.5995 15.7876C22.4036 14.6048 21.4732 13.181 20.8703 11.6108C20.8459 11.5734 20.8307 11.5309 20.8258 11.4866C20.8209 11.4423 20.8265 11.3975 20.8422 11.3558C20.8578 11.3141 20.8831 11.2766 20.9159 11.2465C20.9487 11.2163 20.9881 11.1943 21.031 11.1822" fill="white"/>
<path d="M31.9532 8.77226C32.4752 9.12367 33.0908 9.31031 33.7201 9.308C34.2545 9.34904 34.7852 9.19127 35.2104 8.86497C35.6355 8.53868 35.9252 8.06684 36.0238 7.54004C35.9553 8.15926 35.6604 8.73134 35.1959 9.14645C34.7313 9.56157 34.1298 9.79045 33.5068 9.78916C32.8554 9.81241 32.2093 9.66464 31.6327 9.36057C31.557 9.32237 31.4984 9.25708 31.4686 9.17766C31.4389 9.09825 31.4401 9.01054 31.472 8.93197C31.6327 8.77124 31.847 8.6641 31.9542 8.77124" fill="white"/>
<path d="M48.7728 23.1242C48.7768 23.4 48.697 23.6706 48.544 23.9002C48.3909 24.1298 48.1718 24.3075 47.9156 24.4099C48.1995 24.5062 48.4481 24.6852 48.6295 24.9239C48.8109 25.1626 48.9168 25.45 48.9336 25.7493C48.9336 26.928 48.13 27.4677 46.6844 27.4677H44.0603V21.4644H46.5237C47.8621 21.4644 48.7728 21.9465 48.7728 23.1242ZM45.1844 23.9278H46.4166C47.0059 23.9278 47.4881 23.8206 47.4881 23.2313C47.4881 22.642 47.0059 22.5348 46.4166 22.5348H45.1854L45.1844 23.9278ZM45.1844 26.4448H46.5237C47.1666 26.4448 47.5952 26.284 47.5952 25.6947C47.5952 25.159 47.1666 24.9983 46.5237 24.9983H45.1854L45.1844 26.4448Z" fill="white"/>
<path d="M54.1798 27.5163L53.644 26.1243H51.0735L50.5377 27.5163H49.3065L51.6628 21.4644H53.1083L55.4646 27.5163H54.1798ZM53.2154 24.9993L52.3583 22.643L51.5021 25.0023L53.2154 24.9993Z" fill="white"/>
<path d="M60.5534 27.5163L57.447 23.4466V27.5163H56.2694V21.4644H57.3945L60.4472 25.4814V21.4644H61.6794V27.5163H60.5534Z" fill="white"/>
<path d="M64.2478 25.0023V27.5193H63.0156V21.4644H64.2478V23.8742H64.7836L66.8184 21.4644H68.3175L65.8005 24.4099L68.5298 27.5163H66.9771L64.7816 24.9993L64.2478 25.0023Z" fill="white"/>
<path d="M77.3157 24.4637C77.3157 25.0887 77.1304 25.6996 76.7832 26.2193C76.436 26.7389 75.9425 27.1439 75.3651 27.3831C74.7877 27.6222 74.1523 27.6848 73.5394 27.5629C72.9264 27.441 72.3634 27.14 71.9215 26.6981C71.4796 26.2562 71.1786 25.6931 71.0567 25.0802C70.9348 24.4672 70.9973 23.8319 71.2365 23.2545C71.4757 22.6771 71.8807 22.1836 72.4003 21.8364C72.92 21.4891 73.5309 21.3038 74.1559 21.3038C74.5718 21.3003 74.9843 21.3797 75.3692 21.5372C75.7542 21.6948 76.1039 21.9274 76.398 22.2215C76.6922 22.5156 76.9248 22.8654 77.0823 23.2503C77.2399 23.6353 77.3192 24.0478 77.3157 24.4637ZM72.1746 24.4637C72.1849 24.8428 72.3068 25.2104 72.525 25.5206C72.7431 25.8308 73.0479 26.0698 73.4012 26.2078C73.7544 26.3457 74.1405 26.3764 74.5111 26.2961C74.8818 26.2157 75.2205 26.0279 75.4849 25.7561C75.7494 25.4843 75.9278 25.1406 75.998 24.7679C76.0681 24.3952 76.0268 24.0101 75.8793 23.6607C75.7317 23.3114 75.4845 23.0133 75.1684 22.8037C74.8523 22.5941 74.4815 22.4824 74.1023 22.4825C73.8422 22.474 73.5833 22.5198 73.342 22.6171C73.1007 22.7144 72.8824 22.861 72.701 23.0474C72.5195 23.2339 72.379 23.4562 72.2884 23.7001C72.1978 23.9439 72.159 24.204 72.1746 24.4637Z" fill="white"/>
<path d="M79.5633 25.0528V27.5163H78.3846V21.4644H82.8323V22.5358H79.5653V23.9278H82.6181V25.0528H79.5633Z" fill="white"/>
<path d="M91.2333 22.2674L90.3762 23.1246C90.1943 22.9214 89.9714 22.7591 89.7223 22.6483C89.4731 22.5375 89.2033 22.4807 88.9306 22.4817C88.4174 22.4936 87.9287 22.7041 87.5675 23.0689C87.2062 23.4336 87.0005 23.9243 86.9935 24.4376C86.9866 24.951 87.179 25.447 87.5303 25.8214C87.8815 26.1958 88.3643 26.4194 88.8771 26.4452C89.2814 26.4888 89.6867 26.3734 90.0074 26.1234C90.3282 25.8735 90.539 25.5085 90.5955 25.1059H89.0964V24.0879H91.8813V24.4094C91.908 24.8106 91.8513 25.213 91.7149 25.5913C91.5784 25.9696 91.3651 26.3155 91.0884 26.6073C90.8117 26.8991 90.4776 27.1304 90.1071 27.2868C89.7366 27.4431 89.3378 27.521 88.9357 27.5157C88.5207 27.5122 88.1105 27.427 87.7285 27.2649C87.3465 27.1029 87.0001 26.8672 86.7092 26.5712C86.4182 26.2753 86.1884 25.925 86.0329 25.5403C85.8773 25.1556 85.7991 24.744 85.8026 24.329C85.8061 23.9141 85.8913 23.5038 86.0534 23.1218C86.2154 22.7398 86.4511 22.3934 86.7471 22.1025C87.043 21.8115 87.3933 21.5817 87.778 21.4262C88.1627 21.2706 88.5743 21.1924 88.9893 21.1959C89.8399 21.2838 90.6342 21.6622 91.2384 22.2674" fill="white"/>
<path d="M93.0078 27.5163V21.4644H97.4555V22.5358H94.1885V23.8752H97.3484V25.0023H94.1885V26.3942H97.5091V27.5193L93.0078 27.5163Z" fill="white"/>
<path d="M104.79 24.4637C104.79 25.0887 104.605 25.6996 104.258 26.2193C103.911 26.7389 103.417 27.1439 102.84 27.3831C102.262 27.6222 101.627 27.6848 101.014 27.5629C100.401 27.441 99.838 27.14 99.3961 26.6981C98.9542 26.2562 98.6532 25.6931 98.5313 25.0802C98.4094 24.4672 98.4719 23.8319 98.7111 23.2545C98.9503 22.6771 99.3553 22.1836 99.8749 21.8364C100.395 21.4891 101.006 21.3038 101.63 21.3038C102.046 21.3003 102.459 21.3797 102.844 21.5372C103.229 21.6948 103.579 21.9274 103.873 22.2215C104.167 22.5156 104.399 22.8654 104.557 23.2503C104.715 23.6353 104.794 24.0478 104.79 24.4637ZM99.6492 24.4637C99.6596 24.8428 99.7814 25.2104 99.9996 25.5206C100.218 25.8308 100.523 26.0698 100.876 26.2078C101.229 26.3457 101.615 26.3764 101.986 26.2961C102.356 26.2157 102.695 26.0279 102.96 25.7561C103.224 25.4843 103.402 25.1406 103.473 24.7679C103.543 24.3952 103.501 24.0101 103.354 23.6607C103.206 23.3114 102.959 23.0133 102.643 22.8037C102.327 22.5941 101.956 22.4824 101.577 22.4825C101.317 22.474 101.058 22.5198 100.817 22.6171C100.575 22.7144 100.357 22.861 100.176 23.0474C99.9942 23.2339 99.8537 23.4562 99.763 23.7001C99.6724 23.9439 99.6336 24.204 99.6492 24.4637Z" fill="white"/>
<path d="M110.626 23.2839C110.629 23.5167 110.586 23.7477 110.498 23.9634C110.41 24.1791 110.28 24.375 110.115 24.5396C109.951 24.7043 109.755 24.8343 109.539 24.9221C109.323 25.0099 109.092 25.0537 108.86 25.0508H108.806L110.68 27.4607H109.235L107.468 25.0508H107.093V27.5142H105.914V21.4644H108.485C109.876 21.4644 110.626 22.1072 110.626 23.2839ZM107.038 24.0339H108.377C109.02 24.0339 109.395 23.766 109.395 23.2839C109.395 22.8017 109.02 22.5338 108.377 22.5338H107.038V24.0339Z" fill="white"/>
<path d="M116.945 22.2674L116.088 23.1246C115.906 22.9214 115.683 22.7591 115.434 22.6483C115.185 22.5375 114.915 22.4807 114.643 22.4817C114.129 22.4936 113.641 22.7041 113.279 23.0689C112.918 23.4336 112.712 23.9243 112.706 24.4376C112.699 24.951 112.891 25.447 113.242 25.8214C113.594 26.1958 114.076 26.4194 114.589 26.4452C114.993 26.4888 115.399 26.3734 115.719 26.1234C116.04 25.8735 116.251 25.5085 116.308 25.1059H114.755V24.0879H117.54V24.4094C117.566 24.8106 117.509 25.2129 117.373 25.5911C117.236 25.9693 117.023 26.3152 116.747 26.6069C116.47 26.8987 116.136 27.1301 115.765 27.2864C115.395 27.4428 114.996 27.5209 114.594 27.5157C114.179 27.5122 113.769 27.427 113.387 27.2649C113.005 27.1029 112.659 26.8672 112.368 26.5712C112.077 26.2753 111.847 25.925 111.691 25.5403C111.536 25.1556 111.458 24.744 111.461 24.329C111.465 23.9141 111.55 23.5038 111.712 23.1218C111.874 22.7398 112.11 22.3934 112.405 22.1025C112.701 21.8115 113.052 21.5817 113.436 21.4262C113.821 21.2706 114.233 21.1924 114.648 21.1959C115.514 21.284 116.325 21.6615 116.95 22.2674" fill="white"/>
<path d="M119.839 21.4644H118.66V27.5163H119.839V21.4644Z" fill="white"/>
<path d="M125.516 27.5163L124.98 26.1243H122.409L121.874 27.5163H120.642L122.999 21.4644H124.444L126.801 27.5163H125.516ZM124.606 24.9993L123.749 22.643L122.892 24.9993H124.606Z" fill="white"/>
<path d="M44.0056 13.1635V8.29028H45.6118V13.0564C45.6118 14.4483 46.2547 15.0377 47.2181 15.0377C48.236 15.0377 48.8779 14.5019 48.8779 13.5921C48.8779 12.5207 47.6992 12.3064 47.6992 11.0216H49.3055C49.359 11.718 50.5377 12.0395 50.5377 13.7509C50.5377 15.3571 49.1457 16.5357 47.2171 16.5357C45.2884 16.5357 44.0056 15.4127 44.0056 13.1635Z" fill="white"/>
<path d="M51.5551 13.1633V12.6276H53.1613V13.0562C53.1613 14.4481 53.8042 15.0374 54.8211 15.0374C55.0375 15.0594 55.256 15.0329 55.4609 14.9599C55.6657 14.887 55.8518 14.7694 56.0056 14.6156C56.1593 14.4618 56.277 14.2758 56.3499 14.0709C56.4229 13.8661 56.4493 13.6475 56.4274 13.4312C56.4274 11.5571 53.8568 11.0213 53.8568 8.77221V8.29004H55.463V8.66506C55.463 10.432 58.0912 10.5927 58.0912 13.4312C58.1116 13.8632 58.0379 14.2944 57.8751 14.6951C57.7124 15.0957 57.4645 15.4562 57.1487 15.7517C56.8329 16.0471 56.4567 16.2704 56.0461 16.4061C55.6355 16.5418 55.2003 16.5866 54.7706 16.5375C54.3268 16.5673 53.8819 16.4991 53.4675 16.3377C53.053 16.1764 52.6791 15.9258 52.3722 15.6038C52.0654 15.2819 51.8331 14.8963 51.6919 14.4746C51.5507 14.0528 51.504 13.6051 51.5551 13.1633Z" fill="white"/>
<path d="M59.212 13.485V12.9492H60.8182V13.3778C60.7993 13.5889 60.8261 13.8016 60.8967 14.0014C60.9673 14.2012 61.08 14.3835 61.2273 14.5359C61.3746 14.6883 61.553 14.8072 61.7503 14.8845C61.9476 14.9618 62.1593 14.9958 62.3709 14.984C63.3352 14.984 63.9771 14.3947 63.9771 13.0028V11.7716C64.0037 11.5777 63.9868 11.3803 63.9279 11.1937C63.8689 11.0071 63.7692 10.8359 63.6361 10.6925C63.5029 10.5491 63.3395 10.437 63.1578 10.3644C62.9761 10.2918 62.7805 10.2604 62.5852 10.2725C62.4173 10.2484 62.2462 10.2609 62.0836 10.3093C61.921 10.3577 61.7709 10.4408 61.6436 10.5529C61.5163 10.6649 61.4148 10.8033 61.3461 10.9583C61.2774 11.1134 61.2432 11.2816 61.2458 11.4512V11.6119H59.6396V11.4512C59.6305 11.1036 59.6923 10.7578 59.8212 10.4348C59.9501 10.1119 60.1434 9.81851 60.3892 9.57264C60.6351 9.32677 60.9285 9.1335 61.2514 9.00462C61.5744 8.87574 61.9202 8.81394 62.2678 8.82297C62.6089 8.80998 62.9475 8.88725 63.2492 9.04699C63.5509 9.20673 63.8051 9.44328 63.9862 9.73273V8.18311H65.5803V13.0564C65.5803 15.3055 64.2945 16.4306 62.3668 16.4306C61.9564 16.4907 61.5377 16.4578 61.1418 16.3342C60.7458 16.2107 60.3827 15.9997 60.0793 15.7169C59.7759 15.434 59.5399 15.0866 59.3889 14.7003C59.2379 14.3139 59.1757 13.8986 59.2069 13.485" fill="white"/>
<path d="M66.7134 13.1635V12.6278H68.3196V13.0564C68.3196 14.4483 68.9625 15.0377 69.9794 15.0377C70.1957 15.0596 70.4143 15.0332 70.6191 14.9602C70.824 14.8872 71.01 14.7696 71.1638 14.6158C71.3176 14.4621 71.4352 14.276 71.5082 14.0712C71.5811 13.8663 71.6076 13.6478 71.5856 13.4314C71.5856 11.5573 69.015 11.0216 69.015 8.77245V8.29028H70.6213V8.6653C70.6213 10.4323 73.2495 10.593 73.2495 13.4314C73.2698 13.8634 73.1961 14.2946 73.0334 14.6953C72.8706 15.096 72.6228 15.4565 72.307 15.7519C71.9912 16.0473 71.6149 16.2706 71.2043 16.4063C70.7937 16.542 70.3585 16.5868 69.9288 16.5377C69.4852 16.5672 69.0406 16.4988 68.6263 16.3373C68.2121 16.1758 67.8385 15.9252 67.5319 15.6033C67.2252 15.2813 66.9932 14.8959 66.8521 14.4743C66.711 14.0527 66.6643 13.6052 66.7154 13.1635" fill="white"/>
<path d="M84.0613 13.7527V16.3809H82.4015V13.8639C82.4015 12.9542 81.9729 12.472 81.33 12.472C81.166 12.4722 81.0039 12.5065 80.8539 12.5726C80.7039 12.6388 80.5692 12.7353 80.4584 12.8562C80.3476 12.977 80.2631 13.1196 80.2103 13.2748C80.1574 13.43 80.1374 13.5944 80.1514 13.7578V15.4135H78.4916V13.6951C78.4916 12.8915 78.0629 12.4093 77.3665 12.4093C76.7236 12.4093 76.1878 12.8915 76.1878 13.8548V16.3233H74.5291V12.6843C74.5291 9.04525 77.1572 8.23657 79.2952 8.23657H81.706V9.73565H79.4569C77.69 9.73565 76.297 10.2714 76.0827 11.6098C76.2535 11.3899 76.4729 11.2126 76.7237 11.0918C76.9745 10.9709 77.2499 10.9099 77.5282 10.9133C77.9182 10.924 78.2957 11.0526 78.6111 11.2821C78.9265 11.5117 79.165 11.8313 79.2952 12.1991C79.5032 11.8 79.8195 11.4676 80.2079 11.2401C80.5962 11.0127 81.0409 10.8994 81.4907 10.9133C81.8475 10.9261 82.198 11.0102 82.5217 11.1608C82.8454 11.3113 83.1356 11.5252 83.3752 11.7898C83.6149 12.0544 83.799 12.3644 83.9169 12.7013C84.0347 13.0383 84.0838 13.3955 84.0613 13.7517" fill="white"/>
<path d="M85.2421 13.1632V11.557C85.2421 9.30784 86.5814 8.18277 88.2948 8.18277C88.7839 8.13877 89.2744 8.24945 89.6972 8.4992C90.1199 8.74894 90.4536 9.12514 90.6511 9.5747C90.8478 9.13602 91.1736 8.76775 91.585 8.51905C91.9964 8.27035 92.4739 8.15304 92.9538 8.18277C93.3379 8.19061 93.7162 8.27745 94.0653 8.43789C94.4143 8.59833 94.7266 8.82892 94.9826 9.11531C95.2387 9.4017 95.433 9.73775 95.5535 10.1025C95.674 10.4673 95.7181 10.853 95.683 11.2355V16.4302H94.0768V11.2355C94.0768 10.2712 93.5411 9.68286 92.791 9.68286C92.041 9.68286 91.5093 10.2712 91.5093 11.2355V13.1632C91.5093 15.4123 90.1699 16.5374 88.3494 16.5374C86.5289 16.5374 85.2431 15.4123 85.2431 13.1632H85.2421ZM89.902 13.056V11.557C89.902 10.2176 89.2592 9.62929 88.403 9.62929C87.5468 9.62929 86.9039 10.2186 86.9039 11.557V13.056C86.9039 14.448 87.5468 15.0373 88.403 15.0373C89.2066 15.0373 89.902 14.448 89.902 13.056Z" fill="white"/>
<path d="M97.1825 13.5879V13.1634H98.7888V13.4869C98.7912 13.7021 98.8391 13.9145 98.9294 14.1099C99.0196 14.3054 99.1501 14.4796 99.3123 14.6212C99.4746 14.7627 99.6649 14.8683 99.8708 14.9312C100.077 14.9941 100.294 15.0127 100.507 14.9859C101.579 14.9859 102.226 14.5573 102.226 13.9144C102.226 13.218 101.583 12.9501 100.887 12.9501H100.03V11.5046H100.887C101.584 11.5046 102.066 11.2903 102.066 10.6474C102.066 10.0581 101.477 9.57591 100.513 9.57591C99.4418 9.57591 98.7948 10.2188 98.7948 10.9678V11.1821H97.1825V10.9143C97.1825 9.36161 98.5219 8.12939 100.557 8.12939C102.431 8.12939 103.77 9.25446 103.77 10.6464C103.778 11.0224 103.654 11.3892 103.419 11.6828C103.184 11.9764 102.853 12.1781 102.484 12.2526C102.9 12.3089 103.278 12.5248 103.538 12.8545C103.798 13.1842 103.919 13.602 103.876 14.0196C103.876 15.4651 102.537 16.483 100.502 16.483C98.4673 16.5366 97.1815 15.4115 97.1815 13.591" fill="white"/>
<path d="M105.001 13.4843V12.9485H106.607V13.4327C106.595 13.6443 106.629 13.856 106.707 14.0533C106.784 14.2506 106.903 14.429 107.055 14.5762C107.208 14.7235 107.39 14.8363 107.59 14.9069C107.79 14.9775 108.002 15.0043 108.213 14.9854C109.178 14.9854 109.766 14.396 109.766 13.0577V11.503C109.766 10.1636 109.123 9.57534 108.213 9.57534C108.003 9.56092 107.793 9.59078 107.595 9.66298C107.397 9.73518 107.216 9.84812 107.065 9.99448C106.914 10.1408 106.795 10.3174 106.716 10.5126C106.637 10.7079 106.6 10.9175 106.607 11.128V11.2887H105.001V11.128C104.988 10.7096 105.063 10.2931 105.222 9.90588C105.381 9.51863 105.62 9.16939 105.923 8.88108C106.227 8.59277 106.588 8.37193 106.983 8.23305C107.378 8.09417 107.797 8.04039 108.214 8.07525C108.658 8.04578 109.103 8.11421 109.517 8.2757C109.931 8.43719 110.305 8.68778 110.611 9.00973C110.918 9.33167 111.15 9.7171 111.291 10.1387C111.432 10.5603 111.479 11.0078 111.428 11.4494V13.0557C111.428 15.3048 110.142 16.4299 108.214 16.4299C107.801 16.4909 107.38 16.459 106.981 16.3365C106.581 16.2141 106.214 16.0041 105.907 15.7219C105.599 15.4398 105.358 15.0925 105.201 14.7054C105.044 14.3183 104.976 13.9011 105.001 13.4843Z" fill="white"/>
<path d="M112.608 11.9329V10.915C112.587 10.5617 112.637 10.2078 112.756 9.87446C112.875 9.54112 113.06 9.23524 113.3 8.97518C113.54 8.71511 113.831 8.5062 114.153 8.361C114.476 8.21579 114.825 8.13726 115.179 8.13014C115.605 8.12659 116.024 8.24594 116.385 8.47394C116.746 8.70193 117.033 9.02894 117.213 9.41593C117.388 9.03561 117.666 8.71272 118.017 8.48502C118.368 8.25732 118.776 8.13423 119.195 8.13014C119.597 8.14479 119.987 8.27344 120.318 8.50109C120.65 8.72874 120.91 9.04602 121.069 9.41593C121.26 9.01496 121.566 8.67925 121.947 8.45061C122.328 8.22197 122.768 8.11052 123.212 8.13014C123.564 8.13371 123.913 8.21029 124.234 8.35506C124.556 8.49983 124.844 8.70965 125.08 8.97128C125.317 9.23292 125.496 9.5407 125.608 9.87524C125.72 10.2098 125.761 10.5638 125.729 10.915V13.057H124.123V10.9686C124.123 10.0588 123.694 9.57665 123.051 9.57665C122.888 9.58097 122.728 9.61798 122.58 9.68548C122.432 9.75299 122.299 9.8496 122.189 9.96958C122.079 10.0896 121.994 10.2304 121.94 10.3838C121.886 10.5372 121.863 10.7 121.872 10.8624V12.7901H120.266V10.8594C120.286 10.6994 120.272 10.537 120.224 10.3829C120.177 10.2287 120.097 10.0864 119.991 9.96501C119.885 9.84366 119.754 9.74607 119.608 9.67863C119.461 9.61119 119.302 9.57541 119.141 9.57362C118.981 9.57978 118.824 9.61849 118.68 9.68737C118.536 9.75625 118.407 9.85385 118.302 9.97421C118.196 10.0946 118.117 10.2352 118.068 10.3874C118.019 10.5396 118.001 10.7002 118.016 10.8594V12.7871H116.41V10.8594C116.41 10.0558 115.981 9.57362 115.338 9.57362C114.749 9.57362 114.213 10.0558 114.213 11.0191V11.8227C114.213 13.9111 115.123 14.9291 118.016 14.9291H123.323V16.4281H117.807C115.451 16.3746 112.612 15.5709 112.612 11.9299" fill="white"/>
<path d="M136.653 10.9143V16.3728H134.994V11.0154C134.994 10.1056 134.565 9.62344 133.922 9.62344C133.758 9.62368 133.596 9.65795 133.446 9.72408C133.296 9.7902 133.161 9.88675 133.051 10.0076C132.94 10.1285 132.855 10.271 132.802 10.4262C132.75 10.5814 132.729 10.7459 132.743 10.9092V14.2834H131.084V10.9143C131.084 10.1107 130.655 9.6285 129.959 9.6285C129.316 9.6285 128.78 10.1107 128.78 11.074V16.3759H127.121V10.9173C127.107 10.5568 127.165 10.197 127.293 9.85966C127.421 9.52232 127.616 9.21434 127.867 8.95423C128.117 8.69412 128.417 8.48724 128.749 8.34602C129.081 8.20481 129.438 8.13216 129.799 8.13245C130.234 8.12064 130.664 8.23596 131.035 8.46432C131.405 8.69267 131.702 9.02416 131.887 9.41824C132.085 9.0108 132.399 8.67116 132.79 8.44229C133.181 8.21341 133.631 8.10559 134.083 8.13245C134.438 8.13467 134.789 8.20988 135.114 8.35343C135.439 8.49697 135.732 8.70578 135.973 8.96691C136.214 9.22804 136.398 9.5359 136.516 9.87141C136.633 10.2069 136.68 10.5629 136.653 10.9173" fill="white"/>
<path d="M138.316 13.1633V8.29004H139.923V13.0562C139.923 14.4481 140.565 15.0374 141.529 15.0374C142.547 15.0374 143.189 14.5017 143.189 13.5919C143.189 12.5204 142.01 12.3061 142.01 11.0213H143.616C143.67 11.7178 144.848 12.0393 144.848 13.7506C144.848 15.3568 143.456 16.5355 141.528 16.5355C139.599 16.5355 138.314 15.4104 138.314 13.1613" fill="white"/>
<path d="M155.292 13.7491C155.292 15.3554 154.006 16.534 152.025 16.534C150.043 16.534 148.758 15.3594 148.758 13.7491C148.762 13.044 149.038 12.3677 149.527 11.8598C150.016 11.3519 150.681 11.0512 151.386 11.0199V10.4305C151.386 9.57335 150.368 9.57335 150.368 8.28857H151.974C151.974 9.03862 152.992 9.14577 152.992 10.1627V11.0724C153.634 11.1658 154.221 11.4883 154.644 11.9805C155.068 12.4726 155.299 13.1011 155.295 13.7502L155.292 13.7491ZM153.635 13.6966C153.635 13.4928 153.592 13.2913 153.509 13.1052C153.426 12.9191 153.305 12.7525 153.154 12.6161C153.002 12.4798 152.824 12.3769 152.63 12.314C152.436 12.2511 152.231 12.2297 152.029 12.2511C151.83 12.2372 151.631 12.2643 151.444 12.3307C151.256 12.397 151.084 12.5013 150.939 12.6369C150.794 12.7726 150.678 12.9367 150.598 13.1191C150.519 13.3014 150.478 13.4982 150.478 13.6971C150.478 13.896 150.519 14.0927 150.598 14.2751C150.678 14.4575 150.794 14.6216 150.939 14.7572C151.084 14.8929 151.256 14.9971 151.444 15.0635C151.631 15.1299 151.83 15.157 152.029 15.1431C152.231 15.1645 152.436 15.143 152.63 15.0802C152.824 15.0173 153.002 14.9143 153.154 14.778C153.305 14.6417 153.426 14.4751 153.509 14.289C153.592 14.1028 153.635 13.9013 153.635 13.6976" fill="white"/>
<path d="M156.309 13.1633V12.6276H157.915V13.0562C157.915 14.4481 158.558 15.0374 159.575 15.0374C159.791 15.0594 160.01 15.0329 160.215 14.9599C160.42 14.887 160.606 14.7694 160.759 14.6156C160.913 14.4618 161.031 14.2758 161.104 14.0709C161.177 13.8661 161.203 13.6475 161.181 13.4312C161.181 11.5571 158.611 11.0213 158.611 8.77221V8.29004H160.217V8.66506C160.217 10.432 162.845 10.5927 162.845 13.4312C162.865 13.8632 162.792 14.2944 162.629 14.6951C162.466 15.0957 162.218 15.4562 161.903 15.7517C161.587 16.0471 161.21 16.2704 160.8 16.4061C160.389 16.5418 159.954 16.5866 159.524 16.5375C159.081 16.567 158.636 16.4985 158.222 16.337C157.808 16.1756 157.434 15.925 157.127 15.603C156.821 15.2811 156.589 14.8956 156.448 14.474C156.307 14.0524 156.26 13.605 156.311 13.1633" fill="white"/>
<path d="M164.072 13.7486V10.6463C164.097 10.3074 164.189 9.97688 164.343 9.67404C164.497 9.37119 164.71 9.10215 164.969 8.88268C165.229 8.66322 165.529 8.49775 165.853 8.39598C166.178 8.29422 166.519 8.2582 166.857 8.29004H170.017V9.68197H167.071C166.321 9.68197 165.678 10.0034 165.678 10.807V11.8785C165.893 11.5593 166.191 11.3054 166.541 11.1449C166.891 10.9844 167.278 10.9235 167.66 10.9688C168.034 10.9548 168.408 11.0164 168.758 11.1501C169.108 11.2837 169.428 11.4866 169.698 11.7465C169.968 12.0065 170.182 12.3182 170.329 12.6631C170.476 13.0079 170.552 13.3789 170.552 13.7536C170.552 15.3599 169.213 16.5385 167.285 16.5385C165.356 16.5385 164.072 15.3589 164.072 13.7486ZM168.838 13.695C168.834 13.4995 168.79 13.3069 168.709 13.1291C168.627 12.9514 168.51 12.7923 168.364 12.6617C168.219 12.5312 168.048 12.432 167.862 12.3703C167.677 12.3086 167.48 12.2857 167.286 12.3031C167.009 12.3279 166.746 12.433 166.528 12.6054C166.311 12.7778 166.148 13.01 166.061 13.2735C165.973 13.537 165.964 13.8203 166.036 14.0886C166.107 14.3569 166.255 14.5986 166.462 14.7839C166.669 14.9692 166.925 15.0901 167.199 15.1318C167.474 15.1735 167.755 15.134 168.007 15.0184C168.259 14.9027 168.472 14.7159 168.62 14.4808C168.768 14.2457 168.844 13.9726 168.838 13.695Z" fill="white"/>
<path d="M171.516 13.5385V13.217H173.122V13.4849C173.112 13.7082 173.151 13.9309 173.235 14.1377C173.32 14.3446 173.448 14.5308 173.611 14.6834C173.775 14.836 173.969 14.9514 174.181 15.0218C174.393 15.0922 174.618 15.1158 174.84 15.0911C175.912 15.0911 176.559 14.6625 176.559 13.7518C176.559 12.8946 175.916 12.5195 174.84 12.5195H174.144V11.073H175.001C175.965 11.073 176.393 10.698 176.393 9.84081V8.34375H177.999V10.0622C177.999 10.4701 177.861 10.8661 177.609 11.1865C177.356 11.507 177.004 11.7333 176.607 11.8291C177.097 11.9354 177.531 12.2175 177.827 12.6221C178.123 13.0266 178.26 13.5256 178.213 14.0247C178.213 15.5238 176.874 16.6529 174.839 16.6529C172.804 16.5457 171.519 15.4207 171.519 13.5466" fill="white"/>
<path d="M179.551 11.5035C179.529 11.0751 179.595 10.6468 179.744 10.2445C179.893 9.84228 180.122 9.47454 180.418 9.16365C180.713 8.85276 181.069 8.60522 181.463 8.43607C181.857 8.26691 182.282 8.17969 182.711 8.17969C183.14 8.17969 183.564 8.26691 183.958 8.43607C184.353 8.60522 184.708 8.85276 185.004 9.16365C185.299 9.47454 185.529 9.84228 185.678 10.2445C185.827 10.6468 185.892 11.0751 185.871 11.5035V16.4304H184.264V11.5571C184.264 10.2713 183.621 9.683 182.712 9.683C181.855 9.683 181.213 10.2723 181.213 11.5571V16.4304H179.606V11.5035H179.551Z" fill="white"/>
</g>
<defs>
<clipPath id="clip0_926_7866">
<rect width="185.138" height="32.3469" fill="white" transform="translate(0.732422 0.20459)"/>
</clipPath>
</defs>
</svg>
