<svg width="66" height="72" viewBox="0 0 66 72" fill="none" xmlns="http://www.w3.org/2000/svg">
<g clip-path="url(#clip0_926_8125)">
<path d="M47.3151 60.8407C45.1374 60.8407 41.996 59.922 38.3536 58.8492C37.0688 58.4638 35.7005 58.0655 34.2358 57.6543C31.4157 56.7614 22.4092 54.0248 18.0601 54.044C12.5033 54.044 7.64674 56.5687 4.01074 61.2968C2.43047 63.3506 1.19583 65.6485 0.355469 68.0998L10.6339 71.3118V71.3504C10.7239 71.0806 12.8759 64.7979 18.1372 64.7786C20.0259 64.7786 26.3471 66.3975 31.1202 67.9135L31.3129 67.9713C32.7326 68.3632 34.0624 68.7551 35.3536 69.1405C39.799 70.4253 43.647 71.5881 47.4051 71.5688C48.3195 71.5679 49.2324 71.4948 50.1353 71.3504C54.5486 70.6437 58.4223 68.2412 61.448 64.2839C63.0038 62.245 64.2227 59.9699 65.0583 57.5451L54.7799 54.3331C54.7863 54.3331 52.615 60.815 47.3151 60.8407Z" fill="white"/>
<path d="M47.3151 34.0008C45.1374 34.0008 41.996 33.0885 38.3536 32.0157C37.0688 31.6239 35.7005 31.2256 34.2358 30.8209C31.4157 29.9215 22.4092 27.1913 18.0601 27.2106C12.5033 27.2106 7.64674 29.7352 4.01074 34.4633C2.43047 36.5171 1.19583 38.815 0.355469 41.2663L10.6339 44.4783V44.5233C10.7239 44.2535 12.8759 37.9708 18.1372 37.9451C20.0259 37.9451 26.3471 39.5704 31.1202 41.0865L31.3129 41.1443C32.7326 41.5361 34.0624 41.928 35.3536 42.3134C39.799 43.5983 43.647 44.7546 47.4051 44.7417C48.3193 44.7376 49.232 44.6646 50.1353 44.5233C54.5486 43.8103 58.4223 41.4141 61.448 37.4569C63.0227 35.4028 64.2549 33.1077 65.0969 30.6603L54.8184 27.4482C54.7863 27.5253 52.615 33.9751 47.3151 34.0008Z" fill="white"/>
<path d="M47.3151 7.1687C45.1374 7.1687 41.996 6.25006 38.3536 5.17725C37.0688 4.7918 35.7005 4.39351 34.2358 3.9888C31.4157 3.08944 22.4092 0.37207 18.0601 0.37207C12.5033 0.37207 7.64674 2.90314 4.01074 7.6248C2.43047 9.67862 1.19583 11.9765 0.355469 14.4279L10.6339 17.6399V17.6848C10.7239 17.415 12.8759 11.1323 18.1372 11.1131C20.0259 11.1131 26.3471 12.7383 31.1202 14.248L31.3129 14.3122C32.7326 14.7041 34.0624 15.096 35.3536 15.475C39.799 16.7598 43.647 17.9225 47.4051 17.9097C48.3059 17.9152 49.2059 17.8508 50.0967 17.717C54.5101 17.0103 58.3837 14.6077 61.4095 10.6505C62.9862 8.59545 64.2186 6.29783 65.0583 3.84747L54.7799 0.635456C54.7863 0.693272 52.615 7.143 47.3151 7.1687Z" fill="white"/>
</g>
<defs>
<clipPath id="clip0_926_8125">
<rect width="64.7028" height="71.2104" fill="white" transform="translate(0.355469 0.372559)"/>
</clipPath>
</defs>
</svg>
